<?xml version="1.0" encoding="utf-8"?>
<!-- Generator: Adobe Illustrator 21.0.2, SVG Export Plug-In . SVG Version: 6.00 Build 0)  -->
<svg version="1.1" id="Слой_1" xmlns="http://www.w3.org/2000/svg" xmlns:xlink="http://www.w3.org/1999/xlink" x="0px" y="0px"
	 viewBox="0 0 690 14.7" style="enable-background:new 0 0 690 14.7;" xml:space="preserve">
<style type="text/css">
	.st0{fill:#E4DEFC;}
</style>
<path class="st0" d="M675.8,5.6L672.6,7c-2.7,1.2-5.7,1.2-8.4,0L651.1,1c-2.7-1.2-5.7-1.2-8.4,0L629.5,7c-2.7,1.2-5.7,1.2-8.4,0
	L608,1c-2.7-1.2-5.7-1.2-8.4,0L586.4,7c-2.7,1.2-5.7,1.2-8.4,0L564.8,1c-2.7-1.2-5.7-1.2-8.4,0L543.3,7c-2.7,1.2-5.7,1.2-8.4,0
	L521.7,1c-2.7-1.2-5.7-1.2-8.4,0L500.1,7c-2.7,1.2-5.7,1.2-8.4,0L478.6,1c-2.7-1.2-5.7-1.2-8.4,0L457,7c-2.7,1.2-5.7,1.2-8.4,0
	L435.5,1c-2.7-1.2-5.7-1.2-8.4,0L413.9,7c-2.7,1.2-5.7,1.2-8.4,0L392.3,1c-2.7-1.2-5.7-1.2-8.4,0L370.8,7c-2.7,1.2-5.7,1.2-8.4,0
	L349.2,1c-2.7-1.2-5.7-1.2-8.4,0L327.6,7c-2.7,1.2-5.7,1.2-8.4,0L306.1,1c-2.7-1.2-5.7-1.2-8.4,0L284.5,7c-2.7,1.2-5.7,1.2-8.4,0
	L263,1c-2.7-1.2-5.7-1.2-8.4,0L241.4,7c-2.7,1.2-5.7,1.2-8.4,0L219.8,1c-2.7-1.2-5.7-1.2-8.4,0L198.3,7c-2.7,1.2-5.7,1.2-8.4,0
	L176.7,1c-2.7-1.2-5.7-1.2-8.4,0L155.1,7c-2.7,1.2-5.7,1.2-8.4,0L133.6,1c-2.7-1.2-5.7-1.2-8.4,0L112,7c-2.7,1.2-5.7,1.2-8.4,0
	L90.5,1c-2.7-1.2-5.7-1.2-8.4,0L68.9,7c-2.7,1.2-5.7,1.2-8.4,0L47.3,1c-2.7-1.2-5.7-1.2-8.4,0L25.8,7c-2.7,1.2-5.7,1.2-8.4,0
	l-3.1-1.5C7.6,2.5,0,7.4,0,14.7h690C690,7.4,682.4,2.5,675.8,5.6z"/>
</svg>
