<svg width="58" height="58" viewBox="0 0 58 58" fill="none" xmlns="http://www.w3.org/2000/svg">
<path d="M46.7799 0C46.7799 7.50726 46.7799 14.9444 46.7799 22.4516C48.0196 22.4516 49.2241 22.4633 50.4287 22.4399C50.6042 22.4399 50.7796 22.2996 50.9433 22.206C52.6625 21.2121 54.3699 21.2823 55.9955 22.3815C57.5861 23.4456 58.3228 25.3516 57.8667 27.246C57.4106 29.1286 56.1944 30.3214 54.2881 30.7657C53.0718 31.0581 51.9374 30.8125 50.8731 30.1577C50.7094 30.0641 50.5223 29.9472 50.3469 29.9472C49.1774 29.9238 48.0079 29.9355 46.7799 29.9355C46.7799 35.5484 46.7799 41.1262 46.7799 46.7391C45.2596 46.8327 44.0082 47.394 43.096 48.5516C42.3592 49.4871 42.0317 50.5629 42.0902 51.7673C42.2189 54.1177 44.1017 55.9302 46.7214 56.1524C46.7214 56.7371 46.7214 57.3335 46.7214 58C46.5226 58 46.3121 58 46.1133 58C32.933 58 19.7645 58 6.58427 58C2.91205 58 0 55.0766 0 51.3931C0 36.7762 0 22.1593 0 7.54234C0 3.34435 3.34476 0 7.51987 0C20.3843 0 33.2488 0 46.1133 0C46.3121 0 46.4992 0 46.7799 0ZM44.8853 1.90605C32.3951 1.90605 19.9633 1.90605 7.47309 1.90605C7.47309 6.26774 7.47309 10.5827 7.47309 14.921C6.84156 14.921 6.24512 14.921 5.5902 14.921C5.5902 10.6762 5.5902 6.46653 5.5902 2.23347C3.40324 2.97016 1.8712 5.09839 1.8712 7.37863C1.8595 20.3585 1.8712 33.3383 1.8712 46.3181C1.8712 46.4585 1.89459 46.5988 1.91798 46.821C2.99391 45.7919 4.1985 45.2073 5.63698 44.9617C5.63698 35.5718 5.63698 26.2169 5.63698 16.8738C6.2802 16.8738 6.86495 16.8738 7.50817 16.8738C7.50817 26.2286 7.50817 35.5484 7.50817 44.8681C19.9984 44.8681 32.4302 44.8681 44.8736 44.8681C44.8736 39.8867 44.8736 34.9286 44.8736 29.9706C40.8155 29.9706 36.7924 29.9706 32.7693 29.9706C32.7693 30.5903 32.7693 31.175 32.7693 31.748C34.1844 32.0871 34.6171 32.6484 34.6171 34.0867C34.6171 34.5895 34.6288 35.104 34.6171 35.6069C34.582 36.5891 33.7985 37.396 32.8161 37.396C27.7873 37.4077 22.7584 37.4077 17.7296 37.396C16.7355 37.396 15.9519 36.6008 15.9169 35.6185C15.8935 34.9403 15.835 34.2387 15.9403 33.5722C16.0104 33.1044 16.2677 32.6133 16.5952 32.2625C16.8758 31.9702 17.3553 31.8649 17.753 31.6661C17.753 29.877 17.753 28.0528 17.753 26.1585C15.566 26.1585 13.4258 26.1585 11.2857 26.1585C11.2857 19.271 11.2857 12.4419 11.2857 5.63629C21.2615 5.63629 31.2022 5.63629 41.2014 5.63629C41.2014 11.2492 41.2014 16.827 41.2014 22.4048C42.4645 22.4048 43.669 22.4048 44.897 22.4048C44.8853 15.5758 44.8853 8.77016 44.8853 1.90605ZM39.2717 7.51895C30.5239 7.51895 21.8345 7.51895 13.1452 7.51895C13.1452 13.1435 13.1452 18.7214 13.1452 24.2875C14.7123 24.2875 16.2209 24.2875 17.753 24.2875C17.753 23.048 17.753 21.8435 17.753 20.6508C16.256 20.2181 15.9052 19.7387 15.9052 18.1367C15.9052 17.6923 15.8935 17.2363 15.9052 16.7919C15.9403 15.7746 16.7238 14.9794 17.7413 14.9677C22.7467 14.956 27.7639 14.956 32.7693 14.9677C33.7868 14.9677 34.5703 15.7746 34.6054 16.7919C34.6171 17.2363 34.6054 17.6923 34.6054 18.1367C34.6054 19.7387 34.2546 20.2181 32.781 20.6391C32.781 21.2355 32.781 21.8319 32.781 22.4165C34.9563 22.4165 37.0965 22.4165 39.26 22.4165C39.2717 17.4468 39.2717 12.5121 39.2717 7.51895ZM1.94137 50.5044C1.91798 50.9137 1.89459 51.2762 1.8712 51.6387C1.82442 52.1883 1.98815 52.4105 2.61967 52.4105C12.7358 52.3871 22.852 52.3988 32.9681 52.3988C33.1903 52.3988 33.4242 52.3988 33.6347 52.3988C33.6347 53.0653 33.6347 53.6617 33.6347 54.3048C23.3783 54.3048 13.1568 54.3048 2.85357 54.3048C3.90612 55.5327 5.1224 56.1407 6.64275 56.1407C18.2559 56.1407 29.8807 56.1407 41.4938 56.1407C41.6809 56.1407 41.868 56.1407 42.1019 56.1407C41.7277 55.5794 41.4119 55.0766 41.0494 54.6089C40.9207 54.4452 40.6751 54.2815 40.4763 54.2815C39.0963 54.2581 37.7046 54.2698 36.3246 54.2698C36.079 54.2698 35.8334 54.2698 35.5995 54.2698C35.5995 53.6032 35.5995 53.0302 35.5995 52.3871C37.1783 52.3871 38.7338 52.3871 40.2658 52.3871C40.2658 51.7439 40.2658 51.1593 40.2658 50.5278C29.9859 50.5278 19.706 50.5278 9.41445 50.5278C9.41445 49.873 9.41445 49.2883 9.41445 48.6569C9.68344 48.6569 9.91734 48.6569 10.1512 48.6569C20.1504 48.6569 30.1496 48.6569 40.1488 48.6569C40.3243 48.6569 40.4997 48.6685 40.6751 48.6452C40.7804 48.6335 40.909 48.575 40.9558 48.5048C41.33 47.9552 41.6926 47.394 42.1019 46.7859C41.9148 46.7859 41.7628 46.7859 41.6107 46.7859C29.9391 46.7859 18.2559 46.7859 6.58427 46.7859C5.25104 46.7859 4.12833 47.3004 3.20442 48.2476C3.11086 48.3411 3.04069 48.4698 2.90035 48.6802C4.50256 48.6802 5.98783 48.6802 7.48478 48.6802C7.48478 49.3117 7.48478 49.8847 7.48478 50.5161C5.62528 50.5044 3.81256 50.5044 1.94137 50.5044ZM30.8513 20.6157C27.0973 20.6157 23.3899 20.6157 19.6943 20.6157C19.6943 24.3694 19.6943 28.0762 19.6943 31.7714C23.4367 31.7714 27.1323 31.7714 30.8513 31.7714C30.8513 28.0528 30.8513 24.3577 30.8513 20.6157ZM32.7693 28.0645C33.05 28.0645 33.2605 28.0645 33.471 28.0645C39.2016 28.0645 44.9204 28.0645 50.6509 28.0762C50.9784 28.0762 51.3643 28.2282 51.6333 28.427C52.8145 29.2923 54.3816 29.1754 55.3874 28.0996C56.3932 27.0238 56.3932 25.375 55.3757 24.2875C54.3699 23.2117 52.7911 23.0948 51.6099 23.9718C51.3409 24.1706 50.955 24.3109 50.6275 24.3109C44.9087 24.3226 39.1782 24.3226 33.4593 24.3226C33.2371 24.3226 33.0032 24.3226 32.7693 24.3226C32.7693 25.5972 32.7693 26.8016 32.7693 28.0645ZM32.7225 18.6863C32.7225 18.0431 32.7225 17.4702 32.7225 16.8621C27.7405 16.8621 22.7818 16.8621 17.8231 16.8621C17.8231 17.4819 17.8231 18.0782 17.8231 18.6863C22.7935 18.6863 27.7405 18.6863 32.7225 18.6863ZM32.7225 33.7008C27.7171 33.7008 22.7701 33.7008 17.8114 33.7008C17.8114 34.3206 17.8114 34.9169 17.8114 35.5016C22.8052 35.5016 27.7639 35.5016 32.7225 35.5016C32.7225 34.8936 32.7225 34.3089 32.7225 33.7008Z" fill="#142DAD"/>
<path d="M35.5178 39.3252C35.5178 39.945 35.5178 40.5179 35.5178 41.126C29.3078 41.126 23.1211 41.126 16.8877 41.126C16.8877 40.5413 16.8877 39.9566 16.8877 39.3252C23.0743 39.3252 29.2727 39.3252 35.5178 39.3252Z" fill="#54D8AF"/>
<path d="M11.2037 39.3369C11.2037 39.945 11.2037 40.5297 11.2037 41.126C10.6073 41.126 10.0343 41.126 9.41455 41.126C9.41455 40.553 9.41455 39.9684 9.41455 39.3369C9.97584 39.3369 10.5605 39.3369 11.2037 39.3369Z" fill="#54D8AF"/>
<path d="M13.1333 39.3252C13.7297 39.3252 14.3027 39.3252 14.9224 39.3252C14.9224 39.9099 14.9224 40.4946 14.9224 41.126C14.3494 41.126 13.7531 41.126 13.1333 41.126C13.1333 40.5296 13.1333 39.9333 13.1333 39.3252Z" fill="#54D8AF"/>
<path d="M39.2598 39.3252C39.2598 39.9216 39.2598 40.4946 39.2598 41.1143C38.6751 41.1143 38.0904 41.1143 37.459 41.1143C37.459 40.5413 37.459 39.945 37.459 39.3252C38.0554 39.3252 38.64 39.3252 39.2598 39.3252Z" fill="#54D8AF"/>
<path d="M41.1899 41.1153C41.1899 40.4955 41.1899 39.9225 41.1899 39.3145C41.7863 39.3145 42.3593 39.3145 42.9791 39.3145C42.9791 39.8874 42.9791 40.4838 42.9791 41.1153C42.4178 41.1153 41.8214 41.1153 41.1899 41.1153Z" fill="#54D8AF"/>
</svg>
