<svg width="26" height="18" viewBox="0 0 26 18" fill="none" xmlns="http://www.w3.org/2000/svg">
<path d="M25.5719 13.5747C25.0162 13.1627 24.3885 12.8331 23.7608 12.5447C23.4623 12.4108 23.3389 12.2975 23.3389 11.968C23.3594 10.8659 23.3594 9.77418 23.3389 8.67215C23.3286 8.32197 23.4623 8.14688 23.7711 8.02329C24.1621 7.8585 24.5428 7.65251 24.9339 7.47742C25.3455 7.28173 25.6542 7.01395 25.6542 6.50928C25.6645 5.98401 25.3455 5.70593 24.9133 5.51024C21.147 3.73875 17.3909 1.96726 13.6246 0.195762C13.0689 -0.0720214 12.5544 -0.061722 11.9987 0.206062C8.29414 1.95696 4.56898 3.70785 0.854111 5.44845C0.401329 5.66473 0 5.91192 0 6.48868C0 7.06545 0.391039 7.32293 0.843821 7.53922C2.14042 8.15718 3.42674 8.79574 4.73363 9.39311C5.07322 9.5476 5.16583 9.75358 5.16583 10.0935C5.14525 11.3603 5.16583 12.6374 5.15554 13.9042C5.15554 14.6149 5.36135 15.2741 5.88617 15.7066C6.55505 16.2525 7.26509 16.7984 8.04717 17.1279C10.3522 18.0961 12.7808 18.1579 15.2196 17.7974C16.6397 17.5914 17.9878 17.1691 19.1609 16.2937C20.0459 15.6242 20.5501 14.7797 20.509 13.6159C20.4678 12.4211 20.4884 11.2161 20.509 10.0111C20.509 9.83598 20.6016 9.58879 20.7251 9.5064C21.1161 9.26951 21.538 9.09442 22.0217 8.86784C22.0217 10.3098 22.0114 11.6693 22.032 13.0185C22.0423 13.4923 22.0422 13.9866 22.176 14.4398C22.4333 15.3358 23.0404 15.9744 23.9563 16.1907C24.8104 16.3864 25.2426 15.6963 25.7057 15.1608C26.1276 14.6664 26.107 13.9557 25.5719 13.5747ZM18.6258 14.0587C18.6052 14.3368 18.2965 14.6561 18.0392 14.8518C17.2057 15.4903 16.2178 15.7787 15.1991 15.9538C13.0586 16.3143 10.9388 16.2731 8.86012 15.5212C8.63373 15.4388 8.41763 15.3358 8.20153 15.2329C7.34742 14.8415 6.84318 14.275 6.94609 13.2348C7.02841 12.3593 6.96667 11.4633 6.96667 10.4745C8.70576 11.3088 10.3317 12.0709 11.937 12.864C12.5647 13.173 13.1204 13.1627 13.7378 12.8537C15.1888 12.1224 16.6706 11.4427 18.1319 10.7423C18.2759 10.6702 18.4303 10.6084 18.6567 10.5157C18.6567 11.7414 18.6978 12.9052 18.6258 14.0587ZM22.3201 6.70497C19.2638 8.16748 16.2178 9.64029 13.1513 11.0925C12.9763 11.1749 12.7088 11.2058 12.5441 11.1234C9.41581 9.62999 6.2875 8.12628 3.15918 6.62257C3.11802 6.60198 3.07686 6.56078 2.97395 6.47838C5.07322 5.48964 7.13132 4.5215 9.18942 3.55336C10.2699 3.03839 11.3504 2.52342 12.4412 2.02905C12.6264 1.94666 12.894 1.88486 13.0586 1.96726C16.2487 3.45037 19.4388 4.95407 22.6803 6.48868C22.5362 6.58138 22.4333 6.65347 22.3201 6.70497Z" fill="#142DAD"/>
</svg>
