<svg width="17" height="16" viewBox="0 0 17 16" fill="none" xmlns="http://www.w3.org/2000/svg">
<path d="M4.80751 0.799681C4.80751 1.30261 4.80751 1.79053 4.80751 2.27845C4.80751 2.42482 4.70617 2.39104 4.6236 2.39104C3.92175 2.39104 3.22365 2.40981 2.5218 2.38729C1.91754 2.36477 1.56849 2.78888 1.59101 3.32934C1.60977 3.7422 1.59476 4.15505 1.59476 4.5679C1.59476 4.63546 1.59476 4.70302 1.59476 4.78184C1.66607 4.78559 1.72237 4.7931 1.77492 4.7931C5.92972 4.7931 10.0808 4.7931 14.2356 4.79685C14.3895 4.79685 14.4232 4.74431 14.4195 4.60168C14.412 4.1513 14.4195 3.70091 14.4157 3.25053C14.412 2.71757 14.0817 2.39104 13.545 2.38729C12.8244 2.38354 12.1075 2.38354 11.3869 2.39104C11.2368 2.39104 11.1955 2.346 11.1992 2.19963C11.2067 1.73798 11.203 1.27634 11.203 0.784668C11.2818 0.784668 11.3456 0.784668 11.4132 0.784668C12.145 0.784668 12.8769 0.784668 13.6088 0.784668C14.9149 0.788421 15.9921 1.8168 15.9996 3.12292C16.0146 5.45742 16.0071 7.78816 16.0071 10.1227C16.0071 11.2599 16.0108 12.4009 16.0071 13.5381C16.0033 14.7917 15.2227 15.73 13.9916 15.9627C13.8452 15.9889 13.6914 15.9889 13.545 15.9889C9.86684 15.9889 6.18869 15.9777 2.51055 16.0002C1.23821 16.0077 0.209827 15.1294 0.0334259 13.9697C0.00340022 13.767 0.00715343 13.5568 0.00715343 13.3542C0.00340022 9.98379 0.0146599 6.6134 -0.000352989 3.24302C-0.0041062 2.09079 0.791574 1.08492 1.88001 0.848473C2.01887 0.818447 2.16525 0.792174 2.30787 0.792174C3.0998 0.784668 3.89548 0.788421 4.69116 0.788421C4.72119 0.788421 4.75121 0.795928 4.80751 0.799681ZM1.60602 6.38821C1.60227 6.47829 1.59476 6.53834 1.59476 6.59839C1.59476 8.90662 1.59476 11.2148 1.59476 13.5231C1.59476 14.071 1.9363 14.4051 2.48803 14.4051C6.15867 14.4051 9.82931 14.4051 13.4999 14.4051C14.0854 14.4051 14.412 14.0748 14.412 13.4818C14.412 11.1923 14.412 8.90286 14.4157 6.6134C14.4157 6.437 14.3782 6.38071 14.1905 6.38071C10.3022 6.38446 6.41013 6.38446 2.5218 6.38446C2.22905 6.38821 1.9288 6.38821 1.60602 6.38821Z" fill="#142DAD"/>
<path d="M7.19457 3.18288C6.66162 3.18288 6.14367 3.18288 5.61447 3.18288C5.61447 2.12447 5.61447 1.06982 5.61447 0.00390625C6.13992 0.00390625 6.66162 0.00390625 7.19457 0.00390625C7.19457 1.06231 7.19457 2.11321 7.19457 3.18288Z" fill="#142DAD"/>
<path d="M8.81967 0C9.34887 0 9.86682 0 10.396 0C10.396 1.05465 10.396 2.1093 10.396 3.17522C9.87808 3.17522 9.35638 3.17522 8.81967 3.17522C8.81967 2.12807 8.81967 1.07717 8.81967 0Z" fill="#142DAD"/>
<path d="M7.47226 13.6018C6.55648 12.6823 5.62568 11.7515 4.7099 10.8357C5.0627 10.4829 5.43052 10.1151 5.80208 9.74725C6.32753 10.2765 6.88301 10.8394 7.43098 11.3949C8.78213 10.0438 10.0995 8.72637 11.4056 7.4165C11.7997 7.81434 12.1675 8.18591 12.5241 8.54622C10.8464 10.2277 9.15745 11.9166 7.47226 13.6018Z" fill="#142DAD"/>
</svg>
