<svg width="61" height="60" viewBox="0 0 61 60" fill="none" xmlns="http://www.w3.org/2000/svg">
<path d="M48.1434 0C52.1092 4.32636 56.051 8.61668 60.0048 12.943C58.2983 14.4933 56.6278 16.0196 54.9574 17.5338C53.9719 18.4351 52.9504 19.3244 52.001 20.2738C50.0301 22.2447 49.0567 24.6603 49.0327 27.4484C49.0086 30.8253 47.3742 33.2649 44.2496 34.5749C44.0574 34.659 43.8651 34.8633 43.793 35.0556C42.5551 38.096 40.0435 39.8026 36.7626 39.8026C36.1978 39.8026 35.645 39.8146 35.0802 39.8026C33.7101 39.7665 32.5444 40.2472 31.5349 41.1606C29.5761 42.9272 27.6052 44.6938 25.6463 46.4724C24.5887 47.4338 24.072 48.6476 24.0239 50.0897C23.9758 51.6039 24.072 53.1662 23.7475 54.6204C23.0264 57.9252 19.8417 60.1485 16.3806 59.9923C13.0998 59.836 10.2156 57.2282 9.72284 53.9474C9.66276 53.5508 9.6267 53.1542 9.61469 52.7576C9.57863 51.3636 8.61722 50.4022 7.21115 50.3781C3.11312 50.318 -0.0475296 47.0612 0.000541079 42.9752C0.0486118 39.2377 3.26935 36.017 7.00685 35.9689C7.72791 35.9569 8.44897 35.9569 9.17003 35.9689C10.516 35.993 11.6697 35.5243 12.6672 34.635C14.6501 32.8563 16.633 31.0777 18.6039 29.2871C19.6615 28.3257 20.1662 27.0999 20.2023 25.6698C20.2383 24.1916 20.1662 22.6894 20.4546 21.2593C20.9353 18.8678 22.5097 17.2454 24.7449 16.308C25.1295 16.1518 25.3458 15.9715 25.5021 15.5749C26.5596 12.8349 29.2155 11.0082 32.1478 10.9842C35.0321 10.9601 37.4476 9.8545 39.5387 7.89562C42.1946 5.40796 44.8986 2.95635 47.5906 0.492725C47.7588 0.324477 47.9271 0.192283 48.1434 0ZM22.2092 51.3996C22.1732 51.3996 22.1491 51.3876 22.1131 51.3876C22.1131 51.2073 22.1251 51.0271 22.1131 50.8468C21.9448 48.251 22.9423 46.196 24.9132 44.5255C26.788 42.9272 28.5786 41.2447 30.4173 39.5983C31.3907 38.721 32.5204 38.1201 33.8303 37.9879C34.96 37.8797 36.1017 37.9038 37.2433 37.8677C40.3799 37.7836 42.8075 34.7551 42.2187 31.6786C41.7139 29.0708 39.6349 27.3282 36.9789 27.2922C34.8518 27.2681 33.1814 25.9101 32.7728 23.819C32.6526 23.2182 32.6766 22.5812 32.5685 21.9803C32.1238 19.5167 29.9366 17.69 27.4369 17.678C24.8771 17.666 22.6418 19.4566 22.2332 21.9443C22.065 23.0259 22.089 24.1315 22.1131 25.2371C22.1732 27.5565 21.3199 29.4313 19.5894 30.9575C17.6305 32.7001 15.7317 34.5148 13.7127 36.1852C12.9556 36.8222 11.9942 37.375 11.0448 37.5793C9.78293 37.8677 8.42493 37.8317 7.11501 37.8557C4.26682 37.9278 1.92337 40.2712 1.92337 43.1435C1.92337 46.0277 4.24278 48.4072 7.10299 48.4553C9.74688 48.4913 11.5015 50.2219 11.5375 52.8538C11.5856 55.4856 13.5685 57.6849 16.2124 58.0454C18.676 58.3819 21.1877 56.7595 21.8607 54.2959C22.1131 53.3705 22.1011 52.361 22.2092 51.3996ZM27.521 15.7432C27.7133 15.7672 27.8095 15.7672 27.9176 15.7792C31.8234 16.1878 34.5153 19.0961 34.6115 23.0259C34.6475 24.3839 35.6209 25.3573 36.9789 25.3813C38.8537 25.4054 40.5001 26.0303 41.8822 27.3042C43.3723 28.6622 44.1054 30.3807 44.2496 32.4237C44.3818 32.3636 44.478 32.3276 44.5501 32.2795C44.7183 32.1713 44.8866 32.0632 45.0428 31.943C46.4128 30.8253 47.1219 29.4073 47.1219 27.6166C47.1098 23.9753 48.4438 20.9228 51.1117 18.4471C52.2294 17.4136 53.359 16.4041 54.4887 15.3826C55.4141 14.5414 56.3394 13.6881 57.2888 12.8229C54.1762 9.43388 51.1117 6.08095 48.0352 2.72801C47.903 2.82415 47.8069 2.89626 47.7228 2.98038C45.4033 5.10751 43.0719 7.19859 40.7765 9.34976C38.3009 11.6692 35.4046 12.8469 32.0036 12.907C30.0207 12.931 28.5786 13.9766 27.521 15.7432Z" fill="#142DAD"/>
<path d="M16.6569 36.1851C17.0775 36.6537 17.4861 37.1104 17.9308 37.6152C17.1857 38.2761 16.4526 38.9251 15.6835 39.6101C15.2989 39.1054 14.9384 38.6367 14.5298 38.0959C15.2268 37.4709 15.9359 36.846 16.6569 36.1851Z" fill="#54D8AF"/>
<path d="M30.5132 37.1104C30.1887 36.5576 29.8883 36.0409 29.5518 35.464C30.1767 35.1636 30.7776 34.8872 31.4506 34.5747C31.6669 35.1996 31.8712 35.7765 32.0875 36.3774C31.5707 36.6297 31.078 36.8581 30.5132 37.1104Z" fill="#54D8AF"/>
<path d="M27.8814 36.7139C28.314 37.2306 28.6986 37.6753 29.1192 38.168C28.6505 38.5886 28.1938 38.9972 27.7011 39.4419C27.2805 38.9732 26.8719 38.5165 26.4272 38.0238C26.908 37.5791 27.3766 37.1585 27.8814 36.7139Z" fill="#142DAD"/>
<path d="M33.7822 35.9211C33.698 35.3562 33.6259 34.7914 33.5298 34.1064C34.2028 34.0703 34.8397 34.0463 35.5247 34.0103C35.5247 34.6592 35.5247 35.2601 35.5247 35.9331C34.9719 35.9211 34.4071 35.9211 33.7822 35.9211Z" fill="#142DAD"/>
<path d="M48.0232 16.0557C48.4678 16.5244 48.8764 16.957 49.3331 17.4377C46.7132 20.1297 45.3072 23.3985 45.175 27.2561C44.5501 27.2561 43.9492 27.2561 43.2642 27.2561C43.3964 22.9057 44.9587 19.1923 48.0232 16.0557Z" fill="#54D8AF"/>
<path d="M50.4026 16.4764C49.97 16.0077 49.5734 15.563 49.1167 15.0583C49.8017 14.4334 50.4867 13.8084 51.2198 13.1475C51.6524 13.6282 52.073 14.0608 52.5177 14.5535C51.8087 15.1905 51.1357 15.8034 50.4026 16.4764Z" fill="#54D8AF"/>
</svg>
