<svg width="18" height="18" viewBox="0 0 18 18" fill="none" xmlns="http://www.w3.org/2000/svg">
<path d="M17.9956 17.25C17.9956 17.1451 17.9956 17.072 17.9956 16.999C17.9956 12.6368 17.9956 8.26991 17.9956 3.90307C17.9956 2.24668 16.5807 0.754563 15.0057 0.75C10.9903 0.75 6.97493 0.75 2.95955 0.75C1.41916 0.75 -6.67572e-05 2.25581 -6.67572e-05 3.88938C-6.67572e-05 6.63634 -6.67572e-05 9.37873 -6.67572e-05 12.1257C-6.67572e-05 13.5265 0.91724 14.8316 2.20234 15.2194C2.47061 15.3016 2.75186 15.3472 3.02878 15.3472C6.74993 15.3563 10.4711 15.3518 14.1922 15.3563C14.3091 15.3563 14.4345 15.3883 14.5384 15.443C15.6201 16.0088 16.7019 16.5792 17.7836 17.1496C17.8442 17.1816 17.9047 17.2089 17.9956 17.25ZM16.611 14.9C16.0139 14.5852 15.4514 14.284 14.8802 13.992C14.7634 13.9327 14.6206 13.8962 14.4908 13.8962C10.6485 13.8916 6.80186 13.8916 2.95955 13.8916C1.99032 13.8916 1.37589 13.2436 1.37589 12.2261C1.37589 9.4563 1.37589 6.69109 1.37589 3.92132C1.37589 2.83532 1.97301 2.21018 3.00282 2.21018C6.99224 2.21018 10.9773 2.21018 14.9668 2.21018C16.0269 2.21018 16.611 2.83075 16.611 3.95326C16.611 6.14353 16.611 8.33379 16.611 10.5241C16.611 11.966 16.611 13.4125 16.611 14.9Z" fill="white"/>
</svg>
