<svg width="16" height="16" viewBox="0 0 16 16" fill="none" xmlns="http://www.w3.org/2000/svg">
<path d="M8.0038 4.70272e-05C12.394 -0.0149623 15.985 3.56476 16 7.98126C16.015 12.4015 12.4391 15.9887 8.00755 16C3.60231 16.0075 0.0188353 12.4428 7.36428e-05 8.03004C-0.018688 3.59853 3.54978 0.0188087 8.0038 4.70272e-05ZM1.59106 8.00377C1.57981 11.5122 4.45409 14.3827 8.00004 14.4052C11.4897 14.4278 14.394 11.531 14.4053 8.01878C14.4203 4.50284 11.5422 1.60229 8.02256 1.58728C4.48786 1.57978 1.60232 4.45406 1.59106 8.00377Z" fill="#142DAD"/>
<path d="M7.21612 4.00342C7.7452 4.00342 8.25927 4.00342 8.79585 4.00342C8.79585 4.18353 8.79585 4.34863 8.79585 4.51749C8.79585 5.77827 8.7921 7.04281 8.79961 8.30359C8.79961 8.3974 8.84839 8.50997 8.91218 8.57751C9.58759 9.26419 10.2705 9.93961 10.9347 10.6075C10.5594 10.9828 10.1917 11.3505 9.80898 11.7295C9.79773 11.7182 9.75645 11.6844 9.71517 11.6469C8.91593 10.8477 8.11293 10.0484 7.31743 9.24543C7.2574 9.18164 7.20486 9.07657 7.20486 8.99027C7.20486 7.39177 7.20486 5.79328 7.20486 4.19479C7.20486 4.13475 7.21237 4.07096 7.21612 4.00342Z" fill="#142DAD"/>
</svg>
