<svg width="58" height="58" viewBox="0 0 58 58" fill="none" xmlns="http://www.w3.org/2000/svg">
<path d="M46.4471 51.694C46.3867 52.5272 46.4109 53.312 46.2659 54.0727C45.8552 56.3427 43.8741 57.9607 41.5668 57.9728C29.3299 57.9728 17.0809 57.9728 4.84403 57.9728C2.15022 57.9728 0 55.8235 0 53.143C0 39.3177 0 25.4923 0 11.667C0 8.90194 2.12606 6.7889 4.90443 6.77683C7.88816 6.76475 10.8598 6.77683 13.8435 6.77683C14.0368 6.77683 14.2422 6.77683 14.4958 6.77683C14.4958 6.47496 14.4958 6.2214 14.4958 5.96783C14.5079 5.21921 14.8582 4.85698 15.6072 4.85698C16.8756 4.8449 18.144 4.85698 19.4244 4.85698C19.1224 3.05787 19.6298 1.60893 21.1519 0.642968C22.4927 -0.214323 23.9061 -0.214323 25.2469 0.642968C26.7569 1.60893 27.2764 3.05787 26.9623 4.85698C28.1219 4.85698 29.2695 4.85698 30.4171 4.85698C31.6493 4.85698 31.8788 5.08639 31.8909 6.33007C31.8909 6.45081 31.8909 6.57156 31.8909 6.7889C32.1204 6.7889 32.3378 6.7889 32.5432 6.7889C35.5027 6.7889 38.4623 6.7889 41.4219 6.7889C44.2727 6.7889 46.3867 8.90194 46.3867 11.7395C46.3867 21.3025 46.3867 30.8534 46.3746 40.4164C46.3746 40.9356 46.5075 41.31 46.882 41.6722C50.3851 45.1497 53.8641 48.6392 57.3552 52.1167C58.2129 52.9739 58.2129 53.312 57.3673 54.1693C56.3164 55.2198 55.2654 56.2703 54.2024 57.3329C53.3206 58.2143 52.9823 58.2264 52.1126 57.3449C50.3731 55.6062 48.6456 53.8675 46.9061 52.1408C46.7733 51.9838 46.6283 51.8631 46.4471 51.694ZM5.83458 52.1287C17.4433 52.1287 29.0038 52.1287 40.6004 52.1287C40.6004 50.0761 40.6125 48.0717 40.5884 46.0553C40.5884 45.8741 40.4313 45.6568 40.2985 45.5119C39.4529 44.6184 39.4287 44.4373 40.0931 43.5196C38.7281 42.1552 37.3751 40.7908 35.998 39.4263C29.7044 43.5438 22.0458 41.31 18.4822 35.8281C14.8703 30.2859 16.1508 22.9084 21.5143 18.9359C24.7275 16.5572 28.3273 15.8448 32.1929 16.8591C36.0705 17.8733 38.7885 20.3365 40.5642 24.0192C40.5642 20.1312 40.5642 16.3761 40.5642 12.5967C37.6771 12.5967 34.8263 12.5967 31.9271 12.5967C31.7942 13.4178 31.2023 13.5506 30.4654 13.5506C25.6335 13.5386 20.8015 13.5386 15.9696 13.5506C15.2086 13.5506 14.6046 13.442 14.4717 12.6088C11.5484 12.6088 8.69751 12.6088 5.8225 12.6088C5.83458 25.7942 5.83458 38.9434 5.83458 52.1287ZM14.4838 8.70875C14.2663 8.70875 14.0851 8.70875 13.9039 8.70875C10.9444 8.70875 7.98479 8.70875 5.02523 8.70875C3.15285 8.70875 1.94486 9.92828 1.94486 11.8119C1.94486 25.5406 1.94486 39.2573 1.94486 52.986C1.94486 54.8093 3.17701 56.0409 5.01315 56.0409C7.67072 56.0409 10.3283 56.0409 12.9859 56.0409C22.4686 56.0409 31.9513 56.0409 41.434 56.0409C43.2339 56.0409 44.4539 54.8093 44.466 53.0102C44.466 52.0442 44.4781 51.0783 44.466 50.1123C44.466 49.9191 44.4418 49.6897 44.3331 49.5569C43.8016 48.9652 43.2459 48.3977 42.6903 47.8181C42.6419 47.8423 42.5815 47.8785 42.5332 47.9026C42.5332 48.0958 42.5332 48.289 42.5332 48.4822C42.5332 49.9553 42.5332 51.4163 42.5332 52.8894C42.5332 53.7829 42.195 54.109 41.289 54.109C41.1924 54.109 41.0836 54.109 40.987 54.109C29.0642 54.109 17.1534 54.109 5.23058 54.109C4.16756 54.109 3.87764 53.8192 3.87764 52.7445C3.87764 39.1365 3.87764 25.5406 3.87764 11.9326C3.87764 10.9425 4.19172 10.6286 5.17019 10.6286C8.04519 10.6286 10.9323 10.6286 13.8073 10.6286C14.0247 10.6286 14.2422 10.6286 14.4838 10.6286C14.4838 9.97657 14.4838 9.38492 14.4838 8.70875ZM39.6341 29.0302C39.6461 23.1861 34.9108 18.3804 29.1125 18.3563C23.1813 18.3321 18.3976 23.0533 18.3735 28.9336C18.3493 34.7656 23.1088 39.5954 28.8951 39.6075C34.8263 39.6316 39.622 34.9105 39.6341 29.0302ZM29.946 6.82512C29.8614 6.80097 29.8252 6.77683 29.789 6.77683C28.436 6.77683 27.0952 6.76475 25.7422 6.77683C25.2469 6.77683 24.7637 6.76475 24.498 6.24555C24.2564 5.75049 24.4859 5.37618 24.7637 4.97772C25.5006 3.93931 25.0657 2.53867 23.9061 2.07984C23.1088 1.7659 22.2149 2.01946 21.6834 2.68356C21.1277 3.38389 21.1156 4.28947 21.7075 5.07432C21.9854 5.44863 22.1182 5.81086 21.9008 6.24555C21.6834 6.68023 21.2968 6.7889 20.8378 6.77683C20.0526 6.76475 19.2674 6.77683 18.4822 6.77683C17.8057 6.77683 17.1293 6.77683 16.4649 6.77683C16.4649 8.43104 16.4649 9.98865 16.4649 11.5825C20.9707 11.5825 25.4402 11.5825 29.946 11.5825C29.946 9.97657 29.946 8.41896 29.946 6.82512ZM44.466 39.4988C44.466 39.366 44.466 39.1848 44.466 39.0158C44.466 29.9478 44.466 20.8678 44.466 11.7998C44.466 9.92828 43.2459 8.72082 41.3615 8.72082C38.4261 8.72082 35.4907 8.72082 32.5432 8.72082C32.3499 8.72082 32.1566 8.72082 31.9271 8.72082C31.9271 9.38492 31.9271 10.0007 31.9271 10.6527C32.1808 10.6527 32.3982 10.6527 32.6157 10.6527C35.4907 10.6527 38.3657 10.6527 41.2528 10.6527C42.2071 10.6527 42.5211 10.9788 42.5211 11.9085C42.5211 20.7229 42.5332 29.5252 42.497 38.3396C42.497 39.2211 42.8956 39.6799 43.4634 40.1146C43.8258 39.8972 44.1278 39.704 44.466 39.4988ZM47.3893 44.9685C46.5921 45.7655 45.7827 46.5745 45.0579 47.2989C47.7759 50.0157 50.518 52.7566 53.1877 55.4251C53.9366 54.6765 54.7339 53.8795 55.5191 53.0947C52.8374 50.4142 50.1073 47.6853 47.3893 44.9685ZM42.0984 44.4614C42.5453 44.9202 43.0285 45.4153 43.4513 45.8621C44.2727 45.0531 45.07 44.2441 45.8552 43.4713C45.4082 43.0125 44.925 42.5174 44.4902 42.0707C43.6929 42.8797 42.8835 43.6766 42.0984 44.4614ZM37.665 38.0498C39.0059 39.3901 40.3105 40.6942 41.6393 42.0344C41.7722 41.9137 41.9413 41.7567 42.0742 41.6239C40.7092 40.2595 39.4045 38.9554 38.1362 37.6755C37.9791 37.7963 37.7979 37.9412 37.665 38.0498ZM40.5763 37.2288C40.5763 36.1179 40.5763 35.1037 40.5763 33.9928C40.1535 34.7414 39.7911 35.3934 39.4045 36.0817C39.7669 36.4319 40.1293 36.7941 40.5763 37.2288Z" fill="#142DAD"/>
<path d="M7.74316 22.2083C7.74316 21.3028 7.74316 20.3972 7.74316 19.4916C7.75524 18.7067 8.10556 18.3686 8.89075 18.3686C10.7027 18.3686 12.5026 18.3566 14.3146 18.3686C15.0998 18.3686 15.4622 18.7309 15.4622 19.5037C15.4622 21.3148 15.4622 23.1139 15.4622 24.9251C15.4622 25.7341 15.1119 26.0843 14.2784 26.0843C12.4906 26.0843 10.7027 26.0843 8.91491 26.0843C8.09348 26.0843 7.74316 25.7341 7.74316 24.913C7.74316 24.0195 7.74316 23.1139 7.74316 22.2083ZM13.5173 20.3368C12.2248 20.3368 10.9685 20.3368 9.72426 20.3368C9.72426 21.6288 9.72426 22.8845 9.72426 24.1403C11.0047 24.1403 12.249 24.1403 13.5173 24.1403C13.5173 22.8604 13.5173 21.6288 13.5173 20.3368Z" fill="#142DAD"/>
<path d="M7.74316 33.7997C7.74316 32.9182 7.74316 32.0368 7.74316 31.1433C7.74316 30.3101 8.0814 29.96 8.89075 29.96C10.7027 29.96 12.5026 29.96 14.3146 29.96C15.0998 29.96 15.4622 30.3222 15.4622 31.095C15.4743 32.9061 15.4622 34.7052 15.4622 36.5164C15.4622 37.3133 15.1119 37.6756 14.3388 37.6756C12.5147 37.6877 10.6786 37.6877 8.85451 37.6756C8.10556 37.6756 7.74316 37.3133 7.74316 36.5647C7.74316 35.6471 7.74316 34.7294 7.74316 33.7997ZM9.71218 31.916C9.71218 33.2201 9.71218 34.4638 9.71218 35.7074C11.0047 35.7074 12.261 35.7074 13.5053 35.7074C13.5053 34.4155 13.5053 33.1839 13.5053 31.916C12.2369 31.916 11.0047 31.916 9.71218 31.916Z" fill="#54D8AF"/>
<path d="M11.5966 49.2796C10.6907 49.2796 9.78466 49.2796 8.87867 49.2796C8.09348 49.2675 7.74316 48.9173 7.74316 48.1325C7.74316 46.3213 7.74316 44.5101 7.74316 42.711C7.74316 41.9262 8.09348 41.564 8.87867 41.564C10.7027 41.564 12.5389 41.5519 14.3629 41.564C15.0998 41.564 15.4622 41.9262 15.4622 42.6748C15.4743 44.4981 15.4743 46.3334 15.4622 48.1567C15.4622 48.9053 15.0998 49.2675 14.3629 49.2796C13.4449 49.2796 12.5147 49.2796 11.5966 49.2796ZM9.7001 47.3114C10.9806 47.3114 12.2369 47.3114 13.5053 47.3114C13.5053 46.0195 13.5053 44.7758 13.5053 43.52C12.2127 43.52 10.9564 43.52 9.7001 43.52C9.7001 44.812 9.7001 46.0436 9.7001 47.3114Z" fill="#142DAD"/>
<path d="M17.4434 48.2647C17.4434 47.6248 17.4434 47.0211 17.4434 46.4053C24.1839 46.4053 30.9003 46.4053 37.653 46.4053C37.653 47.009 37.653 47.6127 37.653 48.2647C30.9366 48.2647 24.2081 48.2647 17.4434 48.2647Z" fill="#54D8AF"/>
<path d="M17.4314 44.4015C17.4314 43.7736 17.4314 43.1699 17.4314 42.542C20.3185 42.542 23.1814 42.542 26.0685 42.542C26.0685 43.1578 26.0685 43.7615 26.0685 44.4015C23.2056 44.4015 20.3547 44.4015 17.4314 44.4015Z" fill="#142DAD"/>
<path d="M29.0039 37.6751C24.2324 37.6751 20.3064 33.775 20.3064 29.0176C20.3064 24.1758 24.2082 20.2878 29.0643 20.2998C33.8117 20.3119 37.7135 24.2361 37.7014 29.0176C37.6893 33.775 33.7755 37.6751 29.0039 37.6751ZM29.0039 22.2318C25.2591 22.2318 22.2271 25.2866 22.2392 29.0418C22.2513 32.7487 25.3075 35.7673 29.0281 35.7673C32.7366 35.7552 35.7686 32.7124 35.7686 28.9935C35.7686 25.2625 32.7245 22.2197 29.0039 22.2318Z" fill="#142DAD"/>
<path d="M26.8897 29.2713C27.2279 29.6939 27.5661 30.1044 27.9285 30.5512C29.3781 29.1022 30.7311 27.7378 32.1082 26.3613C32.6155 26.8805 33.0383 27.3152 33.5094 27.7861C32.4585 28.8245 31.4075 29.875 30.3566 30.9255C29.8251 31.4568 29.3177 31.9881 28.7741 32.4952C28.3272 32.9299 27.844 32.9902 27.4333 32.6039C26.7568 31.976 26.1407 31.2877 25.4763 30.5995C25.9112 30.201 26.3461 29.7905 26.8897 29.2713Z" fill="#54D8AF"/>
</svg>
