<svg width="14" height="9" viewBox="0 0 14 9" fill="none" xmlns="http://www.w3.org/2000/svg">
<path d="M6.7501 8.99428C5.33408 8.99428 3.91807 8.98045 2.50483 8.99982C1.36091 9.01365 0.289185 8.24453 0.042077 7.02445C0.0115355 6.87782 0.00320602 6.72289 0.00320602 6.57072C0.000429526 5.18741 -0.00234697 3.8041 0.00320602 2.42356C0.00320602 1.23115 0.880579 0.215796 2.05781 0.0304328C2.19386 0.00829986 2.33269 0 2.47151 0C5.32298 0 8.17166 0 11.0203 0C12.3003 0 13.3332 0.915752 13.4859 2.18286C13.497 2.27416 13.4942 2.36823 13.4942 2.45953C13.4942 3.80687 13.4803 5.15145 13.4998 6.49603C13.5164 7.69397 12.6613 8.80062 11.3535 8.97768C11.2452 8.99152 11.1314 8.99152 11.0203 8.99152C9.59878 8.99428 8.17444 8.99152 6.7501 8.99428ZM5.24523 4.49853C5.24523 5.06845 5.24801 5.64114 5.24246 6.21106C5.24246 6.37429 5.29521 6.49879 5.43681 6.58179C5.58674 6.66756 5.72557 6.63989 5.86717 6.55136C6.76953 5.98697 7.67467 5.42534 8.57981 4.86095C8.87412 4.67836 8.87689 4.33529 8.58536 4.1527C7.683 3.58831 6.77786 3.02668 5.87272 2.46229C5.7339 2.37653 5.5923 2.34056 5.44237 2.42633C5.29521 2.50933 5.24246 2.63936 5.24523 2.80812C5.24801 3.37251 5.24523 3.9369 5.24523 4.49853Z" fill="#142DAD"/>
</svg>
