<svg width="8" height="14" viewBox="0 0 8 14" fill="none" xmlns="http://www.w3.org/2000/svg">
<path d="M4.58389 14C3.79195 14 3.05369 14 2.28188 14C2.28188 11.6707 2.28188 9.36188 2.28188 7.01199C1.50336 7.01199 0.758389 7.01199 0 7.01199C0 6.23098 0 5.48422 0 4.6895C0.744966 4.6895 1.48322 4.6895 2.27517 4.6895C2.27517 4.31955 2.26174 3.99755 2.27517 3.66871C2.2953 3.18229 2.28188 2.68216 2.38255 2.20944C2.66443 0.942011 3.73154 0.0513824 5 0.0171275C5.92617 -0.0102765 6.85235 0.0034255 7.78523 0.0034255C7.85235 0.0034255 7.91275 0.0171275 7.99329 0.0308295C7.99329 0.79814 7.99329 1.5449 7.99329 2.33961C7.57718 2.33961 7.18121 2.33961 6.78523 2.33961C6.24832 2.33961 5.71141 2.33276 5.1745 2.33961C4.8255 2.34646 4.59732 2.52459 4.58389 2.86029C4.56376 3.45632 4.57718 4.04551 4.57718 4.66895C5.71141 4.66895 6.8255 4.66895 8 4.66895C7.80537 5.47737 7.61745 6.23783 7.42953 7.01199C6.47651 7.01199 5.55034 7.01199 4.58389 7.01199C4.58389 9.34133 4.58389 11.6501 4.58389 14Z" fill="#142DAD"/>
</svg>
