<svg width="16" height="16" viewBox="0 0 16 16" fill="none" xmlns="http://www.w3.org/2000/svg">
<path d="M11.7942 9.16248C12.3645 9.41753 12.931 9.65007 13.475 9.92762C14.2254 10.3064 14.9195 10.7753 15.4447 11.4504C15.8124 11.923 16.0113 12.4518 16 13.0632C15.9888 13.7571 15.9963 14.451 15.9963 15.1448C15.9963 15.6812 15.6811 16 15.1484 16C10.391 16 5.62991 16 0.872569 16C0.437355 16 0.144711 15.8087 0.0359071 15.4486C0.0133961 15.3736 0.00214051 15.2911 0.00214051 15.2086C-0.00161134 14.4585 0.00214051 13.7083 0.00214051 12.9582C-0.00161134 12.2606 0.30604 11.6942 0.767518 11.1991C1.37156 10.5465 2.12193 10.1002 2.91733 9.72883C3.33753 9.53005 3.77275 9.36127 4.16669 9.19248C3.92657 8.70489 3.6677 8.22105 3.45384 7.71846C3.2625 7.27588 3.18746 6.79579 3.19871 6.31195C3.20997 5.64432 3.1687 4.9692 3.23999 4.30908C3.42383 2.56875 4.32802 1.28601 5.88504 0.502118C8.70268 -0.915645 12.1506 0.809676 12.7134 3.9115C12.7847 4.29407 12.7922 4.6954 12.7959 5.08547C12.8034 5.64808 12.8109 6.21068 12.7697 6.76953C12.7096 7.56093 12.3682 8.25481 11.9518 8.91493C11.903 9.0012 11.8467 9.08371 11.7942 9.16248ZM7.98232 14.4097C8.48132 14.4097 8.98406 14.4097 9.48306 14.4097C11.0588 14.4097 12.6346 14.406 14.2104 14.4135C14.383 14.4135 14.4205 14.3609 14.4167 14.1997C14.4055 13.8509 14.4017 13.4983 14.4167 13.1495C14.4317 12.7969 14.3154 12.5006 14.0603 12.2793C13.7602 12.0205 13.445 11.7655 13.1073 11.5629C12.2257 11.0303 11.2727 10.6665 10.2822 10.3965C9.58436 10.2052 9.39301 9.51504 9.88451 8.98995C10.2822 8.56987 10.6124 8.10103 10.875 7.58719C11.0964 7.1521 11.2239 6.69827 11.2089 6.20318C11.1939 5.75309 11.2127 5.30301 11.2014 4.85293C11.1977 4.61663 11.1902 4.37659 11.1376 4.1478C10.7512 2.40372 9.14539 1.34227 7.38203 1.66108C5.97508 1.91238 4.85328 3.20262 4.81576 4.62789C4.797 5.23925 4.80826 5.85436 4.81201 6.46573C4.81201 6.55949 4.81951 6.65326 4.84202 6.74328C5.03337 7.62844 5.53612 8.33733 6.13266 8.9862C6.61665 9.51504 6.42906 10.2089 5.73496 10.3927C4.91331 10.614 4.12167 10.9141 3.36755 11.3041C2.85354 11.5667 2.3583 11.8555 1.9531 12.2756C1.71674 12.5194 1.58167 12.7969 1.60043 13.1495C1.61544 13.487 1.60418 13.8246 1.60418 14.1622C1.60418 14.4097 1.60418 14.406 1.8443 14.406C3.88155 14.4097 5.93006 14.4097 7.98232 14.4097Z" fill="#142DAD"/>
</svg>
