<svg width="60" height="56" viewBox="0 0 60 56" fill="none" xmlns="http://www.w3.org/2000/svg">
<path d="M8.01418 29.6517C8.01418 27.0798 8.01418 24.6719 8.01418 22.1757C7.75163 22.1757 7.53908 22.1757 7.31404 22.1757C5.90124 22.1757 4.47594 22.1883 3.06314 22.1757C1.4253 22.1757 0 20.7259 0 19.0744C0 13.7542 0 8.44669 0 3.12654C0 1.4372 1.4253 0 3.11315 0C13.0527 0 22.9798 0 32.9194 0C34.5948 0 36.0076 1.4498 36.0076 3.15175C36.0076 8.44669 36.0076 13.7416 36.0076 19.024C36.0076 20.7637 34.5948 22.1883 32.8694 22.1883C27.2432 22.1883 21.617 22.1883 16.0034 22.1757C15.6033 22.1757 15.3157 22.2892 15.0282 22.5791C12.7277 24.9114 10.4272 27.2185 8.01418 29.6517ZM10.0021 24.798C11.4649 23.3229 12.8277 21.974 14.153 20.5998C14.453 20.2847 14.7656 20.1712 15.1907 20.1712C21.0669 20.1838 26.9432 20.1838 32.8194 20.1838C33.7571 20.1838 34.0071 19.9317 34.0071 18.9987C34.0071 13.7416 34.0071 8.49712 34.0071 3.24C34.0071 2.28187 33.7571 2.01712 32.8444 2.01712C22.9548 2.01712 13.0527 2.01712 3.16316 2.01712C2.26298 2.01712 2.00042 2.26926 2.00042 3.16436C2.00042 8.43408 2.00042 13.7038 2.00042 18.9861C2.00042 19.9191 2.26298 20.1712 3.18817 20.1712C5.2261 20.1712 7.27653 20.1712 9.31446 20.1712C9.53951 20.1712 9.75205 20.1712 10.0021 20.1712C10.0021 20.978 10.0021 21.6966 10.0021 22.4026C10.0021 23.1338 10.0021 23.8777 10.0021 24.798Z" fill="#142DAD"/>
<path d="M24.0049 24.2307C24.6925 24.2307 25.3052 24.2307 26.0053 24.2307C26.0053 24.8106 26.0053 25.3653 26.0053 25.9326C26.0053 27.0042 26.2178 27.2311 27.2681 27.2311C33.0568 27.2311 38.858 27.2437 44.6467 27.2185C45.2093 27.2185 45.6094 27.3824 45.997 27.7858C47.2723 29.1222 48.5725 30.4081 49.9728 31.8201C49.9728 30.2316 49.9728 28.7692 49.9728 27.2311C50.5605 27.2311 51.0731 27.2311 51.5982 27.2311C53.3235 27.2311 55.0614 27.2311 56.7868 27.2311C57.7745 27.2311 58.012 26.9916 58.012 26.0209C58.012 20.7637 58.012 15.5192 58.012 10.2621C58.012 9.3292 57.7495 9.07706 56.8118 9.07706C50.8105 9.07706 44.8093 9.07706 38.808 9.07706C38.5579 9.07706 38.3204 9.07706 38.0328 9.07706C38.0328 8.39628 38.0328 7.77854 38.0328 7.05994C38.2454 7.05994 38.4704 7.05994 38.683 7.05994C44.7217 7.05994 50.773 7.05994 56.8118 7.05994C58.5871 7.05994 59.9999 8.47192 59.9999 10.2369C59.9999 15.5066 59.9999 20.789 59.9999 26.0587C59.9999 27.8363 58.5872 29.2356 56.8243 29.2356C55.2489 29.2356 53.6611 29.2356 52.0233 29.2356C52.0233 31.7066 52.0233 34.1272 52.0233 36.6738C51.7732 36.4468 51.6232 36.3208 51.4857 36.1821C49.3227 34.0011 47.1472 31.8201 44.9968 29.6265C44.7092 29.3365 44.4217 29.223 44.0091 29.223C38.4704 29.2356 32.9193 29.2356 27.3806 29.2356C25.3427 29.2356 24.0049 27.8993 24.0049 25.8696C24.0049 25.3527 24.0049 24.8232 24.0049 24.2307Z" fill="#142DAD"/>
<path d="M32.6562 44.8809C34.0314 44.8809 35.3817 44.8935 36.732 44.8809C37.2821 44.8683 37.7322 45.007 37.9323 45.5617C38.1448 46.129 37.8447 46.5198 37.4447 46.8728C36.4319 47.7553 35.4192 48.6126 34.4315 49.5203C34.294 49.6589 34.2315 49.9993 34.2815 50.2137C34.6316 51.487 35.0066 52.7477 35.3942 54.0084C35.5568 54.5 35.5068 54.9287 35.1067 55.2564C34.6941 55.5968 34.269 55.5086 33.8314 55.2564C32.7437 54.6387 31.6434 54.0588 30.5682 53.4158C30.1681 53.1763 29.8556 53.1385 29.443 53.4032C28.3678 54.0462 27.2675 54.6261 26.1798 55.2438C25.7172 55.5086 25.2796 55.5968 24.8545 55.2312C24.4544 54.8908 24.4419 54.4622 24.6045 53.9705C24.992 52.7351 25.3546 51.487 25.7297 50.2515C25.8297 49.9237 25.8172 49.6968 25.5172 49.4446C24.5044 48.6 23.5417 47.7049 22.5415 46.8476C22.1539 46.5072 21.8664 46.1416 22.0539 45.5995C22.2415 45.0448 22.6916 44.8935 23.2417 44.8935C24.4544 44.9061 25.6547 44.8809 26.8674 44.9061C27.2425 44.9187 27.4176 44.78 27.5551 44.4396C28.0177 43.3428 28.5178 42.2586 28.9929 41.1618C29.1929 40.708 29.468 40.355 29.9931 40.355C30.5432 40.355 30.8308 40.708 31.0308 41.1996C31.5559 42.4225 32.106 43.6328 32.6562 44.8809ZM30.0056 43.8471C29.6305 44.7044 29.2929 45.3978 29.0054 46.1038C28.7803 46.6585 28.4053 46.9232 27.8051 46.898C27.155 46.8728 26.4924 46.898 25.6797 46.898C26.3298 47.4779 26.8424 47.9822 27.3925 48.4109C27.9677 48.8521 28.1302 49.369 27.8802 50.0624C27.6301 50.781 27.4426 51.5122 27.1925 52.3821C27.9927 51.9408 28.6553 51.6004 29.2929 51.197C29.8181 50.8692 30.2932 50.907 30.8058 51.2222C31.4309 51.6004 32.081 51.9408 32.8562 52.3821C32.5936 51.5122 32.4186 50.8062 32.1686 50.1254C31.8935 49.3816 32.0685 48.8521 32.6937 48.373C33.2438 47.957 33.7189 47.4653 34.344 46.9106C33.5188 46.9106 32.8687 46.898 32.2186 46.9106C31.6184 46.9358 31.2434 46.6711 31.0183 46.1164C30.7057 45.3978 30.3807 44.7044 30.0056 43.8471Z" fill="#54D8AF"/>
<path d="M43.0095 44.8179C43.7971 44.8179 44.7473 45.0952 45.3099 44.7422C45.8476 44.4019 45.9976 43.4185 46.3102 42.7125C46.5477 42.183 46.7853 41.6409 47.0228 41.1114C47.2103 40.6702 47.4979 40.3676 47.998 40.3676C48.5231 40.3676 48.8232 40.6828 49.0107 41.1492C49.4858 42.2587 49.9984 43.3681 50.461 44.4901C50.5986 44.8053 50.7611 44.9187 51.1112 44.9187C52.3364 44.8935 53.5742 44.9187 54.7994 44.9061C55.337 44.8935 55.7496 45.0574 55.9497 45.5869C56.1497 46.129 55.8872 46.5198 55.4996 46.8602C54.5119 47.7301 53.5367 48.6126 52.524 49.4447C52.1989 49.7094 52.1864 49.9489 52.2989 50.3019C52.6865 51.5374 53.0241 52.7855 53.4241 54.021C53.5867 54.5253 53.5367 54.9413 53.1366 55.2691C52.724 55.6095 52.2989 55.5212 51.8613 55.2691C50.7736 54.6513 49.6609 54.0714 48.5981 53.4285C48.1605 53.1637 47.8355 53.2015 47.4104 53.4537C46.3602 54.084 45.2599 54.6513 44.1972 55.2691C43.7346 55.5338 43.297 55.6221 42.8719 55.2565C42.4718 54.9161 42.4593 54.4874 42.6219 53.9958C43.0095 52.7855 43.347 51.55 43.7221 50.3271C43.8346 49.9489 43.8221 49.6968 43.4846 49.4194C42.4718 48.5874 41.5091 47.6797 40.5089 46.8224C40.1339 46.4946 39.8963 46.1164 40.0713 45.6121C40.2589 45.0826 40.659 44.8935 41.1966 44.9061C41.7967 44.9187 42.4093 44.9061 43.0095 44.9061C43.0095 44.8557 43.0095 44.8431 43.0095 44.8179ZM45.1849 52.3569C45.9351 51.9408 46.5602 51.6257 47.1603 51.2475C47.7605 50.8692 48.2856 50.8566 48.8857 51.2601C49.4608 51.6383 50.0984 51.9534 50.8361 52.3695C50.5735 51.487 50.386 50.7432 50.136 50.012C49.8984 49.3312 50.0734 48.8521 50.6236 48.4235C51.1862 47.9822 51.6988 47.478 52.3489 46.898C51.5363 46.898 50.9111 46.8728 50.2985 46.9106C49.6484 46.9485 49.2358 46.6837 48.9982 46.0786C48.7107 45.3726 48.3856 44.6918 48.0105 43.8724C47.6354 44.717 47.3104 45.3978 47.0228 46.1164C46.7853 46.6963 46.3852 46.9485 45.76 46.9233C45.1224 46.898 44.4848 46.9233 43.6846 46.9233C44.3097 47.4906 44.7848 47.9822 45.3349 48.3731C45.9976 48.8647 46.1351 49.4194 45.8476 50.1759C45.5975 50.8314 45.4225 51.5374 45.1849 52.3569Z" fill="#142DAD"/>
<path d="M7.02627 44.8809C7.6514 44.8809 8.27653 44.8557 8.90166 44.8935C9.25173 44.9061 9.41427 44.7801 9.5518 44.4649C10.0269 43.3429 10.527 42.2461 11.0146 41.1366C11.2146 40.6828 11.5022 40.3424 12.0273 40.355C12.5524 40.3676 12.8275 40.6954 13.0275 41.1619C13.4901 42.2587 13.9902 43.3429 14.4528 44.4397C14.5904 44.7801 14.7654 44.9061 15.1405 44.9061C16.3657 44.8809 17.6035 44.9061 18.8287 44.8935C19.3664 44.8809 19.7664 45.07 19.954 45.5995C20.129 46.1038 19.8915 46.4946 19.5289 46.8224C18.5412 47.6923 17.566 48.5748 16.5533 49.4068C16.2157 49.6842 16.1907 49.9363 16.3032 50.3145C16.6908 51.55 17.0284 52.7981 17.4159 54.0336C17.566 54.5127 17.516 54.9035 17.1534 55.2313C16.7533 55.5843 16.3282 55.5338 15.8781 55.2817C14.7529 54.6387 13.6152 54.0336 12.5024 53.378C12.1273 53.1637 11.8398 53.1763 11.4772 53.3906C10.402 54.021 9.30174 54.6135 8.21402 55.2313C7.76392 55.496 7.32633 55.6221 6.88874 55.2691C6.45114 54.9161 6.45115 54.4749 6.61368 53.958C6.98876 52.7603 7.31383 51.55 7.70141 50.3524C7.85144 49.8985 7.75142 49.6464 7.40135 49.3564C6.43864 48.5496 5.52595 47.7049 4.57575 46.8728C4.17567 46.5198 3.8631 46.1416 4.06314 45.5743C4.26319 45.007 4.72578 44.8809 5.2634 44.8935C5.85102 44.8935 6.43864 44.8809 7.02627 44.8809ZM12.0023 43.8472C11.6397 44.6666 11.3147 45.3348 11.0396 46.0156C10.7896 46.6459 10.377 46.9359 9.70183 46.898C9.0767 46.8602 8.45157 46.8854 7.6639 46.8854C8.37655 47.5158 8.92667 48.0201 9.50179 48.4991C9.95188 48.8773 10.1019 49.306 9.90187 49.8859C9.63931 50.6549 9.43927 51.4366 9.17672 52.3443C9.97689 51.903 10.652 51.55 11.3022 51.1592C11.8148 50.844 12.2649 50.8819 12.7525 51.1844C13.3776 51.5752 14.0402 51.9156 14.8279 52.3569C14.5653 51.4618 14.3778 50.718 14.1153 49.9994C13.8777 49.3186 14.0527 48.8395 14.6029 48.4109C15.1655 47.9696 15.6781 47.4654 16.3282 46.8854C15.503 46.8854 14.8654 46.8602 14.2153 46.8854C13.5901 46.9107 13.2026 46.6333 12.9775 46.0534C12.7025 45.36 12.3774 44.6792 12.0023 43.8472Z" fill="#142DAD"/>
<path d="M43.9963 32.3117C43.9963 32.9799 43.9963 33.585 43.9963 34.291C43.7462 34.291 43.5087 34.291 43.2711 34.291C37.8575 34.291 32.4313 34.291 27.0177 34.2784C26.5801 34.2784 26.2926 34.4171 25.9925 34.7197C23.8545 36.9007 21.6916 39.0691 19.5411 41.2375C19.4036 41.3762 19.2536 41.5148 19.0285 41.7165C19.0285 39.2078 19.0285 36.7998 19.0285 34.291C18.791 34.291 18.5909 34.291 18.3909 34.291C16.9531 34.291 15.5153 34.3036 14.0775 34.291C12.4647 34.2784 11.0394 32.8664 11.0143 31.2527C11.0018 30.282 11.0143 29.3239 11.0143 28.3027C11.6645 28.3027 12.2896 28.3027 13.0148 28.3027C13.0148 29.223 13.0148 30.1559 13.0148 31.1015C13.0148 32.0344 13.2648 32.2865 14.2025 32.2865C16.2404 32.2865 18.2909 32.2865 20.3288 32.2865C20.5288 32.2865 20.7414 32.2865 20.9914 32.2865C20.9914 33.7994 20.9914 35.2618 20.9914 36.8629C21.2165 36.6737 21.354 36.5729 21.4665 36.4468C22.7293 35.1735 23.9921 33.8876 25.2798 32.6269C25.4549 32.463 25.7299 32.2991 25.9675 32.2991C31.8812 32.2865 37.8075 32.2865 43.7212 32.2865C43.7837 32.2739 43.8587 32.2991 43.9963 32.3117Z" fill="#142DAD"/>
<path d="M38.0449 15.078C38.0449 14.4098 38.0449 13.792 38.0449 13.1365C40.683 13.1365 43.296 13.1365 45.9591 13.1365C45.9591 13.7542 45.9591 14.3972 45.9591 15.078C43.346 15.078 40.7205 15.078 38.0449 15.078Z" fill="#54D8AF"/>
<path d="M45.9593 19.15C43.3087 19.15 40.7082 19.15 38.0576 19.15C38.0576 18.5071 38.0576 17.8641 38.0576 17.1833C40.6707 17.1833 43.2962 17.1833 45.9593 17.1833C45.9593 17.8389 45.9593 18.4944 45.9593 19.15Z" fill="#54D8AF"/>
<path d="M45.9723 23.1716C43.9969 23.1716 42.0465 23.1716 40.0586 23.1716C40.0586 22.5413 40.0586 21.8983 40.0586 21.2302C42.0215 21.2302 43.9719 21.2302 45.9723 21.2302C45.9723 21.8479 45.9723 22.4783 45.9723 23.1716Z" fill="#54D8AF"/>
<path d="M31.994 6.08911C31.994 6.75728 31.994 7.36242 31.994 8.01798C26.0177 8.01798 20.054 8.01798 14.0527 8.01798C14.0527 7.40024 14.0527 6.76989 14.0527 6.08911C20.0165 6.08911 25.9802 6.08911 31.994 6.08911Z" fill="#54D8AF"/>
<path d="M14.0278 12.0523C14.0278 11.3968 14.0278 10.7664 14.0278 10.1109C20.0166 10.1109 25.9803 10.1109 31.9691 10.1109C31.9691 10.7538 31.9691 11.3842 31.9691 12.0523C26.0179 12.0523 20.0541 12.0523 14.0278 12.0523Z" fill="#54D8AF"/>
<path d="M14.0405 16.0865C14.0405 15.4184 14.0405 14.8006 14.0405 14.1451C18.3539 14.1451 22.6298 14.1451 26.9557 14.1451C26.9557 14.7628 26.9557 15.4058 26.9557 16.0865C22.6673 16.0865 18.3789 16.0865 14.0405 16.0865Z" fill="#54D8AF"/>
</svg>
