<?xml version="1.0" encoding="utf-8"?>
<!-- Generator: Adobe Illustrator 21.0.2, SVG Export Plug-In . SVG Version: 6.00 Build 0)  -->
<svg version="1.1" id="Слой_1" xmlns="http://www.w3.org/2000/svg" xmlns:xlink="http://www.w3.org/1999/xlink" x="0px" y="0px"
	 viewBox="0 0 17 16" style="enable-background:new 0 0 17 16;" xml:space="preserve">
<style type="text/css">
	.st0{fill:#FFFFFF;}
</style>
<path class="st0" d="M4.8,0.8c0,0.5,0,1,0,1.5c0,0.1-0.1,0.1-0.2,0.1c-0.7,0-1.4,0-2.1,0c-0.6,0-1,0.4-0.9,0.9c0,0.4,0,0.8,0,1.2
	c0,0.1,0,0.1,0,0.2c0.1,0,0.1,0,0.2,0c4.2,0,8.3,0,12.5,0c0.2,0,0.2-0.1,0.2-0.2c0-0.5,0-0.9,0-1.4c0-0.5-0.3-0.9-0.9-0.9
	c-0.7,0-1.4,0-2.2,0c-0.2,0-0.2,0-0.2-0.2c0-0.5,0-0.9,0-1.4c0.1,0,0.1,0,0.2,0c0.7,0,1.5,0,2.2,0c1.3,0,2.4,1,2.4,2.3
	c0,2.3,0,4.7,0,7c0,1.1,0,2.3,0,3.4c0,1.3-0.8,2.2-2,2.4c-0.1,0-0.3,0-0.4,0c-3.7,0-7.4,0-11,0c-1.3,0-2.3-0.9-2.5-2
	c0-0.2,0-0.4,0-0.6C0,10,0,6.6,0,3.2c0-1.2,0.8-2.2,1.9-2.4c0.1,0,0.3-0.1,0.4-0.1c0.8,0,1.6,0,2.4,0C4.7,0.8,4.8,0.8,4.8,0.8z
	 M1.6,6.4c0,0.1,0,0.2,0,0.2c0,2.3,0,4.6,0,6.9c0,0.5,0.3,0.9,0.9,0.9c3.7,0,7.3,0,11,0c0.6,0,0.9-0.3,0.9-0.9c0-2.3,0-4.6,0-6.9
	c0-0.2,0-0.2-0.2-0.2c-3.9,0-7.8,0-11.7,0C2.2,6.4,1.9,6.4,1.6,6.4z"/>
<path class="st0" d="M7.2,3.2c-0.5,0-1.1,0-1.6,0c0-1.1,0-2.1,0-3.2c0.5,0,1,0,1.6,0C7.2,1.1,7.2,2.1,7.2,3.2z"/>
<path class="st0" d="M8.8,0c0.5,0,1,0,1.6,0c0,1.1,0,2.1,0,3.2c-0.5,0-1,0-1.6,0C8.8,2.1,8.8,1.1,8.8,0z"/>
<path class="st0" d="M7.5,13.6c-0.9-0.9-1.8-1.9-2.8-2.8c0.4-0.4,0.7-0.7,1.1-1.1c0.5,0.5,1.1,1.1,1.6,1.6c1.4-1.4,2.7-2.7,4-4
	c0.4,0.4,0.8,0.8,1.1,1.1C10.8,10.2,9.2,11.9,7.5,13.6z"/>
</svg>
