<svg width="62" height="58" viewBox="0 0 62 58" fill="none" xmlns="http://www.w3.org/2000/svg">
<path d="M45.0689 48.3818C44.9749 49.7601 44.3993 50.7261 43.2361 51.2916C42.0848 51.8453 40.9569 51.645 39.8173 51.0442C39.6998 52.5757 38.9597 53.6241 37.6086 54.1425C36.234 54.6726 35.0591 54.0836 33.9195 53.1765C33.7668 54.4488 33.3086 55.4619 32.2042 56.0745C31.1234 56.6635 30.0307 56.64 28.9616 56.0627C26.5649 57.7474 24.6146 57.1348 23.8392 54.437C22.8994 54.6255 21.9712 54.5902 21.1723 53.9776C20.3969 53.3767 19.9387 52.5757 19.8565 51.5272C18.8813 51.7275 17.9767 51.6096 17.1895 50.9853C16.4141 50.3609 16.0029 49.5598 15.9912 48.5349C14.2759 48.582 12.9836 47.887 12.4666 46.2495C12.0907 45.0596 12.3491 43.6931 13.6062 42.8095C13.3595 41.7964 12.6546 40.8068 11.7617 40.2295C11.6442 40.3945 11.515 40.5594 11.3975 40.7361C10.6338 41.8788 9.50597 42.1851 8.28412 41.5372C7.76718 41.2662 7.33248 40.8539 6.86254 40.5123C4.92403 39.0868 2.98551 37.6496 1 36.1888C1.25847 35.8354 1.52869 35.4702 1.83415 35.0578C4.03113 36.6718 6.19287 38.2622 8.35461 39.8526C8.46035 39.935 8.56609 40.0175 8.68357 40.1C9.45898 40.689 9.76444 40.6419 10.3049 39.8526C12.6428 36.4951 14.9808 33.1258 17.307 29.7566C17.4833 29.4974 17.6712 29.2382 17.8475 28.9908C18.2939 28.3429 18.2234 27.907 17.5655 27.4593C17.2483 27.2355 16.8841 27.0706 16.5551 26.8585C15.1923 26.0103 13.8412 25.1621 12.4079 24.2668C12.6663 23.878 12.9013 23.5364 13.1598 23.1358C13.5827 23.4068 13.9704 23.6542 14.3581 23.9016C15.533 24.6438 16.7196 25.3624 17.871 26.1517C18.3527 26.4815 18.7169 26.9999 19.1751 27.3886C19.3513 27.5418 19.6215 27.6596 19.8565 27.6596C26.6119 27.6714 33.3673 27.6714 40.1228 27.6714C40.8629 27.6714 41.6148 27.6949 42.355 27.6596C42.5547 27.6478 42.7897 27.4829 42.9542 27.3297C43.3889 26.941 43.7413 26.4462 44.2113 26.1281C45.5859 25.1974 47.0192 24.3492 48.4055 23.4303C48.7815 23.183 49.0164 23.183 49.2749 23.5482C49.4394 23.7838 49.6626 23.984 49.8976 24.2668C49.6861 24.3964 49.5216 24.5142 49.3454 24.632C47.8886 25.5391 46.4083 26.4344 44.9632 27.3769C43.9176 28.0484 44.082 28.4607 44.5755 29.1793C47.0662 32.796 49.5216 36.4244 51.9653 40.0764C52.2473 40.5005 52.5528 40.5712 52.9405 40.3945C53.2577 40.2531 53.5514 40.0528 53.8334 39.8408C55.9834 38.274 58.1216 36.6954 60.3068 35.0814C60.5536 35.4937 60.765 35.8471 61 36.2359C60.0131 36.9545 59.0262 37.6731 58.0629 38.3918C56.7823 39.3342 55.5369 40.312 54.2328 41.2191C53.7864 41.5254 53.2342 41.7375 52.6938 41.8671C51.8713 42.0555 51.2017 41.7139 50.7317 41.0189C48.1471 37.2373 45.5389 33.4557 42.9894 29.6505C42.6957 29.2146 42.4255 29.0851 41.9321 29.0851C37.3736 29.0968 32.8034 29.0851 28.245 29.1086C27.916 29.1086 27.5518 29.2029 27.2581 29.3678C25.7073 30.2042 24.1917 31.0878 22.6409 31.936C22.3002 32.1245 22.1827 32.3365 22.1944 32.7135C22.2179 34.1272 22.2062 35.5291 22.2062 36.9899C23.3223 36.9427 24.133 36.4126 24.5677 35.4702C24.9671 34.5984 25.2021 33.6442 25.531 32.6899C27.8455 32.6899 30.2187 32.6899 32.6037 32.6899C32.6977 33.0551 32.7564 33.4086 32.8622 33.7384C33.3673 35.1874 34.6832 36.0828 36.4102 36.1652C36.4337 36.1652 36.4455 36.1652 36.469 36.1652C38.055 35.8943 39.2886 36.5893 40.5457 37.4729C43.3184 39.4402 46.185 41.2898 49.0047 43.21C50.1796 44.0111 50.7787 45.413 50.5085 46.6736C50.2148 48.0401 49.1927 49.0297 47.6889 49.1828C47.0544 49.2417 46.373 48.9708 45.7151 48.8176C45.5154 48.7116 45.3274 48.5349 45.0689 48.3818ZM36.4102 40.6537C37.3266 41.2898 38.1843 41.8788 39.0536 42.4797C41.4034 44.1054 43.7531 45.7193 46.1145 47.3451C46.8312 47.8398 47.6066 48.0637 48.4173 47.5807C49.6156 46.862 49.6274 45.2599 48.4525 44.4588C45.6329 42.5268 42.7662 40.6419 39.97 38.6509C38.8892 37.8852 37.8318 37.4847 36.4807 37.4964C34.2485 37.5318 32.5449 36.5186 31.6168 34.3746C31.5463 34.2214 31.2878 34.0447 31.1116 34.0447C29.7605 34.0211 28.4094 34.0447 27.0583 34.0211C26.7176 34.0211 26.6002 34.1625 26.4944 34.4453C26.2007 35.1639 25.9422 35.9178 25.531 36.5658C24.6381 37.9794 23.0403 38.5803 21.4543 38.2268C21.0313 38.1326 20.7964 37.9794 20.8081 37.4493C20.8551 35.5409 20.8316 33.6442 20.8199 31.7357C20.8199 31.3234 20.9491 31.1113 21.3015 30.9111C22.4059 30.3102 23.4868 29.6623 24.5794 29.0379C23.1578 28.9319 21.7832 28.979 20.3969 28.9201C19.6098 28.8848 19.1516 29.0851 18.6816 29.8037C16.8958 32.5486 15.0043 35.211 13.148 37.9088C12.9131 38.2386 12.6898 38.5803 12.4549 38.9337C13.4652 39.8054 14.3346 40.7361 14.7693 41.9849C14.8046 42.1027 15.0278 42.2205 15.157 42.2205C16.7079 42.1969 17.73 42.9744 18.4114 44.3528C19.2925 43.7284 20.2324 43.5988 21.2428 43.9405C22.2649 44.2939 22.8876 45.0596 23.2753 46.0492C25.0963 45.0478 26.2594 45.3541 27.3403 46.4144C28.7619 47.8163 28.5034 49.3949 27.4343 50.9382C29.6078 51.5625 30.1835 52.4107 29.925 54.5195C29.9133 54.6608 30.0777 54.9082 30.2187 54.9671C30.9706 55.3088 31.8635 55.026 32.3452 54.331C32.8622 53.5888 32.8387 52.5757 32.1807 51.9513C31.5581 51.3505 30.8414 50.8557 30.1482 50.2902C30.4537 49.9132 30.7474 49.5245 31.0529 49.1357C32.6037 50.2549 34.0957 51.3387 35.5878 52.4107C36.5512 53.094 37.6203 52.9644 38.2313 52.1044C38.8892 51.1973 38.6542 49.9839 37.6791 49.3242C36.328 48.4171 34.9769 47.5218 33.6258 46.6264C33.3673 46.4615 33.1206 46.2848 32.8387 46.0845C33.1089 45.6722 33.3556 45.307 33.6141 44.93C33.7668 45.0243 33.8725 45.0832 33.9665 45.1539C36.234 46.7325 38.5015 48.3111 40.7689 49.8661C41.7676 50.5494 42.9424 50.3727 43.5651 49.4538C44.1525 48.582 43.8823 47.51 42.8837 46.8149C42.0965 46.2612 41.3094 45.7193 40.5222 45.1774C38.9362 44.07 37.3501 42.9744 35.7406 41.8553C35.9755 41.443 36.187 41.0778 36.4102 40.6537ZM23.2283 53.2472C23.6513 52.9998 24.1799 52.8466 24.4737 52.4932C25.2491 51.5625 25.9422 50.5612 26.6119 49.5598C27.1288 48.7941 26.8586 47.7338 26.0832 47.1683C25.3901 46.6618 24.4032 46.756 23.8275 47.4982C23.0638 48.4642 22.3589 49.4656 21.6658 50.4905C21.278 51.056 21.325 51.6803 21.654 52.2694C21.983 52.8348 22.4882 53.1294 23.2283 53.2472ZM19.4218 50.196C19.8095 50.2078 20.2912 49.9486 20.6554 49.4656C20.9961 49.0179 21.3368 48.5585 21.6658 48.099C22.3354 47.1919 22.1827 46.1434 21.2898 45.4719C20.5496 44.9065 19.551 45.1067 18.8813 45.9785C18.4936 46.4851 18.1412 47.027 17.777 47.5571C17.3893 48.1108 17.401 48.7116 17.6712 49.2889C17.965 49.8897 18.5054 50.1842 19.4218 50.196ZM15.4273 43.6695C14.5344 43.6813 13.7707 44.4117 13.7942 45.2481C13.8177 46.2141 14.6284 47.0741 15.5095 47.0859C16.4141 47.0977 17.2718 46.3084 17.2718 45.4602C17.2953 44.4588 16.4611 43.6577 15.4273 43.6695ZM26.9056 55.5562C27.634 55.5679 28.6327 54.5902 28.6444 53.848C28.6562 53.0233 27.9865 52.3283 27.1876 52.3165C26.4709 52.3165 25.5075 53.2589 25.484 53.9893C25.4488 54.8022 26.1185 55.5444 26.9056 55.5562Z" fill="#142DAD" stroke="#142DAD" stroke-width="0.5"/>
<path d="M21.2078 20.6972C21.2078 14.1119 21.2078 7.58538 21.2078 1C27.7635 1 34.3074 1 40.8866 1C40.8866 7.55004 40.8866 14.1001 40.8866 20.6972C34.3427 20.6972 27.7987 20.6972 21.2078 20.6972ZM22.6293 2.39012C22.6293 8.05661 22.6293 13.6642 22.6293 19.2836C28.2687 19.2836 33.8727 19.2836 39.4886 19.2836C39.4886 13.6289 39.4886 8.02126 39.4886 2.39012C33.861 2.39012 28.2687 2.39012 22.6293 2.39012Z" fill="#142DAD" stroke="#142DAD" stroke-width="0.5"/>
<path d="M53.7632 37.8614C53.3755 38.1087 52.9995 38.3442 52.5883 38.6151C52.3416 38.2265 52.1066 37.8496 51.8364 37.4256C52.2241 37.1783 52.6001 36.9545 53.023 36.6836C53.2698 37.084 53.5047 37.4491 53.7632 37.8614Z" fill="#54D8AF" stroke="#54D8AF" stroke-width="0.5"/>
<path d="M8.2959 37.8378C8.57786 37.4374 8.82458 37.0723 9.0948 36.6954C9.48251 36.9663 9.83496 37.2136 10.2344 37.4845C9.97595 37.8614 9.71748 38.2265 9.44726 38.6387C9.07131 38.3678 8.7071 38.1205 8.2959 37.8378Z" fill="#54D8AF" stroke="#54D8AF" stroke-width="0.5"/>
<path d="M28.8323 13.8645C31.3583 11.3316 33.7785 8.90481 36.1752 6.48978C36.5159 6.83142 36.8331 7.16127 37.0681 7.40867C34.4012 10.1771 31.6872 12.9809 28.9146 15.8554C27.587 14.4064 26.3299 13.0398 25.061 11.6497C25.2373 11.4966 25.6015 11.2138 25.9539 10.9075C26.8351 11.8146 27.8102 12.8042 28.8323 13.8645Z" fill="#54D8AF" stroke="#54D8AF" stroke-width="0.5"/>
</svg>
