<svg width="15" height="16" viewBox="0 0 15 16" fill="none" xmlns="http://www.w3.org/2000/svg">
<path d="M1.62409 8.80657C1.54138 8.78757 1.47191 8.77175 1.40244 8.75592C1.10139 8.67995 0.899592 8.4647 0.863202 8.17348C0.704408 6.95163 0.548922 5.72662 0.386819 4.50477C0.264416 3.55831 0.135395 2.61502 0.00637527 1.66856C-0.0432479 1.31403 0.20156 0.937351 0.575387 0.864546C1.65717 0.655629 2.73896 0.437216 3.83067 0.266284C5.19365 0.0542009 6.56656 -0.0249343 7.94939 0.00671977C9.03117 0.0288777 10.1163 0.111178 11.1848 0.285276C12.2468 0.459374 13.3021 0.66196 14.3607 0.864546C14.7808 0.946847 15.0488 1.36785 14.9926 1.77619C14.8635 2.72581 14.7411 3.6786 14.6154 4.62822C14.4996 5.50504 14.3805 6.38186 14.2648 7.26184C14.2284 7.52457 14.1953 7.78414 14.1589 8.04687C14.1093 8.42355 13.8612 8.68628 13.4675 8.77491C13.4212 8.78441 13.3715 8.7939 13.3153 8.80657C13.3153 9.34152 13.3186 9.87014 13.3153 10.3956C13.3087 11.1142 13.1929 11.8137 12.8952 12.4753C12.0383 14.3935 10.543 15.5869 8.38607 15.9256C5.23996 16.4162 2.31551 14.4315 1.72664 11.4307C1.63401 10.959 1.64394 10.4652 1.62409 9.98093C1.61086 9.59159 1.62409 9.19908 1.62409 8.80657ZM3.33113 8.49002C3.32782 8.52801 3.32451 8.57866 3.32451 8.6293C3.32451 9.2244 3.3212 9.8195 3.32782 10.4178C3.33113 10.6393 3.34105 10.8609 3.38075 11.0793C3.81743 13.4439 6.26551 14.8937 8.66727 14.2194C10.3247 13.7541 11.5454 12.279 11.6116 10.6298C11.638 9.93978 11.6215 9.24972 11.6215 8.5565C11.6215 8.52801 11.6116 8.49636 11.6083 8.49002C8.8426 7.82845 6.09348 7.82845 3.33113 8.49002ZM13.2293 2.24467C9.38515 1.42166 5.55093 1.42166 1.71341 2.24467C1.93837 3.8337 2.16333 5.41641 2.39159 7.0276C5.78582 6.15395 9.16681 6.15711 12.5511 7.0276C12.7794 5.40691 13.0043 3.82421 13.2293 2.24467Z" fill="#142DAD"/>
<path d="M6.62237 3.20679C6.62237 2.96622 6.62898 2.75097 6.61906 2.53572C6.61244 2.41227 6.66207 2.38378 6.78116 2.38695C7.23769 2.39328 7.69423 2.39328 8.15407 2.38695C8.27978 2.38378 8.3294 2.41544 8.32279 2.54522C8.31286 2.76047 8.31948 2.97572 8.31948 3.20362C8.60399 3.20362 8.87195 3.20362 9.14984 3.20362C9.14984 3.74808 9.14984 4.2767 9.14984 4.82115C8.87857 4.82115 8.6106 4.82115 8.32279 4.82115C8.32279 5.09654 8.32279 5.35611 8.32279 5.62833C7.75047 5.62833 7.198 5.62833 6.62568 5.62833C6.62568 5.36244 6.62568 5.10287 6.62568 4.82748C6.33786 4.82748 6.0699 4.82748 5.79201 4.82748C5.79201 4.28303 5.79201 3.75441 5.79201 3.20996C6.06328 3.20679 6.33125 3.20679 6.62237 3.20679Z" fill="#142DAD"/>
</svg>
