<svg width="55" height="58" viewBox="0 0 55 58" fill="none" xmlns="http://www.w3.org/2000/svg">
<path d="M54.9844 2.67528C54.9844 1.7381 54.4695 1.22266 53.5334 1.22266C45.2486 1.22266 43.1892 1.22266 34.9044 1.22266C33.9059 1.22266 33.4222 1.70687 33.4222 2.70652C33.4066 8.95438 33.4222 27.5417 33.4222 33.774C33.4222 34.3831 33.6562 34.8205 34.2023 35.1017C34.764 35.3828 35.2633 35.2422 35.7157 34.8674C36.4022 34.305 37.0731 33.7427 37.744 33.1648C38.7894 32.2901 39.8347 31.4154 40.8644 30.5251C44.843 30.5251 47.7606 30.5251 51.8327 30.5251C52.41 30.5251 52.9717 30.5563 53.549 30.5095C54.5007 30.447 55 29.9628 55 29.0256C55 24.371 55 7.34555 54.9844 2.67528ZM53.1121 28.682C49.3988 28.682 44.5933 28.682 40.8644 28.682C40.802 28.682 40.7396 28.682 40.6928 28.682C40.4276 28.6351 40.1467 28.7445 39.8659 28.9319C39.7411 29.0256 39.6319 29.1349 39.5071 29.2287C38.1341 30.3689 36.7767 31.5091 35.3101 32.7431C35.3101 26.9013 35.3101 8.86066 35.3101 3.12825C43.3296 3.12825 45.077 3.12825 53.0809 3.12825C53.0965 7.53299 53.0965 24.2148 53.1121 28.682C53.6582 28.682 53.393 28.682 53.1121 28.682Z" fill="#142DAD"/>
<path d="M0.658356 23.8554C0.658356 20.4972 0.533539 17.139 0.68956 13.7808C1.0016 7.2049 5.93188 1.59745 12.3444 0.301018C20.083 -1.26095 27.5876 3.39371 29.5847 11.0629C29.928 12.4062 30.0528 13.8276 30.0528 15.2334C30.0996 21.5593 30.0684 27.8853 30.0684 34.2113C30.0684 35.289 29.8031 35.7264 29.1635 35.742C28.4926 35.7576 28.1961 35.2734 28.1961 34.18C28.1961 27.8228 28.2273 21.4812 28.1805 15.1241C28.1649 9.48537 25.5906 5.36178 20.4887 2.9876C13.0308 -0.479964 3.98161 4.40898 2.70224 12.5312C2.53061 13.609 2.4682 14.7023 2.4682 15.7957C2.4526 21.9342 2.4526 28.0727 2.4526 34.2269C2.4526 35.3046 2.18737 35.742 1.54768 35.742C0.90799 35.742 0.595947 35.289 0.595947 34.2425C0.595947 30.7749 0.595947 27.323 0.595947 23.8554C0.611549 23.8554 0.642754 23.8554 0.658356 23.8554Z" fill="#142DAD"/>
<path d="M4.21514 18.8729C4.21514 18.2949 4.16833 17.7326 4.21514 17.1547C4.32435 15.7958 5.13566 14.968 6.47745 14.8118C9.72269 14.4056 12.8431 13.5778 15.6515 11.844C16.6968 11.188 17.6486 10.3602 18.6159 9.5948C19.2556 9.09497 19.7861 9.09497 20.1605 9.64166C20.535 10.204 20.2541 10.6101 19.8485 11.0006C17.6798 13.0624 15.1678 14.5618 12.3282 15.4053C10.5184 15.9364 8.64615 16.2175 6.80509 16.6705C6.52425 16.733 6.103 17.061 6.0874 17.2953C5.80656 20.6847 6.44624 23.8087 9.14541 26.1516C12.0318 28.6508 15.3239 29.2912 18.8655 27.8073C22.3604 26.3547 24.2483 23.6212 24.5759 19.8413C24.6071 19.5601 24.5915 19.2634 24.6227 18.9822C24.7632 17.6233 24.4043 16.5924 23.2341 15.6708C21.7987 14.5462 21.1435 12.7968 20.5194 11.1099C20.3477 10.6413 20.5038 10.1727 21.0498 9.96967C21.5803 9.76661 21.9704 9.98529 22.22 10.4539C22.5164 11.0318 22.6881 11.6878 23.0469 12.2033C23.671 13.1092 24.3419 14.0152 25.1064 14.7961C25.8709 15.5771 26.4014 16.3893 26.4794 17.4983C26.7758 21.9187 25.5277 25.6986 21.7987 28.3384C18.2883 30.8063 14.4657 31.1655 10.5964 29.3068C6.74269 27.448 4.62079 24.2773 4.27755 19.9819C4.26195 19.7007 4.23074 19.4039 4.21514 19.1228C4.21514 19.0447 4.21514 18.9666 4.21514 18.8885C4.19954 18.8729 4.19954 18.8729 4.21514 18.8729Z" fill="#54D8AF"/>
<path d="M10.8459 22.1524C9.73818 22.1524 8.67723 21.2308 8.70844 20.1218C8.72404 19.7626 9.08289 19.2627 9.42613 19.0909C9.8942 18.8722 10.2843 19.2315 10.5027 19.7157C10.5963 19.9031 10.7211 20.075 10.8303 20.2468C10.9395 20.075 11.0956 19.9031 11.1736 19.7157C11.392 19.2471 11.7196 18.9191 12.2657 19.0597C12.8118 19.2003 13.0614 19.6064 12.999 20.1687C12.9054 21.2464 11.9225 22.1367 10.8459 22.1524Z" fill="#54D8AF"/>
<path d="M19.9733 20.2938C20.0513 20.0907 20.1293 19.9033 20.2073 19.7002C20.4102 19.216 20.8158 18.8568 21.2839 19.091C21.6115 19.2629 21.9704 19.7627 21.986 20.1219C22.0016 21.1997 21.0031 22.09 19.9109 22.1213C18.8656 22.1525 17.867 21.3247 17.711 20.3094C17.6174 19.7315 17.7734 19.2472 18.3663 19.0754C18.9748 18.9036 19.3336 19.2629 19.5364 19.8095C19.5989 19.9657 19.6613 20.1219 19.7393 20.2781C19.8173 20.2781 19.8953 20.2938 19.9733 20.2938Z" fill="#54D8AF"/>
<path d="M43.5326 16.6546C43.7666 16.2329 44.0474 15.8893 44.3751 15.6237C44.7027 15.3582 45.0304 15.0927 45.3736 14.8271C45.7169 14.5616 45.9821 14.2648 46.2161 13.9212C46.4502 13.5775 46.5594 13.2027 46.5594 12.7966C46.5594 12.2655 46.3566 11.8281 45.9665 11.4689C45.5764 11.1096 45.046 10.9222 44.4219 10.9222C44.0162 10.9222 43.6574 10.9847 43.3297 11.1253C43.0021 11.2658 42.7369 11.4064 42.5652 11.5939C42.3936 11.7813 42.2376 11.9531 42.1128 12.1405C41.988 12.328 41.9099 12.4842 41.8787 12.6091L41.8007 12.7966L40.1001 12.1405C40.1313 12.0624 40.1625 11.9375 40.1937 11.7969C40.2249 11.6563 40.3653 11.4064 40.5838 11.0628C40.8022 10.7192 41.0518 10.3911 41.3483 10.1256C41.6447 9.86007 42.0504 9.61016 42.5964 9.39148C43.1425 9.17281 43.7354 9.04785 44.4063 9.04785C45.6389 9.04785 46.6374 9.39148 47.4331 10.0944C48.2288 10.7973 48.6189 11.6251 48.6189 12.6091C48.6189 13.2964 48.494 13.8899 48.2444 14.3741C47.9948 14.8584 47.6983 15.2488 47.3395 15.5456C46.9806 15.8424 46.6218 16.1079 46.2629 16.3578C45.9041 16.6078 45.5921 16.9358 45.3424 17.3263C45.0928 17.7168 44.968 18.1697 44.968 18.7008V18.8882H43.2829C43.2205 18.5758 43.1893 18.2947 43.1893 18.0448C43.1893 17.5293 43.2985 17.0763 43.5326 16.6546ZM43.2673 20.4658C43.517 20.2159 43.7978 20.1066 44.1098 20.1066C44.4219 20.1066 44.7183 20.2315 44.9524 20.4658C45.1864 20.7001 45.3112 20.9969 45.3112 21.3249C45.3112 21.6529 45.1864 21.9341 44.9524 22.1683C44.7183 22.4026 44.4219 22.5276 44.1098 22.5276C43.7978 22.5276 43.5014 22.4026 43.2673 22.1683C43.0333 21.9341 42.9085 21.6373 42.9085 21.3249C42.9085 21.0125 43.0333 20.7157 43.2673 20.4658Z" fill="#54D8AF"/>
<path d="M14.4033 50.9557C14.4033 53.1112 14.4033 55.2668 14.4033 57.4223C14.4033 57.6409 14.4189 57.8128 14.4657 57.9846H16.2132C16.26 57.8284 16.2756 57.6566 16.2756 57.4535C16.2756 53.1112 16.2756 48.7846 16.2756 44.4423C16.2756 43.6301 15.9167 43.1772 15.3082 43.224C14.5749 43.2709 14.4033 43.7707 14.4033 44.4267C14.4189 46.5979 14.4033 48.769 14.4033 50.9557Z" fill="#142DAD"/>
<path d="M0.0180559 57.9846H1.87471C1.85911 53.6111 1.8123 49.2532 1.92152 44.8954C2.01513 40.803 3.94979 37.6166 7.27305 35.258C7.74111 34.9144 8.03755 34.9456 8.44321 35.3518C10.2375 37.148 12.0785 38.9287 13.9196 40.6937C14.6529 41.3966 15.3706 41.5528 16.1039 41.131C16.4315 40.9436 16.7279 40.6624 16.9932 40.3813C18.8186 38.4913 20.6285 36.5857 22.4539 34.6801C22.7348 34.8363 22.9844 34.9769 23.2184 35.1331C26.8537 37.6478 28.7728 41.0842 28.7884 45.5358C28.804 49.5188 28.7884 53.5018 28.7884 57.4848C28.7884 57.6722 28.804 57.844 28.8508 58.0002H30.5982C30.6294 57.8597 30.6607 57.7035 30.6607 57.5316C30.6607 53.3143 30.7387 49.097 30.6294 44.8797C30.5202 40.5687 28.648 37.0699 25.3247 34.3833C21.0809 30.9626 16.1351 30.6971 11.1112 31.6655C4.52707 32.9463 -0.122363 39.0068 0.00245377 45.7701C0.0804645 49.8312 0.033658 53.9079 0.0180559 57.9846ZM20.7065 33.7898C18.8342 35.7422 17.1024 37.5541 15.2145 39.5378C13.4359 37.601 11.7197 35.7266 10.0034 33.8523C13.3735 32.8214 16.9152 32.8682 20.7065 33.7898Z" fill="#142DAD"/>
</svg>
