<svg width="54" height="60" viewBox="0 0 54 60" fill="none" xmlns="http://www.w3.org/2000/svg">
<path d="M50.055 33.781C51.3458 33.987 52.4437 34.5201 53.2158 35.6105C53.6984 36.3011 54 37.0644 54 37.9126C54 45.1458 54 52.3669 54 59.6002C54 59.7213 53.9879 59.8425 53.9759 60C36 60 18.0483 60 0 60C0 59.4063 0 58.8126 0 58.2068C0 51.543 0 44.8793 0 38.2155C0 36.0952 1.18231 34.5201 3.22118 33.9385C3.54692 33.8416 3.60724 33.6962 3.6555 33.4054C3.75201 32.8117 3.83646 32.2059 4.02949 31.6365C4.52413 30.1947 5.60992 29.4314 7.13003 29.4314C9.68767 29.4193 12.2332 29.4677 14.7909 29.4193C17.1314 29.3829 18.1086 30.8853 18.4102 32.6906C18.4705 33.0298 18.5067 33.3691 18.555 33.7447C19.6649 33.7447 20.7627 33.7447 21.945 33.7447C22.0295 32.6906 22.0898 31.6244 22.2105 30.5703C22.319 29.6374 22.3673 28.656 22.6568 27.7836C23.6702 24.7546 25.9745 23.2038 28.9665 22.5374C29.4129 22.4405 29.8713 22.3435 30.3298 22.3193C31.0174 22.2708 31.3794 21.8104 31.7292 21.3379C31.4759 20.8411 31.126 20.6352 30.5952 20.6715C29.9558 20.72 29.3043 20.6958 28.6649 20.6715C28.4839 20.6594 28.2185 20.5504 28.1461 20.405C26.2399 16.3098 25.7332 12.154 28.1099 8.08302C28.7855 6.91988 29.3284 5.97484 28.7735 4.59361C28.4718 3.86665 28.8097 2.98219 29.5094 2.57024C31.6327 1.33441 33.756 0.0864677 36.3016 0.00165584C37.496 -0.0346921 38.5456 0.534759 39.6193 0.98305C40.4276 1.33441 41.248 1.66155 42.0322 2.07349C43.3592 2.77622 43.8056 3.73338 43.3231 5.12672C42.9732 6.13234 43.118 6.84719 43.7091 7.74377C45.8445 11.0635 45.8686 14.6499 44.6863 18.3089C44.6743 18.3331 44.6743 18.3453 44.6622 18.3695C44.3727 19.0964 44.2641 20.0657 43.7212 20.4777C43.2265 20.8533 42.2735 20.6352 41.5255 20.6715C41.4048 20.6836 41.2601 20.6352 41.1635 20.6836C40.9343 20.829 40.681 20.9865 40.5483 21.2167C40.4879 21.3137 40.681 21.5923 40.8137 21.7498C41.1756 22.1981 41.6944 22.3314 42.2493 22.4041C45.0965 22.7676 47.3767 24.0519 48.8727 26.5841C49.5483 27.7351 49.6448 29.0315 49.7775 30.3158C49.8861 31.4426 49.9584 32.5694 50.055 33.781ZM52.2748 58.2674C52.2869 58.0372 52.3231 57.8434 52.3231 57.6495C52.3231 51.2159 52.3351 44.7702 52.3231 38.3366C52.3231 36.5556 51.2131 35.4772 49.4397 35.4772C34.504 35.4772 19.5684 35.4772 4.63271 35.4772C2.76273 35.4772 1.68901 36.5677 1.67694 38.4457C1.67694 44.8187 1.67694 51.2038 1.67694 57.5768C1.67694 57.7949 1.70107 58.013 1.71314 58.2553C18.5912 58.2674 35.4088 58.2674 52.2748 58.2674ZM23.6944 33.7447C31.9584 33.7447 40.0777 33.7447 48.2694 33.7447C48.2694 33.5023 48.2815 33.3085 48.2694 33.1146C48.1488 31.8303 48.0161 30.546 47.9196 29.2618C47.8472 28.3046 47.5094 27.4565 46.9182 26.7174C45.5791 25.0454 43.7815 24.27 41.7064 24.064C41.5617 24.0519 41.3445 24.1367 41.2359 24.2457C40.0657 25.5906 38.5335 26.1722 36.8204 26.3055C34.8056 26.4751 32.8391 26.1964 31.319 24.7304C30.6434 24.064 30.0281 24.0034 29.244 24.2215C29.1233 24.2579 29.0027 24.2579 28.8941 24.2942C26.5295 25.0212 24.6716 26.2812 24.1408 28.8862C23.9718 29.6858 23.9236 30.5218 23.8512 31.3457C23.7788 32.1332 23.7426 32.9208 23.6944 33.7447ZM30.378 18.9268C30.378 18.8178 30.3901 18.7451 30.3901 18.6603C30.3177 17.4002 30.1971 16.1401 30.185 14.8801C30.185 14.3712 30.3056 13.8139 30.571 13.3898C30.7038 13.1717 31.2708 13.2323 31.6327 13.1596C31.6568 13.1596 31.6689 13.1475 31.693 13.1475C33.9973 12.6507 35.6863 11.2574 37.0737 9.42789C37.315 9.11287 37.5442 8.78574 37.7976 8.43438C38.244 9.2825 38.618 10.1064 39.0764 10.8697C39.7279 11.9359 40.4517 12.9536 41.6823 13.4625C41.815 13.5231 41.9598 13.7169 41.9718 13.8623C42.0804 14.8801 42.2011 15.8978 42.2131 16.9156C42.2252 17.5819 42.0442 18.2483 41.9477 18.9268C42.382 19.0601 42.6475 18.9753 42.7681 18.5512C42.8767 18.1635 43.0335 17.7879 43.1421 17.4002C44.1193 14.1652 43.9504 11.0635 41.9839 8.22841C40.5965 6.24139 38.7024 5.00556 36.2413 4.93286C33.189 4.84805 31.0054 6.38678 29.5214 8.96748C27.8083 11.9601 27.9651 15.0861 29.0751 18.2483C29.3767 19.0722 29.4129 19.0843 30.378 18.9268ZM37.508 11.6693C37.315 11.839 37.1582 11.9844 37.0013 12.1298C35.8673 13.1838 34.6247 14.0441 33.1528 14.5408C31.7895 15.0012 31.7895 15.0012 31.8257 16.4794C31.874 18.6239 32.6702 20.3323 34.6005 21.4106C35.5295 21.9316 36.4584 22.077 37.3995 21.5318C39.0161 20.5867 40.307 19.363 40.5121 17.3517C40.5724 16.7944 40.5362 16.225 40.5603 15.6555C40.5844 15.1103 40.3794 14.7347 39.9209 14.3954C39.3901 14.0077 38.9437 13.4989 38.5094 13.0142C38.1354 12.6023 37.8458 12.1419 37.508 11.6693ZM16.7212 33.7568C16.9142 32.0121 16.1662 31.1276 14.5013 31.1155C12.1971 31.1034 9.8807 31.1155 7.57641 31.1155C5.99598 31.1155 5.18767 32.109 5.45308 33.7568C9.19303 33.7568 12.933 33.7568 16.7212 33.7568ZM30.6917 4.99344C34.3231 2.50966 37.9424 2.59448 41.5134 5.13883C41.9236 4.06051 41.8512 3.86665 40.9102 3.44259C39.8485 2.95796 38.7869 2.49755 37.7131 2.06137C36.7721 1.67366 35.7949 1.56462 34.8298 1.94021C33.563 2.43697 32.3083 2.98219 31.0777 3.55164C30.366 3.89089 30.2936 4.21802 30.6917 4.99344ZM39.1126 22.4526C37.0979 23.9792 35.0831 23.955 33.2252 22.5737C32.8753 22.8403 32.5858 23.0584 32.3083 23.2765C33.8043 25.1302 38.4249 25.0575 39.7641 23.1674C39.571 22.9493 39.378 22.7312 39.1126 22.4526Z" fill="#142DAD"/>
<path d="M16.4679 26.4634C13.2829 23.9069 8.97592 23.8342 5.69441 26.4513C5.35661 26.0514 5.00675 25.6395 4.66895 25.2397C7.80567 22.1137 13.9223 21.8472 17.5054 25.2154C17.1676 25.6153 16.8298 26.0272 16.4679 26.4634Z" fill="#54D8AF"/>
<path d="M7.55155 28.5354C7.18962 28.1113 6.83975 27.6994 6.50195 27.2996C8.67353 25.1671 12.9202 24.84 15.6829 27.2632C15.3331 27.6873 14.9832 28.0992 14.6213 28.5354C12.2687 26.8513 9.94029 26.827 7.55155 28.5354Z" fill="#54D8AF"/>
<path d="M35.9513 50.7192C34.2261 50.7192 32.6095 50.7192 30.9084 50.7192C30.9084 51.8823 30.9084 52.9849 30.9084 54.0995C30.8964 55.6989 30.8964 55.6989 29.2918 55.6989C27.446 55.6989 25.5881 55.6867 23.7422 55.711C23.2355 55.7231 23.0787 55.5535 23.0907 55.0567C23.1149 53.8693 23.0907 52.6699 23.0907 51.4825C23.0907 51.2402 23.0907 51.01 23.0907 50.7192C21.3897 50.7192 19.7731 50.7192 18.1082 50.7192C18.084 50.4647 18.0599 50.2709 18.0599 50.077C18.0599 47.9567 18.072 45.8364 18.0479 43.7161C18.0479 43.2315 18.2168 43.0982 18.6752 43.1103C19.942 43.1346 21.2087 43.0982 22.4755 43.1225C22.9942 43.1346 23.1149 42.9528 23.1028 42.4561C23.0787 41.2081 23.1149 39.9481 23.1028 38.7001C23.0907 38.2518 23.2476 38.1064 23.694 38.1064C25.9017 38.1186 28.1216 38.1186 30.3294 38.1064C30.7878 38.1064 30.9205 38.2761 30.9084 38.7122C30.8843 39.9844 30.9084 41.2566 30.8964 42.5288C30.8843 42.965 31.0291 43.1346 31.4875 43.1225C32.7905 43.0982 34.1055 43.1103 35.4084 43.1103C35.6618 43.1103 35.9513 43.0619 35.9513 43.4738C35.9513 45.8486 35.9513 48.2354 35.9513 50.7192ZM29.1953 48.926C30.9326 48.926 32.5733 48.926 34.2623 48.926C34.2623 47.6902 34.2382 46.5149 34.2744 45.3518C34.2865 44.8793 34.0934 44.7702 33.6712 44.7824C32.4285 44.8066 31.1739 44.7945 29.9312 44.7945C29.702 44.7945 29.4728 44.7702 29.2074 44.7581C29.2074 43.2557 29.1953 41.8139 29.2194 40.3842C29.2315 39.9238 29.0867 39.7906 28.6403 39.8027C27.5304 39.8269 26.4326 39.8269 25.3226 39.8027C24.9125 39.7906 24.8039 39.9602 24.8159 40.3358C24.8401 41.0991 24.8159 41.8745 24.8159 42.6378C24.8159 43.3405 24.8159 44.0312 24.8159 44.7824C24.5023 44.7824 24.2851 44.7824 24.068 44.7824C22.8012 44.7824 21.5344 44.7945 20.2677 44.7824C19.8816 44.7824 19.7369 44.9156 19.7489 45.3033C19.7731 46.0666 19.7489 46.8421 19.7489 47.6054C19.7489 48.0415 19.7489 48.4777 19.7489 48.9745C21.4983 48.9745 23.1269 48.9745 24.8159 48.9745C24.8159 50.5132 24.828 51.9792 24.8039 53.4574C24.8039 53.8815 24.9366 54.0268 25.3588 54.0147C26.4084 53.9905 27.446 53.9784 28.4956 54.0147C29.0385 54.039 29.2315 53.8936 29.2194 53.312C29.1712 51.8944 29.1953 50.4647 29.1953 48.926Z" fill="#54D8AF"/>
<path d="M39.2334 31.6493C39.2334 31.1041 39.2334 30.5831 39.2334 30.0137C41.1758 30.0137 43.094 30.0137 45.0484 30.0137C45.0484 30.5589 45.0484 31.092 45.0484 31.6493C43.1181 31.6493 41.224 31.6493 39.2334 31.6493Z" fill="#142DAD"/>
</svg>
