<svg width="24" height="24" viewBox="0 0 24 24" fill="none" xmlns="http://www.w3.org/2000/svg">
<path d="M12.0033 23C6.62693 22.9315 2.03337 19.0421 1.15594 13.7736C1.06132 13.1825 1.02691 12.5828 1.0011 11.9831C0.975298 11.4434 1.40541 11.0151 1.92154 11.0236C2.44627 11.0322 2.86778 11.4948 2.85917 12.0431C2.76455 16.1123 5.89574 20.0016 9.96457 20.8754C15.0657 21.9634 19.8915 18.8622 21.0012 13.7736C22.085 8.8391 18.5667 3.74186 13.5603 2.97085C13.07 2.89375 12.571 2.87662 12.0721 2.85949C11.5302 2.84235 11.057 2.41401 11.0657 1.90001C11.0743 1.39457 11.4958 1.00049 12.0463 1.00049C17.3108 0.949092 22.0076 4.92408 22.8506 10.1413C23.7883 15.8896 20.227 21.2524 14.5409 22.6231C13.7151 22.8201 12.8463 22.8801 12.0033 23Z" fill="#142DAD" stroke="#142DAD" stroke-width="0.2"/>
<path d="M12.9328 8.74477C12.9328 9.73851 12.9242 10.7408 12.9414 11.7346C12.95 12.2829 12.7264 12.6427 12.2274 12.8825C11.0834 13.4308 9.94787 14.0048 8.81238 14.5702C8.45969 14.7415 8.1242 14.7501 7.80592 14.5188C7.49625 14.296 7.34141 13.9619 7.47044 13.6193C7.56506 13.3537 7.78872 13.071 8.02958 12.9339C8.9156 12.4456 9.82744 12.0087 10.7479 11.5718C11.0059 11.4519 11.092 11.3062 11.092 11.0235C11.0748 9.25877 11.0834 7.48545 11.0834 5.72069C11.0834 5.07818 11.4188 4.68411 11.9522 4.65841C12.5457 4.63271 12.9242 5.02678 12.9328 5.69499C12.9414 6.72301 12.9328 7.73389 12.9328 8.74477Z" fill="#142DAD" stroke="#142DAD" stroke-width="0.2"/>
<path d="M8.14987 1.77088C8.64879 1.77945 9.0531 2.17352 9.0617 2.66183C9.0703 3.16727 8.64879 3.57847 8.13266 3.57847C7.63374 3.57847 7.22943 3.17583 7.22083 2.68753C7.21223 2.18209 7.63374 1.76231 8.14987 1.77088Z" fill="#142DAD" stroke="#142DAD" stroke-width="0.2"/>
<path d="M3.58166 8.10277C3.58166 8.61677 3.16876 9.04511 2.66983 9.03655C2.1709 9.02798 1.7752 8.61677 1.7666 8.12847C1.7666 7.61446 2.17951 7.19469 2.68703 7.20325C3.18596 7.20325 3.58166 7.60589 3.58166 8.10277Z" fill="#142DAD" stroke="#142DAD" stroke-width="0.2"/>
<path d="M5.79285 4.84654C5.80145 5.33485 5.35414 5.77176 4.86381 5.77176C4.38209 5.77176 3.96919 5.35198 3.96058 4.87224C3.95198 4.3925 4.35628 3.97273 4.83801 3.94703C5.32833 3.9299 5.78425 4.35824 5.79285 4.84654Z" fill="#142DAD" stroke="#142DAD" stroke-width="0.2"/>
</svg>
