<svg width="48" height="60" viewBox="0 0 48 60" fill="none" xmlns="http://www.w3.org/2000/svg">
<path d="M26.0366 35.9004L27.8849 37.7087L7.9548 59.091L6.10647 57.2827L26.0366 35.9004Z" fill="#54D8AF"/>
<path d="M15.3931 34.066C13.6655 32.0753 11.9247 30.1622 10.3148 28.1586C7.97199 25.2501 6.12652 22.0701 5.40666 18.3731C4.29414 12.6337 6.20505 7.99308 10.7729 4.39949C13.6916 2.11149 17.0161 0.650783 20.7332 0.211279C26.5576 -0.47383 32.094 0.431031 36.8189 4.05047C40.8894 7.17871 42.9966 11.4057 42.6825 16.5893C42.4731 20.0536 41.2166 23.2465 39.2402 26.0644C37.578 28.4429 35.5755 30.6017 33.7169 32.8509C33.3766 33.2646 33.0102 33.6653 32.6175 34.1177C33.2588 34.8028 33.8871 35.4879 34.5284 36.1472C38.7822 40.5422 43.0359 44.9243 47.2896 49.3064C48.2189 50.2759 48.232 50.5991 47.3551 51.5815C45.0646 54.1539 42.7741 56.7263 40.4836 59.2987C39.6722 60.2165 39.1879 60.2036 38.3633 59.3116C33.7038 54.2056 29.0313 49.1125 24.3718 44.0195C24.2671 43.9031 24.1755 43.7868 24.0315 43.6058C23.4163 44.278 22.8404 44.8856 22.2776 45.506C18.037 50.1467 13.8094 54.7744 9.56878 59.415C8.84891 60.2036 8.33847 60.1906 7.6186 59.4021C5.23651 56.7392 2.85441 54.0764 0.485408 51.4006C-0.195191 50.6379 -0.155925 50.2242 0.577027 49.4616C5.26268 44.6141 9.93525 39.7666 14.6078 34.9062C14.8696 34.6477 15.1052 34.3633 15.3931 34.066ZM8.56097 57.3985C8.69185 57.2563 8.7573 57.1917 8.80965 57.127C17.003 48.1043 25.2095 39.0815 33.3897 30.0588C35.0912 28.1844 36.8058 26.3101 38.023 24.0738C39.7245 20.9197 41.0203 17.6622 40.4967 13.9781C40.1826 11.7289 39.2926 9.73817 37.8005 7.9543C37.7351 8.0965 37.6827 8.18698 37.6435 8.27747C36.688 11.2635 35.065 13.9135 33.3112 16.4729C29.7904 21.5789 25.6283 26.1679 21.3876 30.6792C15.2753 37.1813 9.07142 43.5929 2.90677 50.0433C2.76279 50.1984 2.63191 50.3535 2.46176 50.5345C4.50356 52.8354 6.51917 55.0846 8.56097 57.3985ZM39.4366 57.3985C41.5045 55.0717 43.5202 52.8096 45.5227 50.5603C40.7192 45.5836 35.9812 40.6715 31.1909 35.7077C29.2669 37.8276 27.3429 39.9476 25.4058 42.0934C30.0914 47.1994 34.7247 52.2537 39.4366 57.3985ZM10.1054 7.66992C9.43789 8.69112 8.78347 9.54427 8.31229 10.4879C6.57153 13.991 6.87256 17.52 8.35155 21.036C10.2363 25.5345 13.7047 28.8954 16.8983 32.5665C18.8223 30.4466 20.6939 28.3654 22.5656 26.3101C20.9819 24.4357 19.4113 22.6518 17.9192 20.8033C14.7256 16.8607 11.7676 12.7759 10.1054 7.66992ZM33.9656 12.0003C34.5939 10.4879 35.2614 9.09184 35.7456 7.64406C36.1906 6.32555 35.9289 5.84727 34.7378 5.09753C30.9945 2.71904 26.8324 1.87881 22.4609 2.11149C18.8485 2.29246 15.5764 3.50756 12.6707 5.62752C12.4351 5.79556 12.2388 6.17043 12.2388 6.45482C12.2388 8.40673 13.3252 9.97085 14.1366 11.6513C21.0081 6.53238 28.4292 7.26919 33.9656 12.0003ZM23.9922 24.6942C24.5419 24.0738 25.0786 23.5438 25.5498 22.9491C27.7879 20.0924 30.0129 17.2227 32.251 14.3659C32.5782 13.9522 32.4866 13.6937 32.094 13.3705C28.1805 10.1647 23.8744 9.24696 19.0841 11.1859C17.6705 11.7547 16.3748 12.5045 15.1968 13.5386C17.8145 17.507 20.7725 21.1394 23.9922 24.6942Z" fill="#142DAD"/>
</svg>
