<svg width="17" height="17" viewBox="0 0 17 17" fill="none" xmlns="http://www.w3.org/2000/svg">
<path d="M15.9889 12.9103C15.9889 13.3336 16.0178 13.7569 15.9824 14.1737C15.9052 15.0876 15.1785 15.8219 14.2652 15.9727C13.8375 16.0432 13.4194 15.963 13.0046 15.8925C10.686 15.5045 8.57321 14.6195 6.69518 13.2085C3.90065 11.1082 2.11266 8.34083 1.29585 4.9514C1.16722 4.41909 1.07074 3.87396 1.01286 3.32883C0.906739 2.32194 1.45342 1.24771 2.80085 1.02966C2.99379 0.997595 3.19317 1.00401 3.39255 1.00401C4.03571 1.00721 4.67887 0.981562 5.31882 1.02966C6.23211 1.10021 7.05214 1.93394 7.17112 2.84783C7.24508 3.409 7.39623 3.95413 7.57631 4.48964C7.86895 5.35223 7.69208 6.11862 7.06822 6.77919C6.95888 6.89463 6.84311 7.01007 6.72734 7.11909C6.65981 7.18002 6.65338 7.23133 6.70483 7.30829C7.48949 8.50437 8.47995 9.49522 9.68266 10.2776C9.75984 10.329 9.81129 10.329 9.87239 10.2584C9.97208 10.1462 10.0814 10.0436 10.1908 9.94095C10.8693 9.2932 11.6507 9.11042 12.5383 9.42147C13.1043 9.62028 13.6863 9.74855 14.2813 9.84154C15.1045 9.97301 15.8956 10.7843 15.9792 11.6148C16.021 12.0445 15.9856 12.4774 15.9889 12.9103C15.9889 12.9103 15.9856 12.9103 15.9889 12.9103ZM14.635 12.9103C14.635 12.5415 14.6382 12.1728 14.635 11.804C14.6318 11.4513 14.4517 11.2428 14.1012 11.1947C13.368 11.0953 12.6508 10.9254 11.9594 10.6656C11.6829 10.5598 11.4546 10.6079 11.2455 10.826C10.9786 11.105 10.7021 11.3711 10.4287 11.6437C10.1393 11.9323 9.84988 11.974 9.49936 11.7719C7.6953 10.717 6.26427 9.29 5.2127 7.48786C5.01332 7.14795 5.05512 6.85615 5.3349 6.57396C5.61789 6.28857 5.90088 6.00318 6.18709 5.7242C6.37682 5.53821 6.42506 5.32337 6.33501 5.07966C6.0681 4.36779 5.89123 3.63667 5.78511 2.88311C5.74009 2.56244 5.53749 2.37966 5.21913 2.37646C4.46342 2.37004 3.7077 2.36684 2.95199 2.37646C2.62398 2.37966 2.31204 2.74843 2.35707 3.06909C2.42781 3.56612 2.49213 4.06315 2.60147 4.55057C3.86528 10.1943 8.6311 14.0904 13.8857 14.6355C14.2266 14.6708 14.6639 14.3116 14.6382 13.9621C14.6157 13.6158 14.635 13.2598 14.635 12.9103Z" fill="#142DAD"/>
<path d="M15.9889 12.9103C15.9889 13.3336 16.0178 13.7569 15.9824 14.1737C15.9052 15.0876 15.1785 15.8219 14.2652 15.9727C13.8375 16.0432 13.4194 15.963 13.0046 15.8925C10.686 15.5045 8.57321 14.6195 6.69518 13.2085C3.90065 11.1082 2.11266 8.34083 1.29585 4.9514C1.16722 4.41909 1.07074 3.87396 1.01286 3.32883C0.906739 2.32194 1.45342 1.24771 2.80085 1.02966C2.99379 0.997595 3.19317 1.00401 3.39255 1.00401C4.03571 1.00721 4.67887 0.981562 5.31882 1.02966C6.23211 1.10021 7.05214 1.93394 7.17112 2.84783C7.24508 3.409 7.39623 3.95413 7.57631 4.48964C7.86895 5.35223 7.69208 6.11862 7.06822 6.77919C6.95888 6.89463 6.84311 7.01007 6.72734 7.11909C6.65981 7.18002 6.65338 7.23133 6.70483 7.30829C7.48949 8.50437 8.47995 9.49522 9.68266 10.2776C9.75984 10.329 9.81129 10.329 9.87239 10.2584C9.97208 10.1462 10.0814 10.0436 10.1908 9.94095C10.8693 9.2932 11.6507 9.11042 12.5383 9.42147C13.1043 9.62028 13.6863 9.74855 14.2813 9.84154C15.1045 9.97301 15.8956 10.7843 15.9792 11.6148C16.021 12.0445 15.9856 12.4774 15.9889 12.9103ZM15.9889 12.9103C15.9856 12.9103 15.9889 12.9103 15.9889 12.9103ZM14.635 12.9103C14.635 12.5415 14.6382 12.1728 14.635 11.804C14.6318 11.4513 14.4517 11.2428 14.1012 11.1947C13.368 11.0953 12.6508 10.9254 11.9595 10.6656C11.6829 10.5598 11.4546 10.6079 11.2455 10.826C10.9786 11.105 10.7021 11.3711 10.4287 11.6437C10.1393 11.9323 9.84988 11.974 9.49936 11.7719C7.6953 10.717 6.26427 9.29 5.2127 7.48786C5.01332 7.14795 5.05512 6.85615 5.3349 6.57396C5.61789 6.28857 5.90088 6.00318 6.18709 5.7242C6.37682 5.53821 6.42505 5.32337 6.33501 5.07966C6.0681 4.36779 5.89123 3.63667 5.78511 2.88311C5.74009 2.56244 5.53749 2.37966 5.21913 2.37646C4.46342 2.37004 3.7077 2.36684 2.95199 2.37646C2.62398 2.37966 2.31204 2.74843 2.35707 3.06909C2.42781 3.56612 2.49213 4.06315 2.60147 4.55056C3.86528 10.1943 8.6311 14.0904 13.8857 14.6355C14.2266 14.6708 14.6639 14.3116 14.6382 13.9621C14.6157 13.6158 14.635 13.2598 14.635 12.9103Z" stroke="#142DAD" stroke-width="0.1"/>
</svg>
