<svg width="60" height="54" viewBox="0 0 60 54" fill="none" xmlns="http://www.w3.org/2000/svg">
<path d="M5.05528 6.37893C5.07874 6.09543 5.1022 5.871 5.1022 5.64656C5.1022 4.14638 5.1022 2.65802 5.1022 1.15784C5.1022 0.437281 5.4658 0.000221853 6.00534 0.0120343C6.54489 0.0356591 6.86157 0.460906 6.86157 1.19328C6.86157 1.33503 6.86157 1.46496 6.86157 1.60671C6.86157 2.94151 6.86157 4.28813 6.86157 5.62293C6.86157 5.83556 6.86157 6.04818 6.86157 6.33168C7.08443 6.34349 7.2721 6.36712 7.45976 6.36712C9.84079 6.36712 12.2335 6.35531 14.6146 6.37893C15.1072 6.37893 15.2597 6.23718 15.2362 5.74106C15.201 5.00869 15.2245 4.28813 15.2362 3.55576C15.2479 2.96514 15.5998 2.57533 16.1042 2.58714C16.6085 2.58714 16.9487 2.97695 16.9604 3.56757C16.9721 4.33538 16.9721 5.10319 16.9604 5.871C16.9487 6.21356 17.0425 6.36712 17.4178 6.36712C21.6169 6.3553 25.8277 6.3553 30.0267 6.3553C30.1206 6.3553 30.2144 6.33168 30.3786 6.30805C30.3786 5.80012 30.3786 5.31581 30.3786 4.8315C30.3786 3.61482 30.3786 2.38633 30.3786 1.16965C30.3786 0.449094 30.7187 0.0120343 31.2583 0.000221853C31.8096 -0.0115906 32.1849 0.449094 32.1849 1.19328C32.1849 2.66983 32.1849 4.14638 32.1849 5.62293C32.1849 5.83556 32.1849 6.04818 32.1849 6.3553C32.5133 6.3553 32.8065 6.3553 33.088 6.3553C34.5542 6.3553 36.0203 6.34349 37.4865 6.36712C37.8618 6.36712 38.0143 6.24899 38.0026 5.85918C37.9791 5.46937 37.9908 5.06775 38.0026 4.67794C38.026 4.15819 38.3662 3.85107 38.8705 3.85107C39.3749 3.85107 39.7033 4.15819 39.7268 4.68975C39.7502 5.07956 39.7502 5.48119 39.7268 5.871C39.715 6.21356 39.8323 6.36712 40.1959 6.3553C40.9935 6.33168 41.8028 6.34349 42.6004 6.3553C42.9288 6.36712 43.0578 6.24899 43.0461 5.90643C43.0344 5.51662 43.0344 5.115 43.0461 4.72519C43.0696 4.15819 43.398 3.83926 43.9258 3.83926C44.4419 3.83926 44.7468 4.13457 44.7703 4.67794C44.7938 5.06775 44.7938 5.46937 44.782 5.85918C44.7703 6.20174 44.8876 6.34349 45.2512 6.34349C48.5706 6.33168 51.9016 6.33168 55.221 6.34349C55.5729 6.34349 55.7136 6.23718 55.7019 5.871C55.6902 5.10319 55.6902 4.33538 55.7019 3.56757C55.7136 2.96514 56.042 2.57533 56.5347 2.56352C57.0625 2.53989 57.4261 2.94151 57.4261 3.56757C57.4378 4.31176 57.4496 5.06775 57.4261 5.81193C57.4144 6.23718 57.5668 6.37893 57.9656 6.34349C58.2941 6.31987 58.6342 6.33168 58.9626 6.34349C59.6195 6.36712 59.9596 6.70968 59.9948 7.37117C60.0065 7.51292 59.9948 7.64286 59.9948 7.78461C59.9948 22.7037 59.9948 37.6228 59.9948 52.5419C59.9948 53.7467 59.7485 53.9948 58.5521 53.9948C39.5156 53.9948 20.4792 53.9948 1.44269 53.9948C0.246313 54.042 0 53.7822 0 52.5891C0 37.67 0 22.7391 0 7.82004C0 6.62699 0.246313 6.37893 1.43096 6.37893C2.62734 6.37893 3.81199 6.37893 5.05528 6.37893ZM58.1533 23.9322C57.6489 24.133 57.2267 24.2747 56.8162 24.4519C54.1067 25.6214 51.3856 25.6922 48.6057 24.7C47.7495 24.3929 46.8464 24.1803 45.9432 24.0503C44.3598 23.8141 42.8467 24.2511 41.3688 24.7945C38.8353 25.7395 36.3018 25.7041 33.7566 24.8063C32.8065 24.4637 31.8213 24.2039 30.8243 24.0503C29.2174 23.8023 27.6926 24.2511 26.1913 24.7827C23.7985 25.6332 21.394 25.6214 19.0365 24.7236C16.89 23.9086 14.767 23.8495 12.6441 24.6646C9.85252 25.7277 7.09616 25.7513 4.31634 24.6646C3.53048 24.3574 2.70944 24.133 1.86494 23.8495C1.86494 33.3349 1.86494 42.7494 1.86494 52.1521C20.6551 52.1521 39.3866 52.1521 58.1533 52.1521C58.1533 42.7612 58.1533 33.3939 58.1533 23.9322ZM58.1768 18.4158C39.3397 18.4158 20.6082 18.4158 1.81802 18.4158C1.81802 19.4553 1.82975 20.4593 1.80629 21.4634C1.79457 21.8296 1.94704 21.9831 2.26373 22.0776C3.15515 22.3611 4.0583 22.621 4.92626 22.9754C7.30728 23.9322 9.66485 23.9204 12.0459 22.999C14.5676 22.0304 17.1129 22.054 19.6464 23.0344C21.6638 23.8141 23.6578 23.755 25.7104 23.0935C26.9771 22.6801 28.3025 22.3966 29.6279 22.2312C31.2466 22.0304 32.8065 22.5147 34.3079 23.0817C36.5247 23.9322 38.6946 23.8849 40.9349 23.0699C42.0961 22.6446 43.3276 22.3848 44.5592 22.2312C46.3186 22.0068 47.9841 22.5383 49.6379 23.1171C50.8695 23.5424 52.1245 23.7078 53.4382 23.5424C55.0451 23.3416 56.4408 22.5974 57.9187 22.0422C58.036 21.995 58.165 21.8178 58.165 21.6996C58.1768 20.6247 58.1768 19.538 58.1768 18.4158ZM1.84148 11.4228C20.6434 11.4228 39.3866 11.4228 58.1181 11.4228C58.1181 10.3361 58.1181 9.28478 58.1181 8.24529C39.328 8.24529 20.5965 8.24529 1.84148 8.24529C1.84148 9.32022 1.84148 10.3479 1.84148 11.4228ZM15.8579 13.301C14.767 13.301 13.7231 13.301 12.6675 13.3128C12.5737 13.3128 12.3977 13.4546 12.3977 13.5373C12.3743 14.5295 12.386 15.5217 12.386 16.514C13.5941 16.514 14.7084 16.514 15.8579 16.514C15.8579 15.4272 15.8579 14.3878 15.8579 13.301ZM19.4235 16.5494C19.8692 16.5494 20.315 16.5376 20.7724 16.5494C21.0773 16.5612 21.1829 16.4195 21.1829 16.136C21.1712 15.3327 21.1712 14.5295 21.1829 13.7263C21.1829 13.3955 21.0539 13.2774 20.7255 13.2892C19.8458 13.301 18.9778 13.301 18.0981 13.2892C17.7697 13.2892 17.6524 13.4191 17.6642 13.7381C17.6759 14.5177 17.6876 15.3091 17.6642 16.0887C17.6524 16.4549 17.8049 16.573 18.1451 16.5494C18.5673 16.5376 19.0013 16.5494 19.4235 16.5494ZM26.461 16.5494C26.461 15.5217 26.4728 14.5413 26.4493 13.5727C26.4493 13.4782 26.2265 13.3128 26.0974 13.301C25.1591 13.2774 24.2208 13.2774 23.2942 13.301C23.1769 13.301 22.9657 13.5254 22.9657 13.6436C22.9423 14.4823 22.9306 15.3327 22.9657 16.1714C22.9657 16.3014 23.1769 16.514 23.2824 16.5258C24.3146 16.5612 25.3468 16.5494 26.461 16.5494ZM29.9915 16.5494C30.4372 16.5494 30.8947 16.5376 31.3404 16.5494C31.6453 16.5612 31.7626 16.4313 31.7626 16.136C31.7509 15.3327 31.7509 14.5295 31.7626 13.7144C31.7626 13.3837 31.6336 13.2656 31.3052 13.2774C30.4255 13.2892 29.5458 13.2892 28.6779 13.2774C28.3494 13.2774 28.2322 13.3955 28.2322 13.7263C28.2439 14.5177 28.2439 15.2973 28.2322 16.0887C28.2204 16.4549 28.3729 16.573 28.713 16.5494C29.1353 16.5376 29.5693 16.5494 29.9915 16.5494ZM35.2814 16.5494C35.7154 16.5494 36.1376 16.5376 36.5716 16.5494C36.9352 16.573 37.0525 16.4195 37.0408 16.0651C37.029 15.2973 37.029 14.5295 37.0408 13.7617C37.0525 13.4191 36.9352 13.2656 36.5716 13.2774C35.7154 13.301 34.8474 13.301 33.9912 13.2774C33.6276 13.2656 33.5103 13.4191 33.5103 13.7617C33.522 14.5295 33.522 15.2973 33.5103 16.0651C33.4986 16.4077 33.6158 16.573 33.9795 16.5494C34.4134 16.5376 34.8474 16.5494 35.2814 16.5494ZM40.5595 13.2892C40.1255 13.2892 39.7033 13.301 39.2693 13.2892C38.9526 13.2774 38.8001 13.3837 38.8119 13.7263C38.8236 14.5295 38.8236 15.3446 38.8119 16.1478C38.8119 16.4431 38.9292 16.5731 39.2341 16.5612C40.1373 16.5494 41.0287 16.5494 41.9318 16.5612C42.2485 16.5612 42.3306 16.4195 42.3306 16.136C42.3189 15.3327 42.3189 14.5177 42.3306 13.7144C42.3306 13.4191 42.2133 13.2892 41.9084 13.301C41.4627 13.301 41.0052 13.2892 40.5595 13.2892ZM5.24295 13.3364C4.09349 13.3364 2.97921 13.3364 1.84148 13.3364C1.84148 14.4114 1.84148 15.4509 1.84148 16.5022C2.99094 16.5022 4.10522 16.5022 5.24295 16.5022C5.24295 15.4272 5.24295 14.3996 5.24295 13.3364ZM10.5328 16.5494C10.5328 15.4154 10.5328 14.3759 10.5328 13.3364C9.37162 13.3364 8.25735 13.3364 7.14307 13.3364C7.14307 14.4232 7.14307 15.4509 7.14307 16.5494C8.08141 16.5494 8.97283 16.5494 9.86425 16.5494C10.0754 16.5494 10.2865 16.5494 10.5328 16.5494ZM44.1487 16.5494C45.2395 16.5494 46.2716 16.5612 47.3038 16.5376C47.4094 16.5376 47.5853 16.3014 47.597 16.1596C47.6322 15.5572 47.6205 14.9429 47.6088 14.3287C47.597 13.1238 47.7495 13.301 46.5883 13.2892C45.779 13.2774 44.9697 13.2892 44.1487 13.2892C44.1487 14.4232 44.1487 15.4391 44.1487 16.5494ZM49.4502 16.5022C50.5997 16.5022 51.714 16.5022 52.8869 16.5022C52.8869 15.5099 52.8986 14.5767 52.8752 13.6318C52.8752 13.5136 52.7344 13.3128 52.6523 13.3128C51.585 13.2892 50.5293 13.301 49.462 13.301C49.4502 14.4232 49.4502 15.4509 49.4502 16.5022ZM58.1298 16.5258C58.1298 15.4154 58.1298 14.3878 58.1298 13.3483C56.9687 13.3483 55.8544 13.3483 54.7518 13.3483C54.7518 14.435 54.7518 15.4627 54.7518 16.5612C55.7019 16.5612 56.605 16.5612 57.5199 16.5612C57.7076 16.5494 57.8953 16.5376 58.1298 16.5258Z" fill="#142DAD"/>
<path d="M52.3823 32.8033C52.3706 34.7051 50.8458 36.2171 48.934 36.2053C47.0573 36.1935 45.4973 34.6224 45.5208 32.7324C45.5325 30.8543 47.0925 29.2832 48.9691 29.2832C50.8693 29.295 52.3823 30.8543 52.3823 32.8033ZM48.9809 34.3744C49.9075 34.3625 50.5878 33.6538 50.5643 32.697C50.5409 31.7993 49.8371 31.1141 48.934 31.1259C48.0543 31.1378 47.3388 31.8701 47.3271 32.7442C47.3271 33.6656 48.0543 34.3862 48.9809 34.3744Z" fill="#54D8AF"/>
<path d="M20.2793 32.7323C20.2793 30.8187 21.8041 29.2949 23.6925 29.2949C25.5692 29.2949 27.1291 30.8423 27.1409 32.7323C27.1526 34.6223 25.5692 36.217 23.669 36.2052C21.7924 36.1934 20.2793 34.6459 20.2793 32.7323ZM23.6808 31.1258C22.7542 31.1258 22.0739 31.8346 22.0856 32.7796C22.0973 33.7128 22.8011 34.3861 23.7394 34.3743C24.6074 34.3625 25.3228 33.6301 25.3228 32.7442C25.3228 31.8464 24.5956 31.1258 23.6808 31.1258Z" fill="#142DAD"/>
<path d="M44.7932 44.2022C44.7932 46.1512 43.2802 47.675 41.3449 47.6632C39.4565 47.6514 37.9669 46.1158 37.9786 44.1903C37.9903 42.2649 39.5034 40.7529 41.3918 40.7529C43.2802 40.7529 44.7932 42.2885 44.7932 44.2022ZM41.3918 45.8323C42.2832 45.8205 43.0339 45.0527 43.0104 44.1785C42.9869 43.3162 42.248 42.5957 41.38 42.5839C40.4769 42.5839 39.7262 43.328 39.7262 44.214C39.738 45.0999 40.5004 45.8441 41.3918 45.8323Z" fill="#142DAD"/>
<path d="M7.61237 32.7205C7.6241 30.8069 9.13717 29.2949 11.0373 29.2949C12.914 29.2949 14.4739 30.866 14.4739 32.756C14.4739 34.6578 12.8905 36.2288 10.9786 36.217C9.10198 36.1934 7.60064 34.6459 7.61237 32.7205ZM11.049 31.1258C10.1224 31.114 9.41867 31.811 9.40694 32.7323C9.39521 33.6655 10.099 34.3625 11.0256 34.3743C11.8935 34.3743 12.6207 33.6655 12.6559 32.7914C12.6794 31.8937 11.9522 31.1377 11.049 31.1258Z" fill="#54D8AF"/>
<path d="M39.7153 32.8035C39.7036 34.7053 38.1671 36.2173 36.267 36.2055C34.402 36.1936 32.842 34.5872 32.8655 32.7208C32.9007 30.7954 34.4607 29.2716 36.3843 29.2952C38.2609 29.3188 39.7388 30.8662 39.7153 32.8035ZM36.3139 34.3745C37.217 34.3863 37.9442 33.6422 37.9442 32.7326C37.9325 31.8467 37.2288 31.1261 36.3491 31.1261C35.4342 31.1143 34.6952 31.8349 34.6835 32.7326C34.6601 33.6185 35.4107 34.3627 36.3139 34.3745Z" fill="#142DAD"/>
<path d="M16.0812 40.7529C17.9578 40.7529 19.5178 42.3004 19.5296 44.1903C19.5413 46.1158 17.9813 47.675 16.0694 47.675C14.181 47.675 12.6562 46.1158 12.6562 44.214C12.668 42.3004 14.1928 40.7529 16.0812 40.7529ZM16.0577 45.8323C16.9726 45.8441 17.6998 45.1235 17.7115 44.214C17.7115 43.3162 17.0078 42.5957 16.1281 42.5957C15.2015 42.5839 14.4977 43.2926 14.4977 44.2258C14.486 45.1235 15.1663 45.8205 16.0577 45.8323Z" fill="#142DAD"/>
<path d="M25.3233 44.214C25.3233 42.2768 26.8598 40.7412 28.7834 40.753C30.6366 40.7648 32.2083 42.3713 32.1849 44.2495C32.1614 46.1513 30.6014 47.6751 28.7248 47.6751C26.8246 47.6633 25.3116 46.1277 25.3233 44.214ZM28.7482 45.8323C29.6279 45.8205 30.3551 45.1 30.3669 44.2258C30.3786 43.3281 29.6162 42.5839 28.713 42.5957C27.7982 42.6075 27.0944 43.3399 27.1179 44.2731C27.1413 45.159 27.8451 45.8442 28.7482 45.8323Z" fill="#54D8AF"/>
</svg>
