<svg width="57" height="60" viewBox="0 0 57 60" fill="none" xmlns="http://www.w3.org/2000/svg">
<path d="M30.6563 19.762C28.9181 19.762 27.2893 19.762 25.5754 19.762C25.5754 20.9231 25.5754 22.0237 25.5754 23.1364C25.5633 24.7328 25.5633 24.7328 23.9467 24.7328C22.087 24.7328 20.2151 24.7207 18.3553 24.7449C17.8448 24.757 17.6868 24.5877 17.699 24.0918C17.7233 22.9066 17.699 21.7092 17.699 20.524C17.699 20.2821 17.699 20.0523 17.699 19.762C15.9851 19.762 14.3563 19.762 12.6789 19.762C12.6546 19.5081 12.6303 19.3146 12.6303 19.121C12.6303 17.0045 12.6425 14.888 12.6182 12.7715C12.6182 12.2878 12.7883 12.1547 13.2502 12.1668C14.5265 12.191 15.8028 12.1547 17.0791 12.1789C17.6017 12.191 17.7233 12.0096 17.7111 11.5137C17.6868 10.268 17.7233 9.01021 17.7111 7.7645C17.699 7.31701 17.857 7.17188 18.3067 7.17188C20.5311 7.18397 22.7676 7.18397 24.992 7.17188C25.4539 7.17188 25.5876 7.3412 25.5754 7.77659C25.5511 9.04649 25.5755 10.3164 25.5633 11.5863C25.5511 12.0217 25.697 12.191 26.1589 12.1789C27.4716 12.1547 28.7965 12.1668 30.1093 12.1668C30.3645 12.1668 30.6563 12.1184 30.6563 12.5297C30.6563 14.9122 30.6563 17.2948 30.6563 19.762ZM23.8616 17.9842C25.6119 17.9842 27.265 17.9842 28.9667 17.9842C28.9667 16.7506 28.9424 15.5774 28.9789 14.4164C28.991 13.9447 28.7965 13.8358 28.3711 13.8479C27.1191 13.8721 25.855 13.86 24.603 13.86C24.3721 13.86 24.1412 13.8358 23.8737 13.8237C23.8737 12.324 23.8616 10.8848 23.8859 9.4577C23.8981 8.99811 23.7522 8.86508 23.3025 8.87717C22.1842 8.90136 21.0781 8.90136 19.9598 8.87717C19.5465 8.86508 19.4371 9.0344 19.4493 9.40932C19.4736 10.1713 19.4493 10.9453 19.4493 11.7072C19.4493 12.4087 19.4493 13.0981 19.4493 13.8479C19.1333 13.8479 18.9145 13.8479 18.6957 13.8479C17.4194 13.8479 16.1431 13.86 14.8668 13.8479C14.4779 13.8479 14.332 13.981 14.3442 14.368C14.3685 15.1299 14.3442 15.904 14.3442 16.6659C14.3442 17.1013 14.3442 17.5367 14.3442 18.0326C16.1067 18.0326 17.7476 18.0326 19.4493 18.0326C19.4493 19.5685 19.4615 21.0319 19.4371 22.5075C19.4371 22.9308 19.5709 23.0759 19.9963 23.0638C21.0538 23.0396 22.0991 23.0275 23.1566 23.0638C23.7036 23.088 23.8981 22.9428 23.8859 22.3623C23.8373 20.9473 23.8616 19.5202 23.8616 17.9842Z" fill="#54D8AF"/>
<path d="M0.0246156 29.9939C0.0246156 22.2293 0.0610808 14.4769 0.0124606 6.71234C-0.0240046 3.49525 2.30977 0.846601 4.95957 0.217698C5.47008 0.0967544 5.99275 0.0120943 6.51541 0.0120943C21.1623 0 35.7969 0.0120943 50.4438 0C53.9201 0 56.8981 2.93892 56.9467 6.05925C57.0075 10.1108 57.0318 14.1624 56.9346 18.214C56.8738 20.9957 54.4914 23.5839 51.7444 24.0435C50.8206 24.2007 49.8482 24.1644 48.9001 24.1765C47.7818 24.2007 46.6757 24.1886 45.5574 24.1765C44.8768 24.1765 44.4635 23.8258 44.4392 23.2453C44.427 22.6889 44.9011 22.2656 45.5818 22.2656C47.1619 22.2656 48.7421 22.2656 50.3222 22.2656C53.2273 22.2656 55.0384 20.5482 55.0749 17.6456C55.1113 13.9568 55.1113 10.2681 55.0749 6.5793C55.0505 3.65248 53.2394 1.94718 50.2979 1.9109C48.8272 1.88671 47.4172 1.99556 46.0923 2.73331C44.427 3.66458 43.4546 5.07961 43.2358 6.90585C43.0049 8.79256 42.9076 10.7156 42.9076 12.6265C42.8833 26.1237 42.8833 39.633 42.9076 53.1303C42.9076 55.0896 42.2877 56.7586 40.8778 58.1131C39.6258 59.3226 38.1186 59.9757 36.3561 59.9757C26.4862 59.9757 16.6284 59.9273 6.75852 59.9999C3.19708 60.024 -0.0361596 57.0247 0.000305518 53.2633C0.0732358 46.297 0.0246156 39.3186 0.0246156 32.3402C0.0246156 31.5661 0.0246156 30.78 0.0246156 29.9939ZM43.8679 1.92299C43.4789 1.92299 43.2601 1.92299 43.0414 1.92299C35.9671 1.92299 28.905 1.92299 21.8308 1.92299C16.6892 1.92299 11.5355 1.92299 6.39386 1.92299C4.40043 1.92299 2.7595 3.04777 2.20037 4.87401C1.99373 5.53919 1.93296 6.25276 1.93296 6.95423C1.9208 15.1784 1.9208 23.4025 1.9208 31.6266C1.9208 38.8227 1.9208 46.0188 1.9208 53.215C1.9208 56.1418 3.68329 58.0648 6.39386 58.0648C16.4461 58.0769 26.4862 58.0769 36.5384 58.0527C37.1826 58.0527 37.8755 57.8834 38.4589 57.6173C40.3794 56.7465 40.975 55.1017 40.975 53.1182C40.9628 42.4752 40.9507 31.8322 40.975 21.1892C40.9871 16.7143 41.0236 12.2394 41.1695 7.77664C41.2546 5.57548 42.0082 3.56782 43.8679 1.92299Z" fill="#142DAD"/>
<path d="M21.4049 31.4814C17.4545 31.4814 13.5041 31.4814 9.55375 31.4814C8.58134 31.4814 8.08298 31.1428 8.10729 30.5139C8.1316 29.8971 8.60565 29.5947 9.54159 29.5947C17.4424 29.5947 25.3432 29.5947 33.2439 29.5947C33.4627 29.5947 33.6937 29.5947 33.9125 29.6189C34.423 29.7036 34.7026 30.018 34.7026 30.526C34.7026 31.0339 34.4351 31.3605 33.9246 31.4452C33.6451 31.4935 33.3655 31.4814 33.0738 31.4814C29.1842 31.4814 25.2945 31.4814 21.4049 31.4814Z" fill="#142DAD"/>
<path d="M13.5296 51.9929C12.4964 51.9929 11.4632 51.9929 10.43 51.9929C9.79796 51.9929 9.32391 51.5696 9.31176 51.0375C9.2996 50.4932 9.76149 50.082 10.4179 50.082C12.5207 50.082 14.6235 50.082 16.7263 50.082C17.3949 50.082 17.8081 50.469 17.7838 51.0496C17.7717 51.6059 17.3706 51.9808 16.7385 51.9808C15.681 51.9929 14.5992 51.9929 13.5296 51.9929Z" fill="#54D8AF"/>
<path d="M13.5296 47.0466C12.4964 47.0466 11.4632 47.0466 10.43 47.0466C9.79796 47.0466 9.32391 46.6233 9.31176 46.0912C9.2996 45.5469 9.76149 45.1357 10.4179 45.1357C12.5207 45.1357 14.6235 45.1357 16.7263 45.1357C17.3949 45.1357 17.8081 45.5228 17.7838 46.1033C17.7717 46.6596 17.3706 47.0345 16.7385 47.0345C15.681 47.0587 14.5992 47.0466 13.5296 47.0466Z" fill="#54D8AF"/>
<path d="M13.5296 42.1004C12.4964 42.1004 11.4632 42.1004 10.43 42.1004C9.79796 42.1004 9.32391 41.6771 9.31176 41.1449C9.2996 40.6007 9.76149 40.1895 10.4179 40.1895C12.5207 40.1895 14.6235 40.1895 16.7263 40.1895C17.3949 40.1895 17.8081 40.5765 17.7838 41.157C17.7717 41.7133 17.3706 42.0883 16.7385 42.0883C15.681 42.1124 14.5992 42.1004 13.5296 42.1004Z" fill="#54D8AF"/>
<path d="M13.5296 36.7908C12.4964 36.7908 11.4632 36.7908 10.43 36.7908C9.79796 36.7908 9.32391 36.3675 9.31176 35.8353C9.2996 35.2911 9.76149 34.8799 10.4179 34.8799C12.5207 34.8799 14.6235 34.8799 16.7263 34.8799C17.3949 34.8799 17.8081 35.2669 17.7838 35.8474C17.7717 36.4038 17.3706 36.7787 16.7385 36.7787C15.681 36.8029 14.5992 36.7908 13.5296 36.7908Z" fill="#54D8AF"/>
<path d="M25.0635 45.7042C25.0635 46.2968 25.0635 46.8773 25.0635 47.47C26.4371 47.47 27.8106 47.47 29.1963 47.47C29.1963 47.99 29.1963 48.498 29.1963 49.018C27.8227 49.018 26.4492 49.018 25.0514 49.018C25.0514 50.1912 25.0514 51.3401 25.0514 52.5012C24.3586 52.5012 23.6657 52.5012 22.9729 52.5012C22.9729 51.3522 22.9729 50.1912 22.9729 49.018C22.3773 49.018 21.7938 49.018 21.1982 49.018C21.1982 48.498 21.1982 47.99 21.1982 47.47C21.7817 47.47 22.3651 47.47 22.9607 47.47C22.9607 46.8652 22.9607 46.2726 22.9607 45.68C22.3773 45.68 21.7938 45.68 21.1982 45.68C21.1982 45.1599 21.1982 44.652 21.1982 44.1319C21.7817 44.1319 22.3651 44.1319 22.9607 44.1319C22.9607 41.1567 22.9607 38.1936 22.9607 35.2184C23.2889 35.158 23.6049 35.0975 23.9331 35.0491C24.9663 34.8919 26.0116 34.8677 27.057 34.8556C28.078 34.8435 29.0869 34.9282 30.0593 35.2426C31.7975 35.7989 32.8671 36.9842 33.2074 38.7741C33.4141 39.8264 33.4019 40.8786 33.1102 41.9187C32.6361 43.5877 31.5057 44.652 29.8891 45.2204C29.1112 45.4865 28.2968 45.6195 27.4581 45.6558C26.7045 45.6921 25.9509 45.6921 25.1973 45.7042C25.1729 45.7042 25.1243 45.7042 25.0635 45.7042ZM25.0635 43.9868C25.7199 43.9868 26.352 43.9868 26.9962 43.9868C27.531 43.9868 28.0658 43.9384 28.5885 43.8054C29.8162 43.503 30.6549 42.7653 30.9952 41.5558C31.2262 40.7092 31.2262 39.8264 31.0317 38.9798C30.8372 38.1211 30.3267 37.4801 29.5366 37.0809C28.9653 36.7907 28.3333 36.6697 27.7012 36.6456C27.1056 36.6214 26.51 36.6456 25.9144 36.6697C25.6348 36.6818 25.3674 36.7302 25.0757 36.7544C25.0636 39.1612 25.0635 41.5679 25.0635 43.9868Z" fill="#142DAD"/>
</svg>
