<svg width="23" height="30" viewBox="0 0 23 30" fill="none" xmlns="http://www.w3.org/2000/svg">
<path d="M0.00273534 11.3295C0.0310322 5.57442 4.50193 0.629317 10.1896 0.0609144C16.5422 -0.564329 22.0035 3.68448 22.8949 10.008C23.2061 12.2389 22.8241 14.3989 21.7771 16.4025C19.2021 21.376 15.665 25.6533 11.9015 29.7458C11.5761 30.101 11.3498 30.0726 11.0385 29.7315C7.33161 25.6817 3.8511 21.4755 1.27609 16.573C0.413039 14.9389 -0.0397099 13.191 0.00273534 11.3295ZM11.4771 15.1662C13.8257 15.1662 15.7075 13.2621 15.6792 10.9316C15.6509 8.62959 13.755 6.76807 11.4629 6.76807C9.18505 6.76807 7.27502 8.71485 7.30332 10.9885C7.30332 13.3189 9.15676 15.1662 11.4771 15.1662Z" fill="#54D8AF"/>
</svg>
