<svg width="18" height="18" viewBox="0 0 18 18" fill="none" xmlns="http://www.w3.org/2000/svg">
<path d="M6.28719 6.32605C7.35883 8.83369 9.2092 10.534 11.674 11.6985C11.874 11.3699 12.074 11.0698 12.2455 10.7483C12.4741 10.3268 12.7742 10.0982 13.2957 10.1339C13.9316 10.184 14.5817 10.1411 15.2247 10.1482C16.2463 10.1482 16.9964 10.9055 16.9964 11.9343C16.9964 13.0274 16.9964 14.1276 16.9964 15.2207C16.9964 16.2209 16.2034 17.021 15.2032 16.9996C11.1739 16.9138 7.72319 15.4636 4.92264 12.5558C2.92224 10.484 1.672 8.00495 1.18619 5.16868C1.0433 4.3328 1.01472 3.48263 1.00044 2.63961C0.986147 1.76801 1.77202 1.01786 2.65791 1.01072C3.83671 0.996428 5.01551 0.996428 6.19432 1.01072C7.08735 1.025 7.84464 1.79659 7.85179 2.68962C7.85893 3.40405 7.8375 4.11847 7.85893 4.8329C7.87322 5.28299 7.68032 5.58305 7.30882 5.79737C6.99447 5.97598 6.65869 6.13315 6.28719 6.32605ZM4.42254 2.14665C3.87243 2.14665 3.32947 2.13951 2.77936 2.14665C2.35785 2.1538 2.11494 2.36813 2.13637 2.77535C2.1721 3.53264 2.17924 4.30422 2.32212 5.04723C2.90081 8.16212 4.40825 10.7626 6.84444 12.7988C9.25206 14.8063 12.0383 15.8136 15.1747 15.8636C15.6676 15.8708 15.8605 15.6707 15.8677 15.1706C15.8677 14.0847 15.8748 13.0059 15.8677 11.92C15.8677 11.4985 15.6533 11.2913 15.2247 11.2913C14.6746 11.2842 14.1316 11.2985 13.5815 11.2842C13.3529 11.277 13.2243 11.3485 13.1028 11.5485C12.8671 11.97 12.6027 12.3772 12.3169 12.7702C12.1383 13.0202 11.8669 13.0631 11.5811 12.9273C11.2667 12.7773 10.9524 12.6487 10.6452 12.4915C8.08755 11.1556 6.16574 9.22662 5.10124 6.50466C4.89406 5.97598 5.00122 5.69021 5.50132 5.42587C5.82996 5.25441 6.17288 5.11867 6.48723 4.93292C6.5944 4.87576 6.69441 4.71145 6.70156 4.59714C6.72299 4.00416 6.71585 3.40404 6.7087 2.81107C6.7087 2.36098 6.50866 2.1538 6.05858 2.14665C5.51561 2.13951 4.97265 2.14665 4.42254 2.14665Z" fill="#142DAD" stroke="#142DAD" stroke-width="0.4"/>
<path d="M10.1451 1.08936C11.0881 1.23224 11.974 1.51087 12.7885 1.96096C15.0675 3.23263 16.432 5.16159 16.9035 7.72638C16.9678 8.0693 16.7821 8.36936 16.4677 8.42651C16.132 8.49081 15.8605 8.31221 15.7962 7.95499C15.5104 6.34753 14.7888 4.97584 13.5672 3.88276C12.6456 3.06117 11.5739 2.51821 10.3594 2.28245C10.2165 2.25387 10.0736 2.23958 9.94504 2.18243C9.6807 2.06098 9.54496 1.8395 9.60926 1.54659C9.66641 1.26082 9.87359 1.11079 10.1451 1.08936Z" fill="#142DAD" stroke="#142DAD" stroke-width="0.4"/>
<path d="M13.6101 7.94796C13.4457 8.11228 13.31 8.33375 13.1171 8.41234C12.8313 8.53379 12.5956 8.37662 12.4384 8.10514C12.2026 7.69791 11.9883 7.26926 11.7025 6.89061C11.2667 6.31193 10.6738 5.91899 10.0236 5.5975C9.83789 5.50463 9.64499 5.28315 9.60212 5.08311C9.50925 4.69732 9.96648 4.3544 10.3594 4.51872C11.8454 5.14027 12.8956 6.20476 13.51 7.69792C13.5315 7.75507 13.5386 7.81222 13.5529 7.86938C13.5672 7.89795 13.5886 7.91939 13.6101 7.94796Z" fill="#142DAD" stroke="#142DAD" stroke-width="0.4"/>
</svg>
