<svg width="35" height="28" viewBox="0 0 35 28" fill="none" xmlns="http://www.w3.org/2000/svg">
<path d="M9.22157 14.6345C9.22157 13.7379 9.22157 12.8828 9.22157 11.9862C8.33292 11.9862 7.45794 12.0207 6.5898 11.9724C5.93357 11.9379 5.26366 11.8897 4.63477 11.7103C1.87996 10.9517 0.00696241 8.42069 0.00696241 5.53793C0.00696241 4.91724 0.000126653 4.29655 0.00696241 3.67586C0.0137982 2.71034 0.717881 2 1.67489 2C3.97854 1.9931 6.27535 2 8.57901 2C8.78408 2 8.98915 2 9.21473 2C9.24207 1.89655 9.26942 1.8 9.28309 1.70345C9.48133 0.682759 10.2811 0 11.3065 0C15.4421 0 19.5777 0 23.7134 0C24.7182 0 25.5249 0.689655 25.7163 1.68276C25.7368 1.77931 25.7641 1.88276 25.7915 2C26.7006 2 27.5961 2 28.4984 2C30.0843 2 31.6634 2 33.2493 2C34.3362 2 35.0266 2.68276 34.9992 3.78621C34.9787 4.8069 35.0197 5.84138 34.8488 6.84138C34.3977 9.55172 31.9846 11.7241 29.2572 11.931C28.2455 12.0069 27.2338 11.9724 26.2153 11.9862C26.0786 11.9862 25.9487 11.9862 25.7846 11.9862C25.7846 12.869 25.7846 13.7241 25.7846 14.6345C25.9145 14.6345 26.0444 14.6345 26.1743 14.6345C28.4984 14.6345 30.8226 14.6345 33.1467 14.6345C34.343 14.6345 35.0129 15.2966 34.9924 16.5103C34.9719 17.5103 35.0061 18.5172 34.842 19.4966C34.4113 22.1103 32.1009 24.2759 29.4759 24.5448C28.3822 24.6552 27.268 24.6 26.1674 24.6207C26.0444 24.6207 25.9213 24.6207 25.7573 24.6207C25.7573 25.0345 25.7573 25.4207 25.7573 25.8069C25.7504 27.1379 24.896 28 23.5698 28C19.5231 28 15.4831 28 11.4364 28C10.0692 28 9.23524 27.1517 9.23524 25.7586C9.23524 25.3931 9.23524 25.0276 9.23524 24.6138C8.79091 24.6138 8.37393 24.6276 7.95695 24.6138C7.00678 24.5793 6.0361 24.6276 5.0996 24.4621C2.44733 24 0.34875 21.7034 0.0684843 19C-0.0203806 18.069 -0.00670911 17.1034 0.0206339 16.1517C0.0411412 15.2621 0.799911 14.6345 1.77059 14.6345C4.11525 14.6276 6.46675 14.6345 8.81142 14.6345C8.93446 14.6345 9.05751 14.6345 9.22157 14.6345ZM24.4175 13.9655C24.4175 13.1862 24.4175 12.4 24.4175 11.6207C24.4175 8.50345 24.4175 5.3931 24.4175 2.27586C24.4175 1.53793 24.1987 1.31724 23.4605 1.31724C21.0338 1.31724 18.6071 1.31724 16.1804 1.31724C14.6218 1.31724 13.0564 1.31724 11.4979 1.31724C10.828 1.31724 10.5887 1.55862 10.5887 2.22069C10.5887 6.49655 10.5887 10.7724 10.5887 15.0414C10.5887 18.6138 10.575 22.1862 10.5682 25.7655C10.5682 26.4069 10.8211 26.6828 11.409 26.6828C15.4763 26.6828 19.5436 26.6828 23.6108 26.6828C24.1509 26.6828 24.4243 26.4069 24.4311 25.8552C24.438 25.3034 24.4175 24.7517 24.4175 24.2C24.4106 20.7931 24.4175 17.3793 24.4175 13.9655ZM9.20106 10.6552C9.20106 8.17931 9.20106 5.75862 9.20106 3.31724C9.07802 3.31724 8.98915 3.31724 8.90029 3.31724C6.50777 3.31724 4.11525 3.31724 1.72957 3.31724C1.42196 3.31724 1.30576 3.48966 1.31259 3.77931C1.31943 4.41379 1.29892 5.04138 1.31943 5.67586C1.38779 7.90345 2.80962 9.78621 4.92871 10.4276C6.33004 10.8483 7.77239 10.5517 9.20106 10.6552ZM25.7915 10.6345C26.8442 10.6345 27.8764 10.669 28.9086 10.6276C31.055 10.5517 32.9417 8.9931 33.509 6.89655C33.7756 5.90345 33.6799 4.88966 33.6936 3.88276C33.7004 3.4069 33.6047 3.31724 33.1399 3.31724C30.7952 3.31724 28.4506 3.31724 26.1059 3.31724C26.0034 3.31724 25.9077 3.33103 25.7915 3.33103C25.7915 5.77241 25.7915 8.18621 25.7915 10.6345ZM9.22157 16.0069C9.16004 15.9931 9.1327 15.9793 9.09852 15.9793C6.63765 15.9793 4.18361 15.9793 1.72274 15.9724C1.4288 15.9724 1.31943 16.1241 1.31943 16.4C1.31943 17.0207 1.31259 17.6414 1.32626 18.2621C1.38095 20.6759 3.02837 22.731 5.37987 23.1586C6.29586 23.3241 7.2597 23.2621 8.20304 23.2966C8.53799 23.3103 8.87978 23.2966 9.2284 23.2966C9.22157 20.8552 9.22157 18.4414 9.22157 16.0069ZM25.7915 23.2966C26.8168 23.2966 27.8285 23.3379 28.8402 23.2897C31.1233 23.1793 33.0374 21.6345 33.5159 19.4069C33.7141 18.4759 33.6526 17.4897 33.6868 16.531C33.7073 16.0345 33.6389 15.9862 33.1331 15.9793C30.7884 15.9793 28.4437 15.9793 26.0991 15.9793C26.0034 15.9793 25.9008 15.9931 25.7915 16C25.7915 18.4345 25.7915 20.8552 25.7915 23.2966Z" fill="#2B335A"/>
<path d="M21.1292 19.3104C21.1292 21.3242 19.4886 23.0001 17.5199 22.9863C15.5102 22.9725 13.8833 21.3449 13.8765 19.338C13.8697 17.276 15.4829 15.6553 17.5405 15.6553C19.516 15.6691 21.1292 17.3035 21.1292 19.3104Z" fill="#9D85E8"/>
<path d="M12.5576 19.6347C12.5576 16.8761 14.7724 14.6416 17.4999 14.6416C20.2273 14.6416 22.4421 16.883 22.4421 19.6416C22.4421 22.414 20.2273 24.6347 17.4657 24.6278C14.7587 24.614 12.5576 22.3795 12.5576 19.6347ZM17.5204 15.9795C15.4628 15.9864 13.8701 17.6002 13.8769 19.6761C13.8838 21.6554 15.5243 23.3037 17.4999 23.3037C19.5027 23.3037 21.1365 21.6485 21.1297 19.6071C21.1228 17.6071 19.5027 15.9726 17.5204 15.9795Z" fill="#2B335A"/>
<path d="M22.4423 8.33113C22.4354 11.1104 20.2206 13.3173 17.4522 13.3104C14.7384 13.3035 12.5373 11.0415 12.5578 8.27596C12.5714 5.54492 14.8067 3.31734 17.5137 3.32423C20.248 3.33113 22.4491 5.57251 22.4423 8.33113ZM21.1298 8.31044C21.1298 6.30354 19.5166 4.66217 17.541 4.66217C15.4903 4.66217 13.8771 6.28286 13.8771 8.34492C13.8839 10.3518 15.5108 11.9794 17.5205 11.9932C19.4892 12.0001 21.1298 10.3242 21.1298 8.31044Z" fill="#2B335A"/>
</svg>
