<svg width="44" height="58" viewBox="0 0 44 58" fill="none" xmlns="http://www.w3.org/2000/svg">
<path d="M33.8034 48.4936C33.8034 35.8809 33.8034 23.3274 33.8034 10.7147C28.1997 10.7147 22.6111 10.7147 16.9772 10.7147C16.9772 9.91625 16.9772 9.16215 16.9772 8.36369C17.2189 8.34891 17.4605 8.33412 17.7022 8.33412C23.3361 8.33412 28.9851 8.33412 34.619 8.33412C35.8726 8.33412 36.2502 8.70378 36.2502 9.90146C36.2502 23.0612 36.2502 36.221 36.2502 49.3659C36.2502 50.5193 35.8575 50.9037 34.6643 50.9037C23.6684 50.9037 12.6725 50.9037 1.66147 50.9037C0.377607 50.9037 0 50.5488 0 49.292C0 36.1618 0 23.0316 0 9.88668C0 8.68899 0.392711 8.31934 1.63126 8.31934C2.65835 8.31934 3.68544 8.31934 4.77295 8.31934C4.77295 9.10301 4.77295 9.85711 4.77295 10.6556C4.01774 10.6556 3.27763 10.6556 2.462 10.6556C2.462 23.283 2.462 35.8661 2.462 48.4936C12.8839 48.4936 23.3059 48.4936 33.8034 48.4936Z" fill="#142DAD"/>
<path d="M41.0534 55.59C41.0534 42.9773 41.0534 30.4238 41.0534 17.8111C40.283 17.8111 39.5278 17.8111 38.7273 17.8111C38.7273 17.0126 38.7273 16.2585 38.7273 15.4305C39.9658 15.4305 41.2195 15.3862 42.458 15.4453C43.1377 15.4749 43.5002 16.022 43.5002 16.8352C43.5002 20.6501 43.5002 24.4797 43.5002 28.2946C43.5002 37.6395 43.5002 46.9696 43.5002 56.3145C43.5002 57.6748 43.1528 58.0001 41.7633 58.0001C30.8429 58.0001 19.9225 58.0001 8.98699 58.0001C7.5974 58.0001 7.25 57.66 7.25 56.3145C7.25 55.3386 7.25 54.3479 7.25 53.3277C8.06563 53.3277 8.82084 53.3277 9.65158 53.3277C9.65158 54.0818 9.65158 54.8063 9.65158 55.59C20.1339 55.59 30.5559 55.59 41.0534 55.59Z" fill="#142DAD"/>
<path d="M12.0834 4.79943C12.9292 4.79943 13.6693 4.79943 14.5 4.79943C14.5 5.09516 14.5 5.36131 14.5 5.61268C14.5 10.7583 14.5 15.9187 14.5 21.0643C14.5 23.1048 12.8235 24.8644 10.875 24.8644C8.94168 24.8644 7.25 23.1048 7.25 21.0643C7.25 15.6969 7.25 10.3147 7.25 4.9473C7.25 2.24141 9.50054 0.0382629 12.2797 0.0382629C12.8386 0.0382629 13.3974 0.0974079 13.9412 0.0234767C16.6902 -0.272248 19.8621 2.2562 19.273 5.89362C18.5329 5.89362 17.7928 5.89362 16.9167 5.89362C16.9167 5.49439 16.9318 5.0508 16.9167 4.622C16.8714 3.26166 16.0105 2.41885 14.6209 2.38928C13.7448 2.37449 12.8537 2.37449 11.9776 2.38928C10.588 2.41885 9.68179 3.26166 9.66668 4.60721C9.65158 10.1816 9.65158 15.7413 9.66668 21.3157C9.66668 22.1437 10.0443 22.4986 10.8599 22.4986C11.7058 22.5134 12.0834 22.1437 12.0834 21.2565C12.0834 16.2736 12.0834 11.3054 12.0834 6.32242C12.0834 5.86404 12.0834 5.36131 12.0834 4.79943Z" fill="#54D8AF"/>
<path d="M31.3864 27.2896C31.3864 28.0584 31.3864 28.7682 31.3864 29.5371C22.5655 29.5371 13.7598 29.5371 4.89355 29.5371C4.89355 28.8273 4.89355 28.0732 4.89355 27.2896C13.6993 27.2896 22.5051 27.2896 31.3864 27.2896Z" fill="#54D8AF"/>
<path d="M31.3869 32.0215C31.3869 32.7904 31.3869 33.5001 31.3869 34.269C22.566 34.269 13.7602 34.269 4.87891 34.269C4.87891 33.5593 4.87891 32.8052 4.87891 32.0215C13.6998 32.0215 22.5056 32.0215 31.3869 32.0215Z" fill="#142DAD"/>
<path d="M4.86328 39.0152C4.86328 38.2463 4.86328 37.5218 4.86328 36.7529C13.7144 36.7529 22.5202 36.7529 31.3713 36.7529C31.3713 37.507 31.3713 38.2316 31.3713 39.0152C22.5655 39.0152 13.7446 39.0152 4.86328 39.0152Z" fill="#54D8AF"/>
<path d="M31.3412 24.8643C26.5229 24.8643 21.7802 24.8643 16.9771 24.8643C16.9771 24.1102 16.9771 23.3561 16.9771 22.5576C21.75 22.5576 26.5381 22.5576 31.3412 22.5576C31.3412 23.3265 31.3412 24.0954 31.3412 24.8643Z" fill="#142DAD"/>
<path d="M20.6025 14.248C24.2125 14.248 27.7469 14.248 31.3568 14.248C31.3568 15.0021 31.3568 15.7562 31.3568 16.5547C27.7922 16.5547 24.2125 16.5547 20.6025 16.5547C20.6025 15.7858 20.6025 15.0169 20.6025 14.248Z" fill="#142DAD"/>
<path d="M13.2462 42.6821C13.2462 43.4658 13.2462 44.1903 13.2462 44.9592C10.4519 44.9592 7.70295 44.9592 4.89355 44.9592C4.89355 44.2347 4.89355 43.4806 4.89355 42.6821C7.64253 42.6821 10.4217 42.6821 13.2462 42.6821Z" fill="#142DAD"/>
<path d="M22.9883 44.9294C22.9883 44.1458 22.9883 43.4212 22.9883 42.6523C25.7826 42.6523 28.5315 42.6523 31.3409 42.6523C31.3409 43.3769 31.3409 44.131 31.3409 44.9294C28.592 44.9294 25.8279 44.9294 22.9883 44.9294Z" fill="#142DAD"/>
</svg>
