<svg width="15" height="9" viewBox="0 0 15 9" fill="none" xmlns="http://www.w3.org/2000/svg">
<path d="M5.32674 0.0112898C6.48019 0.0112898 7.62998 0.0112898 8.81273 0.0112898C8.81273 0.0903186 8.81273 0.161821 8.81273 0.233323C8.81273 1.41123 8.81273 2.58913 8.81273 3.7708C8.81273 3.87617 8.80906 3.98531 8.82371 4.09068C8.85667 4.33153 8.99948 4.42561 9.21186 4.31648C9.36199 4.24121 9.49747 4.12455 9.61465 4.00036C10.2884 3.30039 10.8047 2.47624 11.2734 1.62574C11.5261 1.17038 11.7494 0.696206 11.9765 0.225797C12.0241 0.127951 12.0753 0.0903186 12.1815 0.0903186C12.8516 0.0940819 13.5254 0.0903186 14.1955 0.0940819C14.569 0.0940819 14.7191 0.297299 14.6129 0.6661C14.4372 1.27199 14.1113 1.80637 13.789 2.33323C13.3826 3.00309 12.9468 3.65414 12.5257 4.31271C12.5111 4.33529 12.4964 4.35411 12.4818 4.37293C12.2182 4.77936 12.2218 4.86968 12.5404 5.23848C13.1336 5.91963 13.7414 6.5895 14.32 7.28194C14.5324 7.53408 14.6935 7.83514 14.8656 8.12491C14.9315 8.23405 14.9681 8.36576 14.9901 8.49371C15.0414 8.79478 14.8912 8.98294 14.5946 8.9867C14.0271 8.99423 13.4595 8.96789 12.8919 8.99799C12.5331 9.01681 12.2841 8.90391 12.0351 8.63672C11.4712 8.03083 10.878 7.45129 10.2701 6.88679C10.0541 6.68358 9.78675 6.52552 9.51578 6.4051C9.09468 6.21693 8.85667 6.39757 8.85301 6.87174C8.84934 7.34215 8.85301 7.81256 8.85301 8.28297C8.85301 8.71951 8.73217 8.8738 8.31839 8.93778C7.23817 9.10336 6.22387 8.87757 5.26449 8.35824C4.24286 7.80503 3.41165 7.02227 2.71957 6.08145C1.76752 4.78689 0.939964 3.41705 0.379717 1.89293C0.229585 1.46015 0.119732 1.00856 0.0172035 0.560728C-0.0596933 0.22956 0.127056 0.00752655 0.460275 0.00752655C1.17065 0 1.8847 0.00752655 2.59874 0C2.72324 0 2.74887 0.0715022 2.7745 0.165584C3.11138 1.28704 3.5691 2.35581 4.1623 3.36061C4.47355 3.88746 4.80311 4.39927 5.25717 4.80947C5.34871 4.89226 5.45124 4.96376 5.56109 5.01645C5.75883 5.11053 5.89797 5.02774 5.92361 4.8057C5.93825 4.70033 5.93825 4.5912 5.93825 4.48582C5.93825 3.59393 5.93825 2.7058 5.93459 1.8139C5.93093 1.42252 5.80643 1.0763 5.56109 0.778998C5.378 0.564491 5.23886 0.338695 5.32674 0.0112898Z" fill="#142DAD"/>
</svg>
