<svg width="48" height="58" viewBox="0 0 48 58" fill="none" xmlns="http://www.w3.org/2000/svg">
<path d="M41.1578 56.1535C41.1578 53.7406 41.1578 51.3844 41.1578 48.9828C41.7394 48.9828 42.3098 48.9828 42.9137 48.9828C42.9249 49.1414 42.9473 49.3113 42.9473 49.4699C42.9473 51.6449 42.9473 53.8086 42.9473 55.9836C42.9473 57.2523 42.2315 58 40.9789 58C27.9716 58 14.9533 58 1.94605 58C0.738156 58 0 57.2523 0 56.0176C0 38.0285 0 20.0395 0 2.03906C0 0.702344 0.704604 0 2.04671 0C14.998 0 27.9605 0 40.9117 0C42.2427 0 42.9473 0.713672 42.9473 2.06172C42.9473 8.71133 42.9473 15.3496 42.9473 21.9992C42.9473 22.1918 42.9473 22.373 42.9473 22.6109C42.3657 22.6109 41.7953 22.6109 41.169 22.6109C41.169 15.7008 41.169 8.79062 41.169 1.84648C28.0276 1.84648 14.9533 1.84648 1.83421 1.84648C1.83421 19.9375 1.83421 38.0285 1.83421 56.1535C14.9085 56.1535 28.0052 56.1535 41.1578 56.1535Z" fill="#142DAD"/>
<path d="M39.3347 20.8211C38.7419 20.8211 38.1939 20.8211 37.5787 20.8211C37.5787 20.5945 37.5787 20.3906 37.5787 20.198C37.5787 16.0406 37.5787 11.8945 37.5899 7.7371C37.5899 7.32929 37.5228 7.08007 37.1202 6.84218C36.7399 6.62695 36.3932 6.24179 36.1583 5.85663C35.957 5.53945 35.7781 5.42617 35.4202 5.42617C30.1077 5.43749 24.7952 5.43749 19.4827 5.43749C15.49 5.43749 11.5084 5.43749 7.51564 5.42617C7.15775 5.42617 6.9788 5.52812 6.77749 5.84531C6.52025 6.24179 6.17354 6.63828 5.77091 6.86484C5.40183 7.08007 5.34591 7.30663 5.34591 7.66913C5.3571 12.9027 5.34591 18.125 5.34591 23.3586C5.34591 32.3418 5.34591 41.325 5.33473 50.3195C5.33473 50.716 5.43539 50.9426 5.79328 51.1578C6.17354 51.3957 6.54262 51.7469 6.75512 52.1434C6.95643 52.5172 7.18012 52.5738 7.53801 52.5738C14.584 52.5625 21.6301 52.5625 28.6761 52.5625C28.9334 52.5625 29.1906 52.5625 29.4702 52.5625C29.4702 53.1742 29.4702 53.7293 29.4702 54.375C29.2801 54.375 29.0788 54.375 28.8886 54.375C21.4735 54.375 14.0584 54.375 6.63209 54.375C5.67025 54.375 5.54723 54.2617 5.33473 53.3102C5.23407 52.8797 4.96565 52.6305 4.52947 52.5625C3.76894 52.4492 3.56763 52.1887 3.56763 51.3957C3.56763 41.3023 3.56763 31.1977 3.56763 21.1043C3.56763 16.3125 3.56763 11.5207 3.56763 6.71757C3.56763 5.77734 3.70184 5.61874 4.59657 5.43749C5.04394 5.34687 5.30118 5.05234 5.3571 4.58788C5.45775 3.88554 5.72617 3.63632 6.41959 3.63632C16.4406 3.63632 26.4728 3.63632 36.4939 3.63632C37.1537 3.63632 37.4669 3.89687 37.5452 4.54257C37.6123 5.08632 37.8919 5.38085 38.4399 5.44882C39.0662 5.52812 39.3458 5.82265 39.3458 6.4457C39.3458 11.1695 39.3458 15.882 39.3458 20.6059C39.357 20.6512 39.3458 20.7078 39.3347 20.8211Z" fill="#142DAD"/>
<path d="M33.1054 43.2394C33.1054 41.9934 33.0942 40.7473 33.1166 39.5012C33.1166 39.1726 33.0606 38.9687 32.6804 38.9461C31.808 38.9008 31.4277 38.391 31.3159 37.5414C31.2152 36.7598 31.0251 35.9894 30.8574 35.2191C30.8126 35.0039 30.6896 34.8 30.5777 34.6074C30.108 33.8598 29.6383 33.1121 29.1462 32.3758C28.833 31.9113 28.8106 31.4695 29.1574 31.0277C30.4659 29.3851 31.1929 27.5047 31.4389 25.4316C31.4949 24.9445 31.7856 24.6613 32.2666 24.5707C32.6916 24.4914 33.1054 24.3441 33.5192 24.3215C35.1297 24.2082 36.36 23.2793 37.6014 22.3957C38.2277 21.9426 38.7646 21.8973 39.3573 22.407C40.8672 23.6984 42.6679 24.2988 44.5915 24.5594C45.1507 24.6387 45.4527 24.9219 45.5422 25.4883C45.6317 26.0207 45.8106 26.5531 45.8553 27.0969C45.9896 28.5129 46.8172 29.5664 47.5777 30.6426C48.1145 31.4129 48.1705 32.0359 47.5665 32.7609C46.4257 34.1656 45.7994 35.7855 45.6205 37.598C45.5422 38.3344 45.229 38.8668 44.435 38.9008C43.8981 38.9234 43.8422 39.218 43.8422 39.6711C43.8646 42.0726 43.8422 44.4629 43.8534 46.8644C43.8534 47.3062 43.7863 47.6801 43.3613 47.918C42.9475 48.1445 42.6119 47.9746 42.2652 47.7594C41.1244 47.0457 39.9836 46.3434 38.854 45.6184C38.5744 45.4371 38.3843 45.4484 38.1047 45.6184C36.9751 46.3434 35.8231 47.0457 34.6823 47.7594C34.3356 47.9746 34.0001 48.1332 33.5863 47.918C33.1613 47.6801 33.0942 47.2949 33.1054 46.8644C33.1166 45.6523 33.1054 44.4402 33.1054 43.2394ZM38.485 39.4219C38.6192 39.3426 38.7534 39.2406 38.8988 39.1613C39.8271 38.6402 40.5988 37.8019 41.7172 37.6207C42.2876 37.5301 42.8468 37.3601 43.406 37.2809C43.7639 37.2242 43.9093 37.0656 43.954 36.7031C44.1665 35.1172 44.6139 33.6105 45.6764 32.3758C46.0678 31.9113 46.0343 31.5601 45.6988 31.0504C45.1396 30.2234 44.4461 29.4531 44.2896 28.3883C44.2113 27.8105 44.0435 27.2441 43.954 26.6777C43.8981 26.3379 43.7415 26.2133 43.4172 26.1566C42.0527 25.8961 40.6435 25.7262 39.5586 24.7066C38.8093 24.0043 38.1494 24.0156 37.3665 24.684C36.8633 25.1144 36.2593 25.4543 35.6442 25.6808C34.9731 25.9301 34.235 26.032 33.5192 26.1453C33.1613 26.2019 33.0159 26.3605 32.9712 26.723C32.7587 28.2863 32.3337 29.7816 31.2824 31.0051C30.8685 31.4922 30.8909 31.8887 31.26 32.4211C31.808 33.2367 32.4902 33.9844 32.6356 35.0379C32.7139 35.6156 32.8817 36.182 32.9712 36.7484C33.0271 37.0883 33.1725 37.2355 33.508 37.2695C35.208 37.4621 36.7402 38.0851 38.0711 39.1726C38.1383 39.2293 38.2277 39.2746 38.306 39.3199C38.3619 39.3652 38.4067 39.3879 38.485 39.4219ZM34.9396 39.3766C34.9396 41.4496 34.9396 43.432 34.9396 45.4711C35.8231 44.916 36.6843 44.4516 37.456 43.8851C38.1718 43.3641 38.7646 43.3754 39.4804 43.8851C40.2744 44.4629 41.1356 44.9273 42.0304 45.4824C42.0304 43.4094 42.0304 41.4383 42.0304 39.3766C41.7731 39.5012 41.5494 39.5805 41.3593 39.7051C40.61 40.1922 39.8494 40.6793 39.1113 41.1891C38.6639 41.4949 38.2613 41.4949 37.8251 41.1891C37.0869 40.6793 36.3376 40.1922 35.5883 39.7051C35.3981 39.5805 35.1968 39.5012 34.9396 39.3766Z" fill="#54D8AF"/>
<path d="M21.4065 16.3125C19.7065 16.3125 18.0177 16.3012 16.3177 16.3238C15.8144 16.3238 15.5124 16.1086 15.2105 15.7121C14.4611 14.7379 14.3045 13.6617 14.271 12.4496C14.2374 11.2148 14.7855 10.3199 15.423 9.42499C15.5684 9.22108 15.9263 9.08514 16.1947 9.08514C19.7177 9.06249 23.2407 9.07382 26.7525 9.07382C26.9091 9.07382 27.1328 9.08514 27.2223 9.1871C27.871 9.8328 28.4861 10.5125 28.6091 11.4754C28.665 11.9172 28.5644 12.3816 28.6315 12.8348C28.7881 14.0016 28.4414 14.9984 27.6249 15.8027C27.3789 16.0519 26.9874 16.2898 26.6519 16.2898C24.9072 16.3351 23.1624 16.3125 21.4065 16.3125ZM21.4512 14.5C22.9387 14.5 24.4262 14.5 25.9137 14.5C26.4282 14.5 26.8196 14.1375 26.8308 13.6164C26.8532 13.016 26.8532 12.4156 26.8308 11.8039C26.8196 11.3508 26.417 10.875 26.0591 10.8637C23.0058 10.8637 19.9526 10.8523 16.9105 10.875C16.7427 10.875 16.5414 11.0109 16.4295 11.1469C15.8256 11.9512 16.0828 12.8914 16.1723 13.7523C16.217 14.1828 16.5749 14.5453 17.2124 14.5113C18.6216 14.4433 20.042 14.5 21.4512 14.5Z" fill="#54D8AF"/>
<path d="M8.96973 21.7047C8.96973 21.1043 8.96973 20.5492 8.96973 19.9601C17.3019 19.9601 25.6006 19.9601 33.944 19.9601C33.944 20.5152 33.944 21.093 33.944 21.7047C25.6453 21.7047 17.3355 21.7047 8.96973 21.7047Z" fill="#54D8AF"/>
<path d="M23.2294 30.8465C23.2294 31.4469 23.2294 32.002 23.2294 32.591C18.4761 32.591 13.7564 32.591 8.99194 32.591C8.99194 32.036 8.99194 31.4582 8.99194 30.8465C13.7117 30.8465 18.4538 30.8465 23.2294 30.8465Z" fill="#54D8AF"/>
<path d="M23.2518 41.7215C23.2518 42.3219 23.2518 42.8656 23.2518 43.4547C18.4985 43.4547 13.7676 43.4547 8.99194 43.4547C8.99194 42.8996 8.99194 42.3219 8.99194 41.7215C13.734 41.7215 18.4649 41.7215 23.2518 41.7215Z" fill="#54D8AF"/>
<path d="M28.5979 25.409C28.5979 26.0094 28.5979 26.5645 28.5979 27.1535C24.4486 27.1535 20.3216 27.1535 16.1499 27.1535C16.1499 26.5871 16.1499 26.0207 16.1499 25.409C20.2769 25.409 24.415 25.409 28.5979 25.409Z" fill="#142DAD"/>
<path d="M31.3271 54.3637C31.3271 53.7406 31.3271 53.1969 31.3271 52.5625C31.5061 52.5625 31.685 52.5625 31.864 52.5625C33.0607 52.5625 34.2462 52.5512 35.4429 52.5625C35.7673 52.5625 35.9462 52.4832 36.1475 52.1774C36.4271 51.7582 36.8186 51.3731 37.2324 51.0899C37.512 50.8973 37.5903 50.7274 37.5903 50.4215C37.5791 49.3453 37.5903 48.2692 37.5903 47.159C38.1831 47.159 38.7423 47.159 39.3686 47.159C39.3686 48.6996 39.4021 50.2402 39.335 51.7809C39.3238 52.0414 38.91 52.4606 38.6304 52.5059C37.937 52.6192 37.6238 52.9363 37.5567 53.6274C37.512 54.0578 37.1877 54.341 36.7515 54.3524C34.9508 54.375 33.1725 54.3637 31.3271 54.3637Z" fill="#142DAD"/>
<path d="M16.1389 47.1476C19.7067 47.1476 23.2297 47.1476 26.7974 47.1476C26.7974 47.7254 26.7974 48.2918 26.7974 48.9035C23.2521 48.9035 19.7067 48.9035 16.1389 48.9035C16.1389 48.3258 16.1389 47.7707 16.1389 47.1476Z" fill="#142DAD"/>
<path d="M17.8724 36.284C17.8724 36.8844 17.8724 37.4395 17.8724 38.0172C14.9086 38.0172 11.9671 38.0172 8.98096 38.0172C8.98096 37.4508 8.98096 36.8844 8.98096 36.284C11.9448 36.284 14.8862 36.284 17.8724 36.284Z" fill="#142DAD"/>
<path d="M28.5981 36.284C28.5981 36.8844 28.5981 37.4395 28.5981 38.0285C25.6343 38.0285 22.704 38.0285 19.729 38.0285C19.729 37.4621 19.729 36.8957 19.729 36.284C22.6704 36.284 25.6119 36.284 28.5981 36.284Z" fill="#142DAD"/>
<path d="M14.271 27.1535C12.4816 27.1535 10.7368 27.1535 8.96973 27.1535C8.96973 26.5645 8.96973 26.0094 8.96973 25.409C10.7256 25.409 12.4704 25.409 14.271 25.409C14.271 25.9754 14.271 26.5531 14.271 27.1535Z" fill="#142DAD"/>
<path d="M30.3761 43.4774C28.609 43.4774 26.8642 43.4774 25.0859 43.4774C25.0859 42.8883 25.0859 42.3106 25.0859 41.7215C26.8419 41.7215 28.5866 41.7215 30.3761 41.7215C30.3761 42.2766 30.3761 42.843 30.3761 43.4774Z" fill="#142DAD"/>
<path d="M8.96973 13.5484C8.96973 12.948 8.96973 12.393 8.96973 11.8039C10.1441 11.8039 11.2849 11.8039 12.4704 11.8039C12.4704 12.359 12.4704 12.9367 12.4704 13.5484C11.3296 13.5484 10.1776 13.5484 8.96973 13.5484Z" fill="#142DAD"/>
<path d="M33.9662 11.8152C33.9662 12.4156 33.9662 12.9707 33.9662 13.5598C32.7919 13.5598 31.6511 13.5598 30.4656 13.5598C30.4656 13.0047 30.4656 12.427 30.4656 11.8152C31.6064 11.8152 32.7695 11.8152 33.9662 11.8152Z" fill="#142DAD"/>
<path d="M27.7146 30.8578C27.7146 31.4469 27.7146 32.002 27.7146 32.591C26.8422 32.591 25.9922 32.591 25.1086 32.591C25.1086 32.0359 25.1086 31.4695 25.1086 30.8578C25.9363 30.8578 26.7975 30.8578 27.7146 30.8578Z" fill="#142DAD"/>
<path d="M38.4624 26.2812C41.4151 26.2812 43.8309 28.7168 43.8309 31.7074C43.8309 34.698 41.4263 37.1449 38.4736 37.1449C35.521 37.1449 33.1052 34.7094 33.1052 31.7188C33.1052 28.7281 35.5098 26.2812 38.4624 26.2812ZM34.8947 31.7074C34.8947 33.7125 36.5052 35.3438 38.4736 35.3438C40.4532 35.3438 42.0526 33.7238 42.0638 31.7188C42.0638 29.725 40.4644 28.0937 38.4848 28.0824C36.5052 28.0937 34.8947 29.7137 34.8947 31.7074Z" fill="#142DAD"/>
</svg>
