<?xml version="1.0" encoding="utf-8"?>
<!-- Generator: Adobe Illustrator 21.0.2, SVG Export Plug-In . SVG Version: 6.00 Build 0)  -->
<svg version="1.1" id="Слой_1" xmlns="http://www.w3.org/2000/svg" xmlns:xlink="http://www.w3.org/1999/xlink" x="0px" y="0px"
	 viewBox="0 0 15 16" style="enable-background:new 0 0 15 16;" xml:space="preserve">
<style type="text/css">
	.st0{fill:#FFFFFF;}
</style>
<path class="st0" d="M1.6,8.8c-0.1,0-0.2,0-0.2-0.1C1.1,8.7,0.9,8.5,0.9,8.2C0.7,7,0.5,5.7,0.4,4.5C0.3,3.6,0.1,2.6,0,1.7
	c0-0.4,0.2-0.7,0.6-0.8c1.1-0.2,2.2-0.4,3.3-0.6C5.2,0.1,6.6,0,7.9,0c1.1,0,2.2,0.1,3.2,0.3c1.1,0.2,2.1,0.4,3.2,0.6
	C14.8,0.9,15,1.4,15,1.8c-0.1,0.9-0.3,1.9-0.4,2.9c-0.1,0.9-0.2,1.8-0.4,2.6c0,0.3-0.1,0.5-0.1,0.8c0,0.4-0.3,0.6-0.7,0.7
	c0,0-0.1,0-0.2,0c0,0.5,0,1.1,0,1.6c0,0.7-0.1,1.4-0.4,2.1c-0.9,1.9-2.4,3.1-4.5,3.5c-3.1,0.5-6.1-1.5-6.7-4.5
	c-0.1-0.5-0.1-1-0.1-1.4C1.6,9.6,1.6,9.2,1.6,8.8z M3.3,8.5c0,0,0,0.1,0,0.1c0,0.6,0,1.2,0,1.8c0,0.2,0,0.4,0.1,0.7
	c0.4,2.4,2.9,3.8,5.3,3.1c1.7-0.5,2.9-1.9,2.9-3.6c0-0.7,0-1.4,0-2.1c0,0,0-0.1,0-0.1C8.8,7.8,6.1,7.8,3.3,8.5z M13.2,2.2
	c-3.8-0.8-7.7-0.8-11.5,0C1.9,3.8,2.2,5.4,2.4,7c3.4-0.9,6.8-0.9,10.2,0C12.8,5.4,13,3.8,13.2,2.2z"/>
<path class="st0" d="M6.6,3.2c0-0.2,0-0.5,0-0.7c0-0.1,0-0.2,0.2-0.1c0.5,0,0.9,0,1.4,0c0.1,0,0.2,0,0.2,0.2c0,0.2,0,0.4,0,0.7
	c0.3,0,0.6,0,0.8,0c0,0.5,0,1.1,0,1.6c-0.3,0-0.5,0-0.8,0c0,0.3,0,0.5,0,0.8c-0.6,0-1.1,0-1.7,0c0-0.3,0-0.5,0-0.8
	c-0.3,0-0.6,0-0.8,0c0-0.5,0-1.1,0-1.6C6.1,3.2,6.3,3.2,6.6,3.2z"/>
</svg>
