<svg width="52" height="58" viewBox="0 0 52 58" fill="none" xmlns="http://www.w3.org/2000/svg">
<path d="M48.3995 0C48.3995 0.600743 48.3995 1.14481 48.3995 1.77956C48.1639 1.77956 47.9396 1.77956 47.7041 1.77956C33.3468 1.77956 18.9896 1.77956 4.63244 1.77956C3.93701 1.77956 3.30889 1.92691 2.75928 2.3803C1.85073 3.15107 1.50302 4.32988 1.8956 5.44069C2.26575 6.50616 3.3201 7.25425 4.48663 7.25425C18.8663 7.25425 33.2347 7.25425 47.6143 7.25425C47.8611 7.25425 48.0966 7.25425 48.4107 7.25425C48.4107 8.45574 48.4107 9.63455 48.4107 10.8474C49.05 10.8474 49.6109 10.8474 50.2278 10.8474C50.2278 9.05648 50.2278 7.27692 50.2278 5.41802C35.0069 5.41802 19.786 5.41802 4.53149 5.41802C4.53149 4.79461 4.53149 4.2392 4.53149 3.64979C20.3693 3.64979 36.1622 3.64979 52 3.64979C52 6.64217 52 9.60055 52 12.6269C50.8447 12.6269 49.6782 12.6269 48.478 12.6269C48.478 13.273 48.478 13.8398 48.478 14.4858C49.6445 14.4858 50.811 14.4858 52 14.4858C52 17.5236 52 20.5046 52 23.5196C50.8223 23.5196 49.667 23.5196 48.478 23.5196C48.478 24.1431 48.478 24.7211 48.478 25.3672C49.6445 25.3672 50.7998 25.3672 52 25.3672C52 28.4163 52 31.386 52 34.4124C50.8223 34.4124 49.667 34.4124 48.4556 34.4124C48.4556 42.29 48.4556 50.111 48.4556 58C48.1864 58 47.9845 58 47.7826 58C33.4478 58 19.113 58 4.76704 58C1.92925 58 0 56.0504 0 53.1941C0 37.0874 0 20.9693 0 4.85128C0 1.92691 1.90682 0 4.81191 0C19.113 0 33.4142 0 47.7153 0C47.9172 0 48.1191 0 48.3995 0ZM46.6273 45.3164C46.6273 36.8267 46.6273 28.3936 46.6273 19.9492C34.0647 19.9492 21.5246 19.9492 8.98447 19.9492C8.98447 28.4276 8.98447 36.872 8.98447 45.3164C21.547 45.3164 34.0647 45.3164 46.6273 45.3164ZM46.6273 56.1978C46.6273 53.1487 46.6273 50.1563 46.6273 47.1526C34.0647 47.1526 21.5358 47.1526 8.99569 47.1526C8.99569 50.1903 8.99569 53.1941 8.99569 56.1978C21.5582 56.1978 34.0647 56.1978 46.6273 56.1978ZM46.6385 9.06781C34.0423 9.06781 21.5134 9.06781 8.97325 9.06781C8.97325 12.0942 8.97325 15.0866 8.97325 18.0903C21.547 18.0903 34.0871 18.0903 46.6385 18.0903C46.6385 15.0639 46.6385 12.0829 46.6385 9.06781ZM1.761 8.08169C1.761 8.39906 1.761 8.58042 1.761 8.75044C1.761 11.1874 1.761 13.6244 1.761 16.0614C1.761 28.5069 1.761 40.9638 1.761 53.4094C1.761 54.6676 2.46764 55.8464 3.61173 56.0618C4.76704 56.2771 5.96721 56.2091 7.13374 56.2544C7.13374 40.4311 7.13374 24.7438 7.13374 9.03381C5.30544 8.95446 3.44349 9.36252 1.761 8.08169ZM50.2166 16.3334C49.5884 16.3334 49.0276 16.3334 48.4556 16.3334C48.4556 18.1583 48.4556 19.9379 48.4556 21.7401C49.0613 21.7401 49.6221 21.7401 50.2166 21.7401C50.2166 19.9152 50.2166 18.1356 50.2166 16.3334ZM50.2166 32.6215C50.2166 30.7739 50.2166 28.9943 50.2166 27.2034C49.6109 27.2034 49.0388 27.2034 48.478 27.2034C48.478 29.0283 48.478 30.8306 48.478 32.6215C49.0725 32.6215 49.6221 32.6215 50.2166 32.6215Z" fill="#142DAD"/>
<path d="M30.879 35.8516C28.5123 37.8465 26.2802 37.2684 24.7884 35.8516C23.1508 34.31 22.8928 32.0204 24.1154 30.2068C25.5624 28.0532 27.5589 27.6679 30.4864 29.0054C30.5089 28.722 30.5313 28.45 30.5425 28.1439C31.1146 28.1439 31.6642 28.1439 32.2699 28.1439C32.2699 28.3593 32.2699 28.5633 32.2699 28.7673C32.2699 30.6149 32.2699 32.4738 32.2699 34.3214C32.2699 35.0355 32.5839 35.3642 33.2794 35.3755C33.3915 35.3755 33.5037 35.3755 33.6159 35.3755C34.7936 35.3755 34.9955 35.1828 34.9843 34.004C34.9843 32.7798 35.0404 31.5557 34.659 30.3542C33.6271 27.0785 30.6435 25.0949 27.0766 25.3669C23.835 25.6163 21.2103 28.0759 20.6944 31.363C20.0663 35.3415 22.2871 38.7986 26.0895 39.7054C26.6504 39.8414 27.2336 39.8754 27.8057 39.8867C29.2638 39.9094 30.722 39.8981 32.2138 39.8981C32.2138 40.4875 32.2138 41.0429 32.2138 41.5983C32.1914 41.6096 32.1689 41.655 32.1353 41.655C30.2733 41.6323 28.3889 41.7116 26.5382 41.5416C22.848 41.2129 19.4157 37.5631 18.9109 33.8566C18.2828 29.2434 21.5693 24.6528 26.2241 23.7234C30.5313 22.8619 35.1413 25.809 36.3976 30.2749C36.8014 31.7144 36.8014 33.1879 36.7004 34.6614C36.5995 36.1123 35.4217 37.1211 33.9748 37.1437C32.3596 37.1664 31.7763 36.9284 30.879 35.8516ZM30.5089 32.6665C30.5089 30.9776 29.4545 29.8895 27.7945 29.8895C26.1905 29.8895 25.0913 30.9663 25.0913 32.5531C25.0801 34.276 26.1344 35.3642 27.8281 35.3642C29.4096 35.3642 30.5089 34.2647 30.5089 32.6665Z" fill="#54D8AF"/>
<path d="M44.7995 52.6157C44.7995 53.2051 44.7995 53.7605 44.7995 54.3386C41.8271 54.3386 38.8884 54.3386 35.916 54.3386C35.916 53.7492 35.916 53.2051 35.916 52.6157C38.8884 52.6157 41.8384 52.6157 44.7995 52.6157Z" fill="#54D8AF"/>
<path d="M34.0308 54.3498C32.8531 54.3498 31.7202 54.3498 30.5537 54.3498C30.5537 53.7718 30.5537 53.2164 30.5537 52.627C31.6978 52.627 32.8531 52.627 34.0308 52.627C34.0308 53.1824 34.0308 53.7378 34.0308 54.3498Z" fill="#142DAD"/>
<path d="M44.7987 14.5425C44.7987 15.1546 44.7987 15.6873 44.7987 16.2654C33.4587 16.2654 22.1412 16.2654 10.79 16.2654C10.79 15.6873 10.79 15.1319 10.79 14.5425C22.1412 14.5425 33.4587 14.5425 44.7987 14.5425Z" fill="#142DAD"/>
<path d="M10.8018 12.616C10.8018 12.0606 10.8018 11.5279 10.8018 10.9385C13.4489 10.9385 16.1072 10.9385 18.788 10.9385C18.788 11.4939 18.788 12.0266 18.788 12.616C16.1296 12.616 13.4825 12.616 10.8018 12.616Z" fill="#54D8AF"/>
<path d="M3.61133 22.5904C3.61133 22.0123 3.61133 21.4795 3.61133 20.8901C4.17216 20.8901 4.72177 20.8901 5.31625 20.8901C5.31625 21.4342 5.31625 21.9896 5.31625 22.5904C4.76663 22.5904 4.21702 22.5904 3.61133 22.5904Z" fill="#54D8AF"/>
<path d="M3.62305 24.5054C4.21752 24.5054 4.75592 24.5054 5.31675 24.5054C5.31675 25.0834 5.31675 25.6388 5.31675 26.2283C4.75592 26.2283 4.20631 26.2283 3.62305 26.2283C3.62305 25.6615 3.62305 25.1061 3.62305 24.5054Z" fill="#54D8AF"/>
<path d="M3.63379 28.1328C4.1834 28.1328 4.7218 28.1328 5.29384 28.1328C5.29384 28.6769 5.29384 29.2323 5.29384 29.833C4.77788 29.833 4.22827 29.833 3.63379 29.833C3.63379 29.3116 3.63379 28.7562 3.63379 28.1328Z" fill="#54D8AF"/>
<path d="M5.32796 31.771C5.32796 32.3717 5.32796 32.9158 5.32796 33.4825C4.75592 33.4825 4.20631 33.4825 3.62305 33.4825C3.62305 32.9158 3.62305 32.3604 3.62305 31.771C4.18388 31.771 4.73349 31.771 5.32796 31.771Z" fill="#54D8AF"/>
<path d="M5.32796 35.4097C5.32796 35.9877 5.32796 36.5205 5.32796 37.1099C4.76714 37.1099 4.21752 37.1099 3.62305 37.1099C3.62305 36.5658 3.62305 36.0104 3.62305 35.4097C4.17266 35.4097 4.72227 35.4097 5.32796 35.4097Z" fill="#54D8AF"/>
<path d="M3.61133 40.7369C3.61133 40.1475 3.61133 39.6035 3.61133 39.0254C4.18337 39.0254 4.73298 39.0254 5.31625 39.0254C5.31625 39.5921 5.31625 40.1475 5.31625 40.7369C4.75542 40.7369 4.20581 40.7369 3.61133 40.7369Z" fill="#54D8AF"/>
<path d="M3.62305 42.6416C4.20631 42.6416 4.7447 42.6416 5.31675 42.6416C5.31675 43.2197 5.31675 43.7751 5.31675 44.3645C4.75592 44.3645 4.20631 44.3645 3.62305 44.3645C3.62305 43.7977 3.62305 43.2423 3.62305 42.6416Z" fill="#54D8AF"/>
</svg>
