<svg width="62" height="62" viewBox="0 0 62 62" fill="none" xmlns="http://www.w3.org/2000/svg">
<path d="M21.7635 30.5996C21.1232 30.2287 20.4951 29.8701 19.8793 29.4992C19.2266 29.1159 19.1404 28.8315 19.4975 28.2009C23.2291 21.7097 26.9606 15.2308 30.6921 8.7396C31.0616 8.09665 31.431 8.0101 32.0591 8.38103C32.4286 8.60359 32.798 8.82615 33.2168 9.07343C34.0296 7.65154 34.8301 6.27911 35.6059 4.88195C35.6675 4.7583 35.5813 4.53575 35.5197 4.37501C35.0394 3.28696 35.1502 2.29782 35.8399 1.64251C36.6281 0.900654 37.7734 0.789376 38.7956 1.3705C40.5197 2.35964 42.2438 3.36114 43.968 4.36265C44.9163 4.91904 45.3842 5.95764 45.1256 6.92205C44.83 8.0472 44.0419 8.64068 42.835 8.67778C42.6256 8.69014 42.33 8.78905 42.2438 8.94979C41.4557 10.248 40.7168 11.5834 39.9286 12.9558C40.335 13.1907 40.7168 13.4257 41.0985 13.6482C41.7882 14.0562 41.8621 14.3406 41.4557 15.0577C40.4212 16.8629 39.3867 18.6557 38.3522 20.4609C38.2414 20.6587 38.1429 20.8442 38.0443 21.0297C44.0049 24.4546 47.4532 29.5239 47.7857 36.3861C48.1182 43.2359 45.064 48.5525 39.4729 52.5462C39.7192 52.5709 39.8793 52.5956 40.0517 52.5956C41.3695 52.5956 42.6749 52.5956 43.9926 52.5956C45.0394 52.5956 45.7291 53.288 45.7414 54.3266C45.7537 55.0067 45.7537 55.6867 45.7537 56.3667C45.7537 56.4038 45.7783 56.4409 45.8276 56.5522C46.0369 56.5522 46.2833 56.5522 46.5172 56.5522C50.9507 56.5522 55.3842 56.5522 59.8177 56.5522C59.9778 56.5522 60.1502 56.5398 60.3103 56.5646C60.7291 56.614 61 56.8613 61 57.2941C60.9877 57.7268 60.7167 57.9617 60.2857 57.9988C60.1379 58.0112 60.0025 57.9988 59.8547 57.9988C40.6059 57.9988 21.3448 57.9988 2.09606 57.9988C1.93596 57.9988 1.71429 58.0606 1.61576 57.9741C1.36946 57.7763 1 57.5166 1 57.2817C1 57.0468 1.35714 56.7624 1.60345 56.5769C1.7266 56.4904 1.96059 56.5522 2.14532 56.5522C5.90148 56.5522 9.65764 56.5522 13.4138 56.5522C13.6601 56.5522 13.9064 56.5522 14.2512 56.5522C14.2512 55.8351 14.2512 55.1427 14.2512 54.4503C14.2512 53.2509 14.9039 52.5956 16.1232 52.5956C17.8842 52.5956 19.6576 52.5956 21.4187 52.5956C21.6404 52.5956 21.8621 52.5956 22.2438 52.5956C22.0961 52.1876 22.0591 51.829 21.8744 51.5818C20.5197 49.7271 19.1404 47.8725 17.7365 46.0549C17.5764 45.8447 17.2069 45.6716 16.936 45.6593C15.0887 45.6222 13.2414 45.6469 11.3941 45.6469C10.5443 45.6469 10.3227 45.4244 10.3227 44.5465C10.3227 43.7428 10.3103 42.9391 10.3227 42.1355C10.335 41.5049 10.5936 41.2329 11.2217 41.2329C17.3424 41.2329 23.4507 41.2329 29.5714 41.2329C30.2118 41.2329 30.4704 41.5049 30.4828 42.1355C30.4951 42.8773 30.4828 43.6192 30.4828 44.3116C31.3941 44.5836 32.2685 44.868 33.1429 45.1029C33.2906 45.14 33.5 45.0782 33.6478 45.004C36.8744 43.5079 38.8818 39.8357 38.4261 36.2872C37.9951 32.9735 36.5542 30.9582 33.3522 29.2272C33.1675 29.5363 32.9828 29.8454 32.798 30.1545C31.9975 31.5393 31.197 32.9365 30.3966 34.3213C29.9286 35.1249 29.6946 35.1868 28.8818 34.7169C28.3153 34.3954 27.7488 34.0616 27.1453 33.7154C27.0099 33.9256 26.899 34.0863 26.8005 34.2594C25.766 36.0646 24.7315 37.8574 23.697 39.6626C23.2783 40.3921 23.032 40.4539 22.3054 40.0459C21.1355 39.3659 19.9655 38.6858 18.7956 38.0058C17.9951 37.536 17.9335 37.3258 18.3892 36.5345C19.4852 34.5685 20.6059 32.6026 21.7635 30.5996ZM32.1084 28.4359C29.436 26.5318 29.4113 23.7622 30.2857 22.0683C30.766 21.141 31.5419 20.4609 32.5148 20.0282C33.968 19.3852 35.3842 19.5831 36.8128 20.2631C37.8842 18.3961 38.9433 16.5662 40.0148 14.6992C37.2315 13.0795 34.4852 11.4968 31.6897 9.87711C28.1182 16.0963 24.5591 22.2661 20.9877 28.4977C23.7709 30.1174 26.5172 31.7124 29.3005 33.3197C30.2488 31.6629 31.1847 30.0432 32.1084 28.4359ZM37.835 51.7301C42.2438 49.5046 46.6034 44.0025 46.3818 36.7941C46.2094 31.0695 43.697 26.643 38.9187 23.2058C39.2512 26.0867 38.1305 27.9042 35.5443 28.7821C41.7143 33.3445 41.1108 42.2838 34.7562 46.0797C36.5419 47.551 37.5764 49.4304 37.835 51.7301ZM44.2635 54.0793C34.7069 54.0793 25.2241 54.0793 15.7167 54.0793C15.7167 54.9077 15.7167 55.6991 15.7167 56.5027C25.2488 56.5027 34.7562 56.5027 44.2635 56.5027C44.2635 55.6743 44.2635 54.8954 44.2635 54.0793ZM23.5616 52.5462C27.8966 52.5462 32.133 52.5462 36.4187 52.5462C36.4187 50.1104 35.569 48.1445 33.5123 46.871C31.2217 45.4491 28.8325 45.4367 26.5296 46.8339C24.4236 48.1074 23.5616 50.0857 23.5616 52.5462ZM37.6502 24.232C37.6502 22.5505 36.1601 21.0544 34.4606 21.042C32.6502 21.0297 31.1108 22.5628 31.1108 24.368C31.1108 26.0372 32.7241 27.5827 34.4606 27.5951C36.1231 27.5951 37.6379 26.0001 37.6502 24.232ZM28.9803 42.7042C23.2291 42.7042 17.5025 42.7042 11.7759 42.7042C11.7759 43.2112 11.7759 43.6686 11.7759 44.1508C17.5271 44.1508 23.2414 44.1508 28.9803 44.1508C28.9803 43.6563 28.9803 43.1988 28.9803 42.7042ZM34.4606 9.80292C35.9015 10.6437 37.2808 11.435 38.6847 12.251C39.5099 10.8168 40.298 9.432 41.1108 8.03483C39.6699 7.20643 38.303 6.41511 36.8867 5.59907C36.0739 7.0086 35.2857 8.36867 34.4606 9.80292ZM19.7808 36.9301C20.6182 37.4123 21.4064 37.8574 22.1576 38.3273C22.5271 38.5622 22.6995 38.488 22.9089 38.1171C23.734 36.6457 24.5837 35.1991 25.4212 33.7401C25.5566 33.4928 25.6921 33.2579 25.8399 32.9859C24.867 32.4295 23.9557 31.8979 22.9951 31.3415C21.899 33.2332 20.8522 35.0507 19.7808 36.9301ZM43.7833 6.22965C43.697 6.13074 43.5739 5.82163 43.3399 5.68562C41.5296 4.59757 39.7069 3.54661 37.8719 2.49564C37.3547 2.1989 36.9852 2.34727 36.702 2.86657C36.4433 3.33641 36.5542 3.68261 37.0714 3.97936C38.8941 5.04268 40.7167 6.09364 42.5517 7.15697C43.1182 7.49081 43.7833 7.09515 43.7833 6.22965ZM22.4778 49.9991C23.1305 48.1569 24.202 46.8092 25.7537 45.6716C23.5123 45.6716 21.431 45.6716 19.2389 45.6716C20.335 47.1306 21.3571 48.5031 22.4778 49.9991Z" fill="#142DAD" stroke="#142DAD" stroke-width="0.5"/>
<path d="M28.7463 59.5197C35.3104 59.5197 41.8744 59.5197 48.4508 59.5197C48.6355 59.5197 48.8695 59.4579 48.9926 59.5444C49.2513 59.7299 49.5838 59.9648 49.633 60.2368C49.7193 60.6448 49.3991 60.9045 48.9803 60.9663C48.8449 60.991 48.6971 60.9787 48.5493 60.9787C35.3596 60.9787 22.1577 60.9787 8.96802 60.9787C8.80792 60.9787 8.58625 61.0405 8.48773 60.9539C8.24142 60.7561 7.88428 60.4841 7.88428 60.2368C7.88428 60.0019 8.25374 59.7299 8.50004 59.5444C8.62319 59.4579 8.85718 59.5197 9.04191 59.5197C15.6183 59.5197 22.1823 59.5197 28.7463 59.5197Z" fill="#54D8AF" stroke="#54D8AF" stroke-width="0.5"/>
<path d="M19.9162 23.6386C19.2265 23.6263 18.9063 23.1564 19.0664 22.6742C19.1157 22.5258 19.2142 22.3775 19.3004 22.2415C21.2093 18.9155 23.1305 15.5895 25.0393 12.2635C25.1255 12.1028 25.2118 11.8802 25.3472 11.8184C25.5812 11.7071 25.926 11.5835 26.0985 11.6824C26.3078 11.7937 26.431 12.1399 26.5049 12.3995C26.5418 12.5355 26.394 12.7457 26.3078 12.8941C24.362 16.2819 22.4285 19.6573 20.4704 23.0328C20.3226 23.3048 20.0393 23.5026 19.9162 23.6386Z" fill="#54D8AF" stroke="#54D8AF" stroke-width="0.5"/>
<path d="M43.9806 23.1316C43.5619 23.1316 43.1678 22.7606 43.2171 22.3526C43.2663 21.9199 43.5003 21.6355 43.9683 21.6355C44.424 21.6355 44.6826 21.9075 44.7319 22.3403C44.7811 22.7606 44.4117 23.1316 43.9806 23.1316Z" fill="#54D8AF" stroke="#54D8AF" stroke-width="0.5"/>
<path d="M18.3396 25.5798C17.9332 25.5427 17.65 25.3078 17.5884 24.8627C17.5268 24.467 17.9209 24.0343 18.3273 24.0466C18.7707 24.059 19.0416 24.3187 19.1155 24.7514C19.1648 25.1471 18.7707 25.5674 18.3396 25.5798Z" fill="#54D8AF" stroke="#54D8AF" stroke-width="0.5"/>
</svg>
