<svg width="56" height="56" viewBox="0 0 56 56" fill="none" xmlns="http://www.w3.org/2000/svg">
<path d="M3.05989 11.1799C2.35996 11.1799 1.74912 11.1926 1.13827 11.1799C0.400162 11.1671 0.018382 10.7724 0.00565599 10.0339C-0.00706999 8.7988 0.00565599 7.57643 0.00565599 6.34133C0.00565599 5.43729 0.361984 5.08077 1.27825 5.08077C5.26149 5.08077 9.24472 5.06803 13.2407 5.0935C13.6861 5.0935 13.8897 4.95343 14.0933 4.55871C15.6332 1.56646 18.1147 -0.0251651 21.4489 0.000300885C24.745 0.0257669 27.1629 1.63012 28.6773 4.55871C28.8809 4.95343 29.0973 5.08077 29.5299 5.08077C33.5005 5.06803 37.4582 5.06803 41.4287 5.06803C42.4214 5.06803 42.7522 5.41182 42.7522 6.405C42.7522 7.58916 42.7522 8.78607 42.7522 9.97023C42.7522 10.7979 42.3832 11.1671 41.556 11.1799C40.9706 11.1799 40.3725 11.1799 39.7489 11.1799C39.7489 13.2299 39.7489 15.229 39.7489 17.2917C40.0162 17.2917 40.258 17.2917 40.4997 17.2917C45.2084 17.2917 49.917 17.2917 54.6256 17.2917C55.6691 17.2917 55.9873 17.61 56 18.6541C56 19.8001 56 20.9461 56 22.092C56 23.0598 55.6564 23.3908 54.7147 23.4035C54.4856 23.4035 54.2565 23.4035 53.9638 23.4035C53.9638 23.7091 53.9638 23.9511 53.9638 24.2057C53.9638 34.3285 53.9638 44.4512 53.9638 54.5612C53.9638 55.6944 53.6711 56 52.5385 56C36.5292 56 20.5199 56 4.51066 56C3.35259 56 3.05989 55.7071 3.05989 54.5357C3.05989 40.3257 3.05989 26.1029 3.05989 11.8929C3.05989 11.6765 3.05989 11.4727 3.05989 11.1799ZM5.14696 11.1926C5.14696 22.7669 5.14696 34.2648 5.14696 45.7627C8.21392 45.7627 11.23 45.7627 14.2333 45.7627C14.2333 44.4002 14.2333 43.0887 14.2333 41.7136C13.5461 41.7136 12.9098 41.7136 12.2735 41.7136C12.2735 41.0133 12.2735 40.3894 12.2735 39.74C18.382 39.74 24.4523 39.74 30.5098 39.74C30.5098 40.4276 30.5098 41.0642 30.5098 41.7645C29.8354 41.7645 29.1991 41.7645 28.5628 41.7645C28.5628 43.1397 28.5628 44.4639 28.5628 45.7627C31.6297 45.7627 34.6458 45.7627 37.6491 45.7627C37.6491 34.2139 37.6491 22.7287 37.6491 11.1799C37.4328 11.1799 37.2419 11.1799 37.0637 11.1799C34.544 11.1799 32.0115 11.1926 29.4918 11.1671C29.0591 11.1671 28.8809 11.3072 28.7028 11.6892C26.9211 15.3563 22.7852 17.1389 18.9165 15.8783C16.524 15.1016 14.8569 13.4973 13.8515 11.1926C10.9373 11.1926 8.06121 11.1926 5.14696 11.1926ZM39.7362 45.7754C43.8212 45.7754 47.8554 45.7754 51.8768 45.7754C51.8768 38.3011 51.8768 30.8651 51.8768 23.4417C47.8045 23.4417 43.7831 23.4417 39.7362 23.4417C39.7362 30.8905 39.7362 38.3011 39.7362 45.7754ZM21.4108 14.2358C24.7959 14.2231 27.5065 11.4727 27.5065 8.06029C27.4938 4.74971 24.7323 2.01211 21.4108 2.01211C18.0129 2.01211 15.2768 4.74971 15.2896 8.16215C15.2768 11.5109 18.0384 14.2358 21.4108 14.2358ZM51.8895 53.9373C51.8895 53.2497 51.8895 52.613 51.8895 51.9C49.8534 51.9 47.8554 51.9 45.8574 51.9C45.8574 51.1997 45.8574 50.5757 45.8574 49.8754C47.8935 49.8754 49.8915 49.8754 51.8895 49.8754C51.8895 49.1624 51.8895 48.513 51.8895 47.9018C47.8045 47.9018 43.7703 47.9018 39.7489 47.9018C39.7489 49.9391 39.7489 51.9254 39.7489 53.9373C43.7958 53.9373 47.8172 53.9373 51.8895 53.9373ZM14.2206 53.9373C14.2206 51.8745 14.2206 49.8754 14.2206 47.8891C11.1536 47.8891 8.13756 47.8891 5.13423 47.8891C5.13423 48.5639 5.13423 49.2006 5.13423 49.8882C6.15231 49.8882 7.13221 49.8882 8.11211 49.8882C8.11211 50.6012 8.11211 51.2379 8.11211 51.9254C7.09403 51.9254 6.12686 51.9254 5.14696 51.9254C5.14696 52.613 5.14696 53.2624 5.14696 53.9245C8.17574 53.9373 11.1791 53.9373 14.2206 53.9373ZM37.6491 47.8891C34.5822 47.8891 31.5661 47.8891 28.5628 47.8891C28.5628 49.9391 28.5628 51.9382 28.5628 53.9118C31.6297 53.9118 34.6458 53.9118 37.6491 53.9118C37.6491 53.2369 37.6491 52.6003 37.6491 51.9127C36.631 51.9127 35.6511 51.9127 34.684 51.9127C34.684 51.1997 34.684 50.563 34.684 49.8754C35.702 49.8754 36.6692 49.8754 37.6619 49.8754C37.6491 49.1879 37.6491 48.5639 37.6491 47.8891ZM16.3204 49.8372C17.6948 49.8372 19.0183 49.8372 20.3163 49.8372C20.3163 47.1124 20.3163 44.4257 20.3163 41.7645C18.9547 41.7645 17.6566 41.7645 16.3204 41.7645C16.3204 44.4766 16.3204 47.1378 16.3204 49.8372ZM22.4288 49.8372C23.8033 49.8372 25.1268 49.8372 26.4248 49.8372C26.4248 47.1124 26.4248 44.4257 26.4248 41.7645C25.0631 41.7645 23.7651 41.7645 22.4288 41.7645C22.4288 44.4766 22.4288 47.1378 22.4288 49.8372ZM53.9384 19.3672C49.1661 19.3672 44.4575 19.3672 39.7616 19.3672C39.7616 20.0548 39.7616 20.7041 39.7616 21.3281C44.5084 21.3281 49.217 21.3281 53.9384 21.3281C53.9384 20.6659 53.9384 20.042 53.9384 19.3672ZM2.06727 9.10439C5.80871 9.10439 9.51197 9.10439 13.1898 9.10439C13.1898 8.41681 13.1898 7.76743 13.1898 7.14351C9.46106 7.14351 5.77053 7.14351 2.06727 7.14351C2.06727 7.79289 2.06727 8.42954 2.06727 9.10439ZM29.5554 9.10439C33.2968 9.10439 37.0001 9.10439 40.6779 9.10439C40.6779 8.41681 40.6779 7.76743 40.6779 7.14351C36.9492 7.14351 33.2587 7.14351 29.5554 7.14351C29.5554 7.79289 29.5554 8.42954 29.5554 9.10439ZM20.3291 53.9373C20.3291 53.2369 20.3291 52.6003 20.3291 51.9764C18.9674 51.9764 17.6439 51.9764 16.3331 51.9764C16.3331 52.6512 16.3331 53.2879 16.3331 53.9373C17.6693 53.9373 18.9801 53.9373 20.3291 53.9373ZM22.4543 51.9509C22.4543 52.6385 22.4543 53.2879 22.4543 53.9118C23.816 53.9118 25.1395 53.9118 26.4503 53.9118C26.4503 53.2369 26.4503 52.6003 26.4503 51.9509C25.1013 51.9509 23.8033 51.9509 22.4543 51.9509Z" fill="#142DAD"/>
<path d="M15.2772 32.584C15.2772 33.539 15.2772 34.494 15.2772 35.449C15.2772 36.2639 14.8954 36.6459 14.0682 36.6459C12.1593 36.6459 10.2504 36.6459 8.35427 36.6459C7.52708 36.6459 7.1453 36.2766 7.1453 35.449C7.1453 33.5263 7.13258 31.5909 7.1453 29.6682C7.1453 28.8915 7.53981 28.5095 8.3161 28.5095C10.2377 28.4968 12.1721 28.4968 14.0937 28.5095C14.8827 28.5095 15.2645 28.8915 15.2772 29.6682C15.2772 30.6359 15.2772 31.6163 15.2772 32.584ZM9.19419 34.5577C10.5813 34.5577 11.9048 34.5577 13.2156 34.5577C13.2156 33.1952 13.2156 31.8965 13.2156 30.5722C11.8539 30.5722 10.5431 30.5722 9.19419 30.5722C9.19419 31.9219 9.19419 33.2207 9.19419 34.5577Z" fill="#142DAD"/>
<path d="M25.4574 32.635C25.4574 33.59 25.4701 34.5449 25.4574 35.4999C25.4446 36.2511 25.0629 36.6459 24.3248 36.6459C22.3777 36.6586 20.4306 36.6586 18.4835 36.6459C17.7072 36.6459 17.3255 36.2511 17.3255 35.4617C17.3127 33.539 17.3127 31.6036 17.3255 29.6809C17.3255 28.8915 17.7072 28.5095 18.4835 28.5095C20.4306 28.4968 22.3777 28.4968 24.3248 28.5095C25.0629 28.5095 25.4446 28.9042 25.4574 29.6555C25.4701 30.6486 25.4574 31.6418 25.4574 32.635ZM23.3958 30.5722C22.0214 30.5722 20.6978 30.5722 19.3998 30.5722C19.3998 31.9347 19.3998 33.2589 19.3998 34.5704C20.7615 34.5704 22.0595 34.5704 23.3958 34.5704C23.3958 33.2334 23.3958 31.9347 23.3958 30.5722Z" fill="#142DAD"/>
<path d="M31.5026 36.6459C30.5482 36.6459 29.5937 36.6586 28.6393 36.6459C27.8884 36.6331 27.4939 36.2639 27.4939 35.5126C27.4812 33.539 27.4812 31.5654 27.4939 29.6045C27.4939 28.9042 27.9012 28.5095 28.6011 28.5095C30.5736 28.4968 32.5461 28.4968 34.5059 28.5095C35.2186 28.5095 35.6131 28.9042 35.6131 29.6045C35.6258 31.5909 35.6258 33.59 35.6131 35.5763C35.6131 36.2384 35.2059 36.6331 34.5314 36.6459C33.5388 36.6586 32.5207 36.6459 31.5026 36.6459ZM29.581 30.5595C29.581 31.9474 29.581 33.2716 29.581 34.5831C30.9427 34.5831 32.2407 34.5831 33.5642 34.5831C33.5642 33.2334 33.5642 31.9092 33.5642 30.5595C32.2153 30.5595 30.9172 30.5595 29.581 30.5595Z" fill="#142DAD"/>
<path d="M11.2049 26.4594C10.225 26.4594 9.25783 26.4721 8.27793 26.4594C7.5271 26.4467 7.13259 26.0774 7.13259 25.3262C7.11987 23.3526 7.11987 21.3789 7.13259 19.4181C7.13259 18.7177 7.53982 18.323 8.23975 18.323C10.2123 18.3103 12.1721 18.3103 14.1446 18.323C14.8573 18.323 15.2518 18.7177 15.2518 19.4181C15.2645 21.4044 15.2645 23.4035 15.2518 25.3898C15.2518 26.052 14.8445 26.4467 14.1701 26.4594C13.2029 26.4721 12.1975 26.4594 11.2049 26.4594ZM9.1942 24.3839C10.5686 24.3839 11.8921 24.3839 13.1902 24.3839C13.1902 23.0215 13.1902 21.6973 13.1902 20.3858C11.8285 20.3858 10.5304 20.3858 9.1942 20.3858C9.1942 21.7227 9.1942 23.0215 9.1942 24.3839Z" fill="#142DAD"/>
<path d="M25.4574 22.4485C25.4574 23.4035 25.4701 24.3585 25.4574 25.3134C25.4446 26.0647 25.0629 26.4594 24.3248 26.4594C22.3777 26.4721 20.4306 26.4721 18.4835 26.4594C17.7072 26.4594 17.3255 26.0647 17.3255 25.2752C17.3127 23.3526 17.3127 21.4171 17.3255 19.4945C17.3255 18.705 17.7072 18.323 18.4835 18.323C20.4306 18.3103 22.3777 18.3103 24.3248 18.323C25.0629 18.323 25.4446 18.7177 25.4574 19.469C25.4701 20.4622 25.4574 21.4553 25.4574 22.4485ZM19.3998 20.373C19.3998 21.7482 19.3998 23.0724 19.3998 24.3712C20.7615 24.3712 22.085 24.3712 23.3958 24.3712C23.3958 23.0088 23.3958 21.71 23.3958 20.373C22.0468 20.373 20.7488 20.373 19.3998 20.373Z" fill="#142DAD"/>
<path d="M35.6385 22.3722C35.6385 23.3271 35.6385 24.2821 35.6385 25.2371C35.6385 26.0647 35.2695 26.4594 34.455 26.4594C32.5334 26.4594 30.599 26.4594 28.6774 26.4594C27.8884 26.4594 27.5066 26.0775 27.5066 25.3007C27.4939 23.3781 27.4939 21.4426 27.5066 19.52C27.5066 18.7051 27.8884 18.3358 28.7156 18.3231C30.6245 18.3231 32.5334 18.3231 34.4296 18.3231C35.2567 18.3231 35.6258 18.6923 35.6385 19.52C35.6385 20.4622 35.6385 21.4172 35.6385 22.3722ZM29.5555 24.3712C30.9426 24.3712 32.2534 24.3712 33.5769 24.3712C33.5769 23.0215 33.5769 21.71 33.5769 20.3731C32.228 20.3731 30.9045 20.3731 29.5555 20.3731C29.5555 21.7228 29.5555 23.0343 29.5555 24.3712Z" fill="#142DAD"/>
<path d="M45.8067 43.7764C44.8522 43.7764 43.8978 43.7764 42.9433 43.7764C42.1288 43.7764 41.7471 43.3944 41.7471 42.5668C41.7471 40.6569 41.7471 38.7596 41.7471 36.8497C41.7471 35.9966 42.1161 35.6273 42.9942 35.6273C44.8777 35.6273 46.7611 35.6273 48.6446 35.6273C49.5099 35.6273 49.879 35.9966 49.879 36.8624C49.879 38.7469 49.879 40.6314 49.879 42.5159C49.879 43.4072 49.5099 43.7637 48.5937 43.7637C47.6774 43.7764 46.7484 43.7764 45.8067 43.7764ZM47.8301 37.7028C46.4557 37.7028 45.1322 37.7028 43.8341 37.7028C43.8341 39.0652 43.8341 40.3895 43.8341 41.701C45.1958 41.701 46.4939 41.701 47.8301 41.701C47.8301 40.364 47.8301 39.0525 47.8301 37.7028Z" fill="#142DAD"/>
<path d="M49.8914 29.5281C49.8914 30.4831 49.8914 31.4381 49.8914 32.3931C49.8914 33.208 49.5097 33.5772 48.6825 33.59C46.7736 33.59 44.8774 33.59 42.9685 33.59C42.1413 33.59 41.7595 33.208 41.7595 32.3931C41.7468 30.4704 41.7468 28.535 41.7595 26.6123C41.7595 25.8356 42.154 25.4536 42.9431 25.4536C44.8647 25.4408 46.799 25.4408 48.7207 25.4536C49.5097 25.4536 49.8914 25.8356 49.8914 26.625C49.8914 27.58 49.8914 28.5604 49.8914 29.5281ZM47.8298 27.5163C46.4554 27.5163 45.1319 27.5163 43.8339 27.5163C43.8339 28.8788 43.8339 30.203 43.8339 31.5145C45.1956 31.5145 46.4936 31.5145 47.8298 31.5145C47.8298 30.1775 47.8298 28.866 47.8298 27.5163Z" fill="#142DAD"/>
<path d="M22.4033 12.1603C21.7034 12.1603 21.0798 12.1603 20.3799 12.1603C20.3799 11.1799 20.3799 10.1867 20.3799 9.14262C19.3364 9.14262 18.3437 9.14262 17.3384 9.14262C17.3384 8.44231 17.3384 7.81839 17.3384 7.11808C18.3183 7.11808 19.3109 7.11808 20.3544 7.11808C20.3544 6.07397 20.3544 5.0808 20.3544 4.07489C21.0544 4.07489 21.6779 4.07489 22.3779 4.07489C22.3779 5.05533 22.3779 6.0485 22.3779 7.09261C23.4214 7.09261 24.414 7.09261 25.4194 7.09261C25.4194 7.79292 25.4194 8.41684 25.4194 9.11716C24.4395 9.11716 23.4469 9.11716 22.4033 9.11716C22.4033 10.174 22.4033 11.1544 22.4033 12.1603Z" fill="#54D8AF"/>
<path d="M41.7852 49.901C42.4596 49.901 43.0705 49.901 43.7322 49.901C43.7322 50.5504 43.7322 51.187 43.7322 51.8746C43.1087 51.8746 42.4724 51.8746 41.7852 51.8746C41.7852 51.238 41.7852 50.6013 41.7852 49.901Z" fill="#54D8AF"/>
<path d="M12.1971 49.939C12.1971 50.6011 12.1971 51.2251 12.1971 51.8872C11.5354 51.8872 10.8991 51.8872 10.2246 51.8872C10.2246 51.2378 10.2246 50.6139 10.2246 49.939C10.8482 49.939 11.4972 49.939 12.1971 49.939Z" fill="#54D8AF"/>
<path d="M32.5335 51.8999C31.8718 51.8999 31.2482 51.8999 30.5864 51.8999C30.5864 51.2378 30.5864 50.5884 30.5864 49.9263C31.2355 49.9263 31.859 49.9263 32.5335 49.9263C32.5335 50.5629 32.5335 51.1996 32.5335 51.8999Z" fill="#54D8AF"/>
</svg>
