<svg width="58" height="58" viewBox="0 0 58 58" fill="none" xmlns="http://www.w3.org/2000/svg">
<path d="M4.13172 36.2392C3.13441 36.2392 2.21481 36.2392 1.29521 36.2392C0.362659 36.2392 0 35.8766 0 34.9574C0 28.2249 0 21.4924 0 14.7599C0 13.8407 0.375611 13.4782 1.30816 13.4782C2.22776 13.4782 3.16032 13.4782 4.11877 13.4782C4.11877 12.4294 4.11877 11.4455 4.11877 10.3968C3.25098 10.2155 3.0826 9.59403 3.10851 8.76542C3.12146 6.97872 3.09556 5.19202 3.09556 3.39237C3.09556 2.43429 3.45821 2.08472 4.42962 2.08472C6.65739 2.08472 8.8722 2.08472 11.1 2.08472C12.0325 2.08472 12.3952 2.44724 12.3952 3.37943C12.3952 5.19202 12.3952 7.00461 12.3952 8.81721C12.3952 9.89181 12.3304 9.99539 11.3849 10.4485C11.3849 11.4325 11.3849 12.4165 11.3849 13.4523C12.7578 13.4523 14.1049 13.4523 15.4907 13.4523C15.4907 12.4424 15.4907 11.4584 15.4907 10.4097C14.61 10.2414 14.4675 9.59403 14.4805 8.77836C14.5193 7.00461 14.4934 5.24381 14.4934 3.47006C14.4934 2.44724 14.8431 2.09766 15.8404 2.09766C18.0682 2.09766 20.283 2.09766 22.5108 2.09766C23.4433 2.09766 23.806 2.46018 23.806 3.39237C23.806 5.20497 23.7801 7.01756 23.8189 8.83015C23.8319 9.63287 23.6506 10.2414 22.7957 10.4226C22.7957 11.4455 22.7957 12.4294 22.7957 13.4652C24.1686 13.4652 25.5157 13.4652 26.9015 13.4652C26.9015 12.4553 26.9015 11.4714 26.9015 10.4356C26.0338 10.2543 25.8654 9.61993 25.8913 8.80426C25.9301 7.03051 25.9042 5.2697 25.9042 3.49595C25.9042 2.47313 26.2539 2.12356 27.2512 2.12356C29.4531 2.12356 31.655 2.12356 33.8568 2.12356C34.8671 2.12356 35.2168 2.47313 35.2168 3.483C35.2168 5.32149 35.2168 7.14703 35.2168 8.98552C35.2168 9.90476 35.0873 10.086 34.2065 10.4485C34.2065 11.4455 34.2065 12.4424 34.2065 13.517C35.1779 13.517 36.1234 13.517 37.056 13.517C37.9367 13.517 38.3124 13.8925 38.3124 14.7729C38.3124 21.5313 38.3124 28.2767 38.3124 35.0351C38.3124 35.9025 37.9238 36.278 37.0301 36.278C36.1105 36.278 35.1779 36.278 34.1677 36.278C34.1677 36.9383 34.1677 37.5468 34.1677 38.1683C34.1547 40.0068 32.717 41.418 30.8778 41.4568C29.9064 41.4827 28.9868 41.418 28.1968 40.7577C27.3808 40.0715 26.9015 39.217 26.9274 38.1165C26.9404 37.5339 26.9274 36.9512 26.9274 36.3298C25.5545 36.3298 24.2075 36.3298 22.7698 36.3298C22.7698 36.9383 22.7698 37.5468 22.7698 38.1683C22.7569 39.9938 21.3192 41.4309 19.48 41.4698C18.5086 41.4827 17.589 41.4309 16.7989 40.7706C15.9829 40.0844 15.5037 39.2299 15.5296 38.1294C15.5425 37.5468 15.5296 36.9642 15.5296 36.2909C14.8172 36.2909 14.1437 36.2909 13.4572 36.2909C12.7967 36.2909 12.1232 36.2909 11.359 36.2909C11.359 36.9383 11.359 37.5598 11.359 38.1812C11.3461 40.0197 9.90837 41.4439 8.08212 41.4827C7.13662 41.4957 6.22997 41.4568 5.45284 40.8224C4.598 40.1362 4.10582 39.2688 4.13172 38.1424C4.14468 37.508 4.13172 36.9253 4.13172 36.2392ZM15.4778 34.1547C15.4778 27.9271 15.4778 21.7384 15.4778 15.5626C14.0919 15.5626 12.7708 15.5626 11.4238 15.5626C11.4238 21.7902 11.4238 27.9789 11.4238 34.1547C12.8096 34.1547 14.1308 34.1547 15.4778 34.1547ZM26.9015 15.5885C25.4768 15.5885 24.1298 15.5885 22.8216 15.5885C22.8216 21.8161 22.8216 27.9919 22.8216 34.1417C24.2205 34.1417 25.5675 34.1417 26.9015 34.1417C26.9015 27.9271 26.9015 21.7643 26.9015 15.5885ZM32.0694 34.1676C32.0694 29.6491 32.0694 25.2082 32.0694 20.7544C31.0203 20.7544 30.023 20.7544 29.0257 20.7544C29.0257 25.2471 29.0257 29.7009 29.0257 34.1676C30.0489 34.1676 31.0333 34.1676 32.0694 34.1676ZM4.09287 34.1676C4.09287 27.9271 4.09287 21.7514 4.09287 15.5756C3.39345 15.5756 2.7329 15.5756 2.09824 15.5756C2.09824 21.8031 2.09824 27.9789 2.09824 34.1676C2.77175 34.1676 3.40641 34.1676 4.09287 34.1676ZM36.2141 34.1676C36.2141 27.9271 36.2141 21.7514 36.2141 15.5756C35.5147 15.5756 34.8671 15.5756 34.2065 15.5756C34.2065 21.7902 34.2065 27.966 34.2065 34.1676C34.88 34.1676 35.5277 34.1676 36.2141 34.1676ZM17.6278 15.5497C17.6278 19.7187 17.6278 23.8229 17.6278 27.9271C18.6769 27.9271 19.6743 27.9271 20.6586 27.9271C20.6586 23.7711 20.6586 19.6669 20.6586 15.5497C19.6354 15.5497 18.651 15.5497 17.6278 15.5497ZM9.27371 34.1676C9.27371 30.7107 9.27371 27.2927 9.27371 23.8617C8.23755 23.8617 7.24023 23.8617 6.21702 23.8617C6.21702 27.3186 6.21702 30.7237 6.21702 34.1676C7.24023 34.1676 8.22459 34.1676 9.27371 34.1676ZM10.3228 4.18215C8.56135 4.18215 6.87757 4.18215 5.1938 4.18215C5.1938 5.56749 5.1938 6.91398 5.1938 8.24753C6.92938 8.24753 8.61316 8.24753 10.3228 8.24753C10.3228 6.87514 10.3228 5.55454 10.3228 4.18215ZM21.7077 8.27343C21.7077 6.86219 21.7077 5.5157 21.7077 4.18215C19.9722 4.18215 18.2884 4.18215 16.5917 4.18215C16.5917 5.56749 16.5917 6.91398 16.5917 8.27343C18.3143 8.27343 19.9851 8.27343 21.7077 8.27343ZM33.0927 8.27343C33.0927 6.84925 33.0927 5.5157 33.0927 4.19509C31.3571 4.19509 29.6603 4.19509 28.0025 4.19509C28.0025 5.59338 28.0025 6.93988 28.0025 8.27343C29.7251 8.27343 31.3959 8.27343 33.0927 8.27343ZM6.22997 15.5497C6.22997 17.6471 6.22997 19.6798 6.22997 21.7125C7.27909 21.7125 8.2764 21.7125 9.26076 21.7125C9.26076 19.628 9.26076 17.5953 9.26076 15.5497C8.23755 15.5497 7.25318 15.5497 6.22997 15.5497ZM20.6716 34.1676C20.6716 32.7564 20.6716 31.4099 20.6716 30.0763C19.6225 30.0763 18.6251 30.0763 17.6408 30.0763C17.6408 31.4617 17.6408 32.8082 17.6408 34.1676C18.664 34.1676 19.6484 34.1676 20.6716 34.1676ZM9.27371 13.4393C9.27371 12.4165 9.27371 11.4066 9.27371 10.3838C8.2505 10.3838 7.25318 10.3838 6.21702 10.3838C6.21702 11.4066 6.21702 12.4165 6.21702 13.4393C7.25318 13.4393 8.2505 13.4393 9.27371 13.4393ZM20.6586 13.4393C20.6586 12.4424 20.6586 11.4196 20.6586 10.3838C19.6484 10.3838 18.651 10.3838 17.6278 10.3838C17.6278 11.4196 17.6278 12.4165 17.6278 13.4393C18.6381 13.4393 19.6225 13.4393 20.6586 13.4393ZM32.0694 13.4523C32.0694 12.3906 32.0694 11.3937 32.0694 10.3968C31.0203 10.3968 30.023 10.3968 29.0257 10.3968C29.0257 11.4455 29.0257 12.4424 29.0257 13.4523C30.0489 13.4523 31.0333 13.4523 32.0694 13.4523ZM32.0824 15.5756C31.0074 15.5756 30.01 15.5756 29.0257 15.5756C29.0257 16.6243 29.0257 17.6212 29.0257 18.6052C30.0748 18.6052 31.0721 18.6052 32.0824 18.6052C32.0824 17.5694 32.0824 16.5984 32.0824 15.5756ZM6.19111 36.278C6.19111 37.0807 6.16521 37.8316 6.20406 38.5696C6.24292 39.1522 6.59263 39.4112 7.38271 39.3594C8.08212 39.3206 9.07943 39.7478 9.28667 38.5955C9.41619 37.8446 9.31257 37.0678 9.31257 36.278C8.2505 36.278 7.26614 36.278 6.19111 36.278ZM17.589 36.278C17.589 37.0548 17.5501 37.8058 17.6019 38.5437C17.6408 39.217 17.9775 39.3594 19.208 39.3594C20.3089 39.3594 20.6457 39.1911 20.6845 38.5437C20.7234 37.7928 20.6975 37.0548 20.6975 36.265C19.6484 36.278 18.651 36.278 17.589 36.278ZM32.1083 36.278C31.0333 36.278 30.036 36.278 28.9868 36.278C28.9868 37.0419 28.9609 37.7669 28.9998 38.4919C29.0386 39.2429 29.3495 39.3723 30.8908 39.3594C31.7586 39.3594 32.0824 39.1264 32.1083 38.4661C32.1212 37.7669 32.1083 37.0548 32.1083 36.278Z" fill="#142DAD"/>
<path d="M55.9277 48.6943C56.2904 48.6943 56.5753 48.6813 56.8473 48.6943C57.5468 48.7202 58.013 49.1345 58.0001 49.743C57.9871 50.3256 57.5468 50.7399 56.8732 50.7399C55.9018 50.7529 54.9304 50.7399 53.9072 50.7399C53.9072 52.4489 53.9072 54.145 53.9072 55.9317C54.1922 55.9317 54.516 55.9188 54.8268 55.9317C55.4874 55.9576 55.9277 56.3849 55.9277 56.9675C55.9277 57.5501 55.4874 57.9773 54.8139 57.9903C52.1198 58.0032 49.4128 58.0032 46.7188 57.9903C46.0453 57.9903 45.6049 57.576 45.579 56.9934C45.566 56.3978 46.0194 55.9576 46.7188 55.9317C47.0037 55.9188 47.2757 55.9317 47.5995 55.9317C47.5995 54.2097 47.5995 52.5137 47.5995 50.7399C46.6022 50.7399 45.5919 50.7399 44.5946 50.7399C44.0506 50.7399 43.6103 50.468 43.5714 49.9501C43.5455 49.6006 43.7657 49.1992 43.9859 48.8885C44.0895 48.7461 44.4133 48.7202 44.6335 48.6943C44.9055 48.6684 45.1904 48.6813 45.579 48.6813C45.579 48.3965 45.579 48.1246 45.579 47.8527C45.579 39.6572 45.579 31.4617 45.579 23.2532C45.579 22.1786 45.6308 22.1268 46.654 21.7255C46.8094 21.6607 46.926 21.3889 46.9778 21.1817C47.5218 19.0325 48.0658 16.8833 48.5839 14.734C48.7393 14.0867 48.9725 13.5429 49.7237 13.4134C49.7237 9.63289 49.7237 5.87824 49.7237 2.12358C49.7237 1.8258 49.7237 1.51507 49.7237 1.21728C49.7366 0.466351 50.1511 -0.0126911 50.7728 0.000256038C51.3686 0.0132031 51.7701 0.479299 51.7701 1.19139C51.7831 2.42136 51.7701 3.65134 51.7701 4.88131C51.7701 7.70378 51.7701 10.5262 51.7701 13.4005C52.5213 13.5429 52.7545 14.0996 52.9228 14.7729C53.428 16.9351 53.9849 19.0713 54.516 21.2335C54.5937 21.5313 54.6714 21.7384 55.0729 21.7902C55.7335 21.8938 55.9277 22.3987 55.9277 23.0331C55.9148 27.6682 55.9277 32.3162 55.9277 36.9513C55.9277 40.6153 55.9277 44.2923 55.9277 47.9563C55.9277 48.1764 55.9277 48.3965 55.9277 48.6943ZM47.6643 36.2392C47.6643 36.9901 47.6643 37.6245 47.6643 38.3237C48.6875 38.3237 49.6719 38.3107 50.6562 38.3237C51.3945 38.3366 51.8996 38.9063 51.7442 39.5277C51.6017 40.1104 51.2002 40.3693 50.6044 40.3693C49.6201 40.3693 48.6357 40.3693 47.6772 40.3693C47.6772 41.1202 47.6772 41.7805 47.6772 42.4538C48.6746 42.4538 49.633 42.4279 50.5785 42.4667C50.8764 42.4797 51.2909 42.5703 51.4334 42.7904C51.6276 43.0623 51.7831 43.5672 51.6535 43.8132C51.4852 44.124 51.0318 44.4476 50.6821 44.4735C49.6848 44.5642 48.6746 44.4994 47.6772 44.4994C47.6772 45.9366 47.6772 47.283 47.6772 48.6166C49.7625 48.6166 51.796 48.6166 53.8165 48.6166C53.8165 40.3175 53.8165 32.0702 53.8165 23.8359C51.7313 23.8359 49.6978 23.8359 47.6902 23.8359C47.6902 24.5479 47.6902 25.1953 47.6902 25.8685C48.6486 25.8685 49.5553 25.8685 50.4619 25.8685C50.6692 25.8685 50.9023 25.8686 51.0966 25.9462C51.5758 26.1275 51.809 26.503 51.7701 27.0079C51.7312 27.5387 51.2909 27.9142 50.6951 27.9142C49.6848 27.9271 48.6875 27.9142 47.6902 27.9142C47.6902 28.6651 47.6902 29.3125 47.6902 29.9987C48.6357 29.9987 49.5423 29.9987 50.449 29.9987C51.2779 29.9987 51.7572 30.3612 51.7831 30.9956C51.809 31.6559 51.3038 32.0573 50.449 32.0573C49.5294 32.0573 48.6098 32.0573 47.6772 32.0573C47.6772 32.7952 47.6772 33.4426 47.6772 34.1417C48.6486 34.1417 49.5682 34.1417 50.4878 34.1417C51.2909 34.1417 51.7831 34.5431 51.7701 35.1775C51.7572 35.8119 51.2909 36.1874 50.4619 36.1874C49.5423 36.2521 48.6227 36.2392 47.6643 36.2392ZM52.5472 21.7384C52.0421 19.7187 51.5629 17.7896 51.0577 15.8475C51.0318 15.718 50.8505 15.6403 50.7469 15.5238C50.6433 15.6274 50.4878 15.718 50.449 15.8475C50.2936 16.3783 50.164 16.9221 50.0216 17.4659C49.6719 18.8771 49.3222 20.2754 48.9725 21.7255C50.19 21.7384 51.3297 21.7384 52.5472 21.7384ZM49.7496 50.7658C49.7496 52.5266 49.7496 54.2097 49.7496 55.8929C50.449 55.8929 51.0966 55.8929 51.7572 55.8929C51.7572 54.158 51.7572 52.4748 51.7572 50.7658C51.0707 50.7658 50.436 50.7658 49.7496 50.7658Z" fill="#142DAD"/>
<path d="M18.1061 54.9995C17.2642 56.0482 16.3446 56.6827 15.1659 56.8898C14.8939 56.9416 14.609 56.9675 14.337 56.9675C11.7077 56.9675 9.07845 56.9804 6.44917 56.9675C4.07893 56.9675 2.0843 55.0772 2.07135 52.8503C2.0584 50.6234 4.06598 48.7072 6.42326 48.7072C8.1718 48.7072 9.92033 48.7072 11.6689 48.7072C11.7077 48.7072 11.7595 48.6943 11.7984 48.6813C11.6948 48.0858 11.5393 47.4902 11.5134 46.8817C11.4357 45.0044 12.3165 43.5802 13.8966 42.8811C15.5286 42.169 17.3289 42.4667 18.6112 43.7356C20.6317 45.7165 22.6264 47.7103 24.608 49.7301C26.2011 51.3485 26.2011 54.145 24.6469 55.7116C23.0926 57.2782 20.3079 57.2912 18.663 55.7246C18.4558 55.5174 18.3133 55.2714 18.1061 54.9995ZM17.9118 51.9958C18.7019 52.7985 19.479 53.666 20.3468 54.4558C21.2016 55.2455 22.3155 55.142 23.1833 54.2874C24.0381 53.4459 24.1936 52.3324 23.4553 51.5168C22.6523 50.6234 21.7327 49.8336 20.9037 49.0309C19.9064 50.002 18.8961 50.9989 17.9118 51.9958ZM19.3624 47.4125C18.5983 46.6357 17.8211 45.7941 16.9792 45.0303C16.1892 44.2923 14.9717 44.357 14.1557 45.095C13.262 45.9107 13.0547 47.05 13.806 47.9045C14.609 48.8108 15.5545 49.6006 16.3834 50.4033C17.3548 49.4193 18.3522 48.4224 19.3624 47.4125ZM9.28568 50.7529C8.10704 50.7529 6.9802 50.714 5.86632 50.7658C4.80425 50.8176 4.14369 51.6074 4.11779 52.7208C4.09188 53.899 4.67473 54.7794 5.72385 54.8571C6.88954 54.9477 8.08113 54.883 9.28568 54.883C9.28568 53.4977 9.28568 52.1641 9.28568 50.7529ZM16.5389 53.5883C15.6063 52.6691 14.6867 51.7369 13.7542 50.8176C13.6894 50.7529 13.6117 50.6623 13.5469 50.6752C12.8346 50.714 12.1092 50.7529 11.4228 50.8047C11.4228 52.19 11.4228 53.5365 11.4228 54.9089C12.2906 54.9089 13.1066 54.8571 13.9225 54.9219C15.0364 54.9995 15.9042 54.637 16.5389 53.5883Z" fill="#142DAD"/>
<path d="M40.3849 49.743C40.3719 53.0186 37.4188 55.9706 34.1419 55.9058C30.7744 55.854 28.0026 53.0704 27.9767 49.6783C27.9508 46.4156 30.9428 43.4507 34.2196 43.5025C37.6001 43.5802 40.3201 46.3768 40.3849 49.743ZM36.2143 46.1049C35.1004 45.2633 32.4064 45.2763 31.0205 46.8817C29.8548 48.2282 29.6346 50.6364 30.5801 51.7498C32.4452 49.8725 34.3233 48.0081 36.2143 46.1049ZM37.8462 47.7621C35.9423 49.6394 34.0513 51.5168 32.1862 53.3811C33.6498 54.2745 35.9423 53.9767 37.1986 52.682C38.442 51.4002 38.714 49.1086 37.8462 47.7621Z" fill="#54D8AF"/>
</svg>
