<svg width="60" height="60" viewBox="0 0 60 60" fill="none" xmlns="http://www.w3.org/2000/svg">
<path d="M38.7097 48.6821C38.4073 48.8274 38.2016 48.9242 37.996 49.0332C35.6613 50.292 33.3145 51.5388 30.9919 52.834C30.3024 53.2214 29.746 53.2456 29.0323 52.8461C26.7218 51.5388 24.3629 50.3041 22.0282 49.0453C21.8226 48.9363 21.6048 48.8274 21.3266 48.6821C21.3145 48.9484 21.3024 49.1663 21.3024 49.3721C21.3024 52.483 21.3024 55.5818 21.3024 58.6927C21.3024 59.6732 20.9879 59.9879 19.996 59.9879C13.7661 59.9879 7.53629 59.9879 1.30645 59.9879C0.314516 59.9879 0 59.6732 0 58.6927C0 53.754 0 48.8032 0 43.8645C0 42.8719 0.302419 42.5571 1.29435 42.5571C5.97581 42.5571 10.6452 42.5571 15.3266 42.5571C15.6653 42.5571 16.0161 42.5571 16.4516 42.5571C16.4516 42.3514 16.4516 42.1577 16.4516 41.964C16.4395 39.3857 16.4274 36.7953 16.4274 34.217C16.4274 33.866 16.3185 33.6965 15.9798 33.5634C14.1532 32.8129 13.2218 31.0456 13.621 29.0725C12.9073 28.661 12.1815 28.2373 11.4435 27.8378C9.18145 26.6032 6.91935 25.3806 4.64516 24.1701C4.08871 23.8796 3.87097 23.5044 3.87097 22.8749C3.88306 17.912 3.88306 12.9491 3.87097 7.98616C3.87097 7.36883 4.08871 6.98148 4.63306 6.69096C8.66129 4.56054 12.6774 2.3817 16.6935 0.202852C17.2137 -0.0755556 17.6492 -0.0634509 18.1573 0.214957C21 1.75225 23.8669 3.27744 26.7218 4.80263C26.9516 4.92368 27.121 5.03262 27.3992 4.81474C29.2379 3.39849 30.8589 3.44691 32.7097 4.91157C32.7581 4.94789 32.8064 4.9721 32.9032 5.02052C35.8427 3.4348 38.8186 1.86119 41.7581 0.251271C42.3387 -0.063451 42.8105 -0.063451 43.3911 0.251271C47.3831 2.43011 51.3871 4.58475 55.4032 6.72728C55.9355 7.00568 56.1411 7.39303 56.1411 7.98616C56.129 12.9733 56.129 17.9483 56.1411 22.9354C56.1411 23.5286 55.9234 23.9038 55.3911 24.1822C52.3911 25.7801 49.4032 27.4142 46.4153 29.0362C46.7419 31.3845 45.7742 32.946 43.5847 33.7812C43.5847 36.6864 43.5847 39.5915 43.5847 42.5693C43.8266 42.5693 44.0564 42.5693 44.2863 42.5693C49.0887 42.5693 53.879 42.5693 58.6814 42.5693C59.7097 42.5693 60 42.8719 60 43.9008C60 48.8395 60 53.7903 60 58.729C60 59.6732 59.6734 60 58.7298 60C52.4758 60 46.2339 60 39.9798 60C39.0363 60 38.7097 59.6732 38.7097 58.729C38.7097 55.6181 38.7097 52.5193 38.7097 49.4084C38.7097 49.1905 38.7097 48.9847 38.7097 48.6821ZM26.1895 6.76359C23.3468 5.2263 20.5403 3.70111 17.7218 2.20013C17.5524 2.11539 17.25 2.1275 17.0806 2.21223C13.4395 4.14898 9.81048 6.10994 6.18145 8.083C6 8.17984 5.81855 8.47035 5.81855 8.66403C5.79435 13.1791 5.79435 17.7062 5.81855 22.2213C5.81855 22.4149 5.97581 22.6934 6.13306 22.7781C8.92742 24.2912 11.7218 25.7922 14.5282 27.2931C14.625 27.2326 14.6855 27.1842 14.746 27.1358C16.5363 25.7074 18.1935 25.6953 20.0202 27.0631C20.1532 27.16 20.4194 27.1842 20.5766 27.1237C20.8548 27.0268 21.1089 26.8453 21.375 26.7C22.9839 25.8406 24.5927 24.969 26.1895 24.1217C25.8871 22.3786 26.3831 20.9745 27.7863 19.994C29.0927 19.0862 30.5081 19.0135 31.8871 19.8003C33.5444 20.7445 34.1129 22.2455 33.8105 24.1338C35.6976 25.1506 37.5726 26.1553 39.4597 27.1479C39.5927 27.2205 39.871 27.1358 40.004 27.0389C40.7782 26.4337 41.6129 26.0706 42.6048 26.0827C43.7177 26.0948 44.6129 26.5669 45.4355 27.3173C48.254 25.8043 51.0605 24.3154 53.8427 22.8023C54.0121 22.7176 54.1694 22.4392 54.1694 22.2455C54.1814 17.7304 54.1935 13.2033 54.1694 8.68824C54.1694 8.48246 53.9879 8.19194 53.8064 8.09511C50.1895 6.12204 46.5484 4.16108 42.9073 2.23644C42.7137 2.1275 42.3629 2.15171 42.1573 2.26065C40.0766 3.36217 38.0081 4.47581 35.9395 5.60154C35.2137 5.98889 34.5 6.40045 33.7984 6.79991C34.1129 8.95454 33.2661 10.516 31.3306 11.3392C31.0161 11.4723 30.9677 11.6418 30.9677 11.9202C30.9677 13.3364 30.9556 14.7406 30.9435 16.1568C30.9435 16.9315 30.5444 17.4278 29.9516 17.4157C29.371 17.3915 29.0081 16.9194 29.0081 16.1689C29.0081 14.6195 29.0081 13.0701 29.0081 11.5449C26.5887 10.2739 25.8266 9.00296 26.1895 6.76359ZM18.3871 33.8176C18.3871 37.3763 18.3871 40.9593 18.3992 44.5544C18.3992 44.736 18.5927 44.9902 18.7621 45.087C22.4032 47.0722 26.0444 49.0332 29.6976 50.982C29.8548 51.0667 30.1331 51.0667 30.2903 50.982C33.9677 49.021 37.6331 47.048 41.2863 45.0628C41.4435 44.9781 41.6008 44.736 41.6008 44.5665C41.6129 40.9835 41.6129 37.3884 41.6129 33.8055C39.3992 32.9581 38.4194 31.4087 38.7581 29.0483C36.7984 27.9952 34.8387 26.93 32.8911 25.889C31.004 27.5352 28.9597 27.511 27.1089 25.889C25.1492 26.9421 23.1774 28.0073 21.2177 29.0725C21.6048 31.2151 20.8306 32.5103 18.3871 33.8176ZM1.97177 44.5181C1.97177 49.0574 1.97177 53.5361 1.97177 58.0148C7.77823 58.0148 13.5484 58.0148 19.3548 58.0148C19.3548 55.0976 19.2702 52.2046 19.3911 49.3358C19.4516 47.9921 19.0887 47.1932 17.8185 46.7696C16.8024 46.4427 16.246 45.777 16.4395 44.6391C16.4395 44.6149 16.4032 44.5786 16.3669 44.5181C11.5887 44.5181 6.81048 44.5181 1.97177 44.5181ZM43.5484 44.5181C43.5484 44.7239 43.5363 44.8691 43.5484 45.0023C43.6452 45.7407 43.3427 46.2249 42.6532 46.5275C42.121 46.7696 41.6371 47.0964 41.1048 47.3385C40.7419 47.508 40.6331 47.7258 40.6331 48.1253C40.6452 51.2483 40.6452 54.3713 40.6452 57.4943C40.6452 57.6638 40.6694 57.8454 40.6814 58.0027C46.5 58.0027 52.2702 58.0027 58.0282 58.0027C58.0282 53.4756 58.0282 48.9968 58.0282 44.506C53.1895 44.5181 48.3992 44.5181 43.5484 44.5181ZM31.9113 7.69565C31.8992 6.64254 31.0282 5.78311 29.9758 5.79522C28.9355 5.80732 28.0766 6.69096 28.0887 7.74407C28.1129 8.76086 28.9597 9.60819 29.9879 9.6203C31.0403 9.6203 31.9113 8.73666 31.9113 7.69565ZM31.9113 23.2139C31.9234 22.1608 31.0524 21.2892 30.0121 21.2892C28.9597 21.2892 28.1008 22.1607 28.1008 23.2018C28.1008 24.2185 28.9476 25.078 29.9758 25.1022C31.004 25.1264 31.8992 24.2549 31.9113 23.2139ZM19.3306 29.9683C19.3185 28.9152 18.4476 28.0557 17.3952 28.0678C16.3548 28.0799 15.496 28.9636 15.5081 30.0167C15.5323 31.0335 16.379 31.8808 17.4073 31.8929C18.4597 31.8929 19.3306 31.0093 19.3306 29.9683ZM44.4919 29.9683C44.4919 28.9273 43.6089 28.0557 42.5564 28.0678C41.504 28.0799 40.6573 28.9636 40.6694 30.0167C40.6815 31.0335 41.5524 31.8808 42.5685 31.8929C43.621 31.8808 44.4919 31.0093 44.4919 29.9683Z" fill="#142DAD"/>
<path d="M52.2582 12.7433C52.2582 13.5906 52.2582 14.438 52.2582 15.2853C52.2582 15.9873 51.8711 16.4231 51.2783 16.411C50.6856 16.3989 50.3227 15.9752 50.3227 15.2611C50.3227 13.869 50.3106 12.477 50.3348 11.085C50.3469 10.7097 50.2138 10.516 49.8872 10.3466C47.6977 9.18452 45.5203 8.01036 43.3549 6.8241C43.0888 6.67885 42.7501 6.43675 42.6896 6.18255C42.617 5.86783 42.7138 5.41996 42.9074 5.15366C43.2098 4.7542 43.6937 4.81473 44.117 5.04471C45.7138 5.90415 47.2985 6.76358 48.8953 7.62301C49.7662 8.09509 50.613 8.57928 51.4961 9.02716C52.0283 9.29346 52.2824 9.6687 52.2582 10.2739C52.234 11.0971 52.2582 11.9202 52.2582 12.7433Z" fill="#54D8AF"/>
<path d="M9.67756 15.8056C9.67756 17.1613 9.66546 18.5049 9.68966 19.8607C9.68966 20.0786 9.88321 20.3812 10.0768 20.4901C10.9961 21.0348 11.9518 21.5069 12.8832 22.0274C13.5122 22.3784 13.7058 22.8989 13.4276 23.4194C13.1372 23.9521 12.605 24.0731 11.9639 23.7221C10.7784 23.0926 9.59288 22.439 8.3953 21.8095C7.93563 21.5674 7.72998 21.2164 7.72998 20.6959C7.74208 17.706 7.72998 14.7283 7.74208 11.7384C7.74208 11.0243 8.11708 10.6006 8.70982 10.6006C9.30256 10.6006 9.66546 11.0364 9.66546 11.7505C9.67756 13.1063 9.67756 14.462 9.67756 15.8056Z" fill="#54D8AF"/>
<path d="M18.5082 4.89941C18.5928 4.92362 18.8106 4.97204 19.0041 5.08098C20.5041 5.87989 22.0162 6.69091 23.5041 7.50192C24.1815 7.86506 24.363 8.32504 24.0848 8.86975C23.7944 9.43867 23.2622 9.57182 22.5969 9.20868C21.0727 8.39767 19.5606 7.57455 18.0364 6.75143C17.5888 6.50934 17.3227 6.1462 17.4557 5.6257C17.5646 5.16572 17.8791 4.89941 18.5082 4.89941Z" fill="#54D8AF"/>
<path d="M46.2944 24.5576C46.0404 24.2913 45.6896 24.0735 45.5444 23.7466C45.3267 23.2866 45.5807 22.8751 46.0041 22.633C46.7178 22.2214 47.4557 21.8462 48.1815 21.4588C48.7984 21.1199 49.4154 20.781 50.0323 20.4542C50.6251 20.1515 51.1573 20.2968 51.4235 20.8052C51.6896 21.3136 51.5081 21.8341 50.9154 22.1609C49.6089 22.8751 48.3025 23.5772 46.9839 24.2671C46.8146 24.364 46.6089 24.3882 46.4275 24.4487C46.3912 24.4971 46.3428 24.5334 46.2944 24.5576Z" fill="#54D8AF"/>
<path d="M21.8588 42.4604C22.2217 42.6057 22.4274 42.6783 22.6209 42.7752C24.2298 43.683 25.8387 44.5909 27.4476 45.5108C28.0403 45.8498 28.2218 46.3582 27.9435 46.8666C27.6532 47.4113 27.1209 47.5444 26.504 47.1934C24.8588 46.2613 23.2137 45.3172 21.5806 44.3851C21.1088 44.1188 20.9032 43.683 21.1088 43.223C21.2419 42.9204 21.6169 42.7025 21.8588 42.4604Z" fill="#54D8AF"/>
<path d="M32.7094 47.4719C32.4917 47.254 32.153 47.024 31.9957 46.6972C31.8022 46.2977 31.9715 45.874 32.3465 45.6441C34.0885 44.6273 35.8304 43.6347 37.5844 42.6663C38.0562 42.4 38.5764 42.6058 38.8304 43.0536C39.0844 43.5015 38.9756 44.0583 38.5159 44.3246C36.774 45.3293 35.0199 46.3098 33.2659 47.3024C33.1691 47.375 33.024 47.3871 32.7094 47.4719Z" fill="#54D8AF"/>
<path d="M10.5847 52.2409C8.75805 52.2409 6.91934 52.2409 5.09273 52.2409C4.31854 52.2409 3.89515 51.8899 3.88305 51.2847C3.87095 50.6794 4.31854 50.3042 5.06854 50.3042C8.79434 50.3042 12.5201 50.3042 16.2339 50.3042C16.9839 50.3042 17.4314 50.6794 17.4193 51.2847C17.4072 51.8657 16.9839 52.2288 16.2581 52.2288C14.3589 52.2409 12.4718 52.2409 10.5847 52.2409Z" fill="#54D8AF"/>
<path d="M9.16948 48.3674C7.80255 48.3674 6.43561 48.3674 5.06867 48.3674C4.30658 48.3674 3.87109 48.0043 3.87109 47.399C3.87109 46.7938 4.31867 46.4307 5.08077 46.4307C7.81464 46.4307 10.5485 46.4307 13.2945 46.4307C14.0687 46.4307 14.5042 46.7696 14.5163 47.3748C14.5404 47.9922 14.0808 48.3674 13.2824 48.3674C11.9154 48.3674 10.5364 48.3674 9.16948 48.3674Z" fill="#54D8AF"/>
<path d="M7.74206 55.1461C7.74206 55.6666 7.33077 56.1024 6.79851 56.1145C6.27835 56.1266 5.83077 55.7029 5.80658 55.1824C5.78238 54.6377 6.24206 54.1777 6.77432 54.1777C7.30658 54.1898 7.72996 54.6256 7.74206 55.1461Z" fill="#54D8AF"/>
<path d="M10.6333 54.1899C11.1534 54.1899 11.5889 54.6136 11.601 55.1341C11.6131 55.6788 11.1534 56.1388 10.6091 56.1146C10.0889 56.1025 9.66553 55.6667 9.66553 55.1462C9.68972 54.6136 10.1131 54.1899 10.6333 54.1899Z" fill="#54D8AF"/>
<path d="M15.4838 55.17C15.4717 55.6905 15.0241 56.1141 14.504 56.1141C13.9596 56.102 13.5241 55.63 13.5483 55.0973C13.5725 54.5768 14.0322 54.1653 14.5524 54.1895C15.0725 54.2137 15.4959 54.6616 15.4838 55.17Z" fill="#54D8AF"/>
<path d="M49.3309 52.2409C47.4801 52.2409 45.6293 52.2409 43.7785 52.2409C43.0164 52.2409 42.5809 51.8778 42.593 51.2605C42.6051 50.6552 43.0406 50.3042 43.8027 50.3042C47.5043 50.3042 51.2059 50.3042 54.9075 50.3042C55.6817 50.3042 56.1172 50.6431 56.1293 51.2484C56.1414 51.8778 55.6938 52.2288 54.8833 52.2288C53.0325 52.2409 51.1817 52.2409 49.3309 52.2409Z" fill="#54D8AF"/>
<path d="M50.8304 46.4429C52.1732 46.4429 53.528 46.4429 54.8707 46.4429C55.6812 46.4429 56.1288 46.7939 56.1167 47.4234C56.1046 48.0286 55.6691 48.3675 54.907 48.3796C52.1732 48.3796 49.4393 48.3796 46.6933 48.3796C45.9312 48.3796 45.4957 48.0286 45.4836 47.4234C45.4715 46.8181 45.907 46.4429 46.6691 46.4429C48.0603 46.4308 49.4514 46.4429 50.8304 46.4429Z" fill="#54D8AF"/>
<path d="M45.4352 56.1144C44.9151 56.0901 44.5038 55.6302 44.5159 55.1218C44.5401 54.5771 45.024 54.1413 45.5562 54.1897C46.0764 54.2381 46.4756 54.6981 46.4393 55.2186C46.4151 55.7391 45.9554 56.1386 45.4352 56.1144Z" fill="#54D8AF"/>
<path d="M50.3227 55.1337C50.3348 55.6542 49.9114 56.1021 49.3912 56.1263C48.8469 56.1505 48.3872 55.7027 48.3872 55.1579C48.3872 54.6374 48.8227 54.2017 49.3429 54.2017C49.8751 54.1775 50.3106 54.6011 50.3227 55.1337Z" fill="#54D8AF"/>
<path d="M53.2259 54.1899C53.7461 54.1899 54.1816 54.6136 54.1937 55.1341C54.2058 55.6788 53.7461 56.1388 53.2017 56.1146C52.6816 56.1025 52.2582 55.6546 52.2703 55.1341C52.2703 54.6136 52.6937 54.1899 53.2259 54.1899Z" fill="#54D8AF"/>
</svg>
