<svg width="22" height="22" viewBox="0 0 22 22" fill="none" xmlns="http://www.w3.org/2000/svg">
<path d="M21.9962 10.7128C22.1524 16.6622 17.4845 21.8301 11.2639 21.9962C5.34606 22.1525 0.189889 17.4926 0.00434522 11.2892C-0.161668 5.38867 4.44764 0.19149 10.6878 0.00587702C16.6642 -0.189506 21.8106 4.50944 21.9962 10.7128ZM11.0003 19.9935C15.9709 19.9935 19.9943 15.9686 19.9943 10.9961C19.9943 6.02366 15.9807 1.99878 11.0003 1.99878C6.02964 1.99878 2.00627 6.02366 2.00627 10.9961C2.01603 15.9784 6.02964 19.9935 11.0003 19.9935Z" fill="#142DAD"/>
<path d="M9.05698 14.5908C9.21323 13.8776 9.4476 12.8226 9.6722 11.7577C9.76009 11.3181 9.85775 10.8688 9.88704 10.4194C9.92611 9.79415 9.7015 9.59877 9.07651 9.62808C8.8812 9.63785 8.65659 9.75508 8.5687 9.4327C8.48082 9.12008 8.68589 9.03216 8.90073 8.95401C9.26205 8.81724 9.62338 8.6414 9.99446 8.56324C11.2737 8.28971 12.1819 9.08101 12.0062 10.3705C11.8499 11.5038 11.5667 12.6272 11.3519 13.7604C11.2835 14.0926 11.2151 14.4345 11.1956 14.7666C11.1566 15.4407 11.3909 15.6556 12.0452 15.6166C12.2503 15.6068 12.4651 15.4993 12.5433 15.8217C12.6214 16.1343 12.4163 16.2125 12.1917 16.3004C11.8499 16.4372 11.5081 16.613 11.1468 16.7009C9.90657 16.9842 9.02768 16.2515 9.05698 14.5908Z" fill="#142DAD"/>
<path d="M9.82774 6.2775C9.81798 5.4569 10.4725 4.76329 11.2736 4.75352C12.0649 4.74375 12.7487 5.43736 12.7585 6.2482C12.7585 7.05903 12.0746 7.76241 11.2833 7.75264C10.5018 7.74287 9.83751 7.0688 9.82774 6.2775Z" fill="#142DAD"/>
</svg>
