<svg width="64" height="50" viewBox="0 0 64 50" fill="none" xmlns="http://www.w3.org/2000/svg">
<path d="M0 49.9875C0 36.0041 0 22.0582 0 8.02473C1.31533 8.02473 2.6056 8.02473 3.97103 8.02473C3.97103 5.3332 3.97103 2.70427 3.97103 0.000228168C4.27168 0.000228168 4.50969 0.000228168 4.7477 0.000228168C12.0509 0.000228168 19.3666 0.000228168 26.6698 0.000228168C28.7868 0.000228168 30.5406 0.726314 31.8058 2.46642C31.8559 2.52901 31.8685 2.62916 31.906 2.74183C32.2192 2.40382 32.4322 2.17849 32.6451 1.96567C34.0481 0.488458 35.7769 -0.0122906 37.7812 0.000228168C44.9591 0.0377843 52.1495 0.0127469 59.3275 0.0127469C59.5279 0.0127469 59.7408 0.0127469 60.029 0.0127469C60.029 2.67923 60.029 5.32068 60.029 8.01221C61.3944 8.01221 62.6721 8.01221 64 8.01221C64 22.0332 64 36.0041 64 50C42.6917 49.9875 21.3834 49.9875 0 49.9875ZM5.97534 1.95315C5.97534 14.0337 5.97534 26.0266 5.97534 38.0571C6.28851 38.0571 6.55158 38.0571 6.81464 38.0571C13.1032 38.0571 19.3791 38.0571 25.6676 38.0571C27.5592 38.0571 29.2253 38.633 30.6408 39.9099C30.741 39.9975 30.8538 40.0601 31.0417 40.1853C31.0417 39.8598 31.0417 39.6345 31.0417 39.4092C31.0417 28.3051 31.0417 17.2135 31.0417 6.10936C31.0417 3.66821 29.313 1.94063 26.8702 1.94063C20.1433 1.94063 13.4289 1.94063 6.7019 1.94063C6.46389 1.95315 6.2384 1.95315 5.97534 1.95315ZM58.0748 1.95315C57.7867 1.95315 57.5361 1.95315 57.2981 1.95315C50.6213 1.95315 43.9444 1.9907 37.2676 1.92811C34.3237 1.91559 33.0711 4.09385 33.0836 6.12188C33.0961 17.1759 33.0961 28.2299 33.0961 39.284C33.0961 39.4968 33.1086 39.7096 33.1337 40.0101C33.2965 39.9099 33.3592 39.8724 33.4218 39.8223C34.8373 38.5704 36.5034 38.0697 38.3699 38.0697C44.696 38.0822 51.0221 38.0697 57.3357 38.0697C57.5737 38.0697 57.8242 38.0697 58.0873 38.0697C58.0748 26.0016 58.0748 14.0337 58.0748 1.95315ZM1.9542 48.0346C22.0348 48.0346 42.0403 48.0346 62.0709 48.0346C62.0709 35.3406 62.0709 22.6841 62.0709 10.0152C61.3819 10.0152 60.7305 10.0152 60.029 10.0152C60.029 22.0332 60.029 34.0011 60.029 45.969C41.3263 45.969 22.6737 45.969 3.9585 45.969C3.9585 33.951 3.9585 21.9831 3.9585 10.0152C3.24447 10.0152 2.6056 10.0152 1.94167 10.0152C1.9542 22.7092 1.9542 35.3531 1.9542 48.0346ZM58.0121 40.0476C57.7491 40.0351 57.5612 40.0226 57.3733 40.0226C50.8342 40.0226 44.3077 40.0226 37.7686 40.0351C37.4179 40.0351 37.0546 40.0852 36.7164 40.1728C34.8749 40.636 33.2214 42.3636 33.0209 44.0411C41.3639 44.0411 49.6943 44.0411 57.9996 44.0411C58.0121 42.6891 58.0121 41.3746 58.0121 40.0476ZM5.96281 44.0411C14.3183 44.0411 22.586 44.0411 30.8788 44.0411C30.8788 43.9284 30.8914 43.8408 30.8788 43.7657C30.3652 41.6876 28.2607 40.0101 26.1186 40.0101C19.5921 40.0101 13.0656 40.0101 6.53905 40.0101C6.36367 40.0101 6.17577 40.0351 5.96281 40.0476C5.96281 41.3871 5.96281 42.6891 5.96281 44.0411Z" fill="#142DAD"/>
<path d="M13.0283 19.955C13.0283 19.329 13.0283 18.7281 13.0283 18.0771C17.6508 18.0771 22.2732 18.0771 26.9332 18.0771C26.9332 18.6906 26.9332 19.304 26.9332 19.955C22.3108 19.955 17.7009 19.955 13.0283 19.955Z" fill="#142DAD"/>
<path d="M26.9459 22.0713C26.9459 22.6972 26.9459 23.2981 26.9459 23.9366C22.3235 23.9366 17.701 23.9366 13.041 23.9366C13.041 23.3232 13.041 22.7097 13.041 22.0713C17.6634 22.0713 22.2608 22.0713 26.9459 22.0713Z" fill="#54D8AF"/>
<path d="M26.9459 26.0762C26.9459 26.7021 26.9459 27.303 26.9459 27.954C22.3235 27.954 17.701 27.954 13.041 27.954C13.041 27.3406 13.041 26.7271 13.041 26.0762C17.6634 26.0762 22.2734 26.0762 26.9459 26.0762Z" fill="#142DAD"/>
<path d="M26.9451 30.0957C26.9451 30.7342 26.9451 31.3351 26.9451 31.9735C22.3101 31.9735 17.7002 31.9735 13.0527 31.9735C13.0527 31.3726 13.0527 30.7592 13.0527 30.0957C17.6501 30.0957 22.2725 30.0957 26.9451 30.0957Z" fill="#54D8AF"/>
<path d="M16.9355 14.1212C15.8206 13.0946 14.5805 11.9304 13.3027 10.7536C13.8038 10.2779 14.2297 9.8648 14.7809 9.3265C15.4574 10.0901 16.1589 10.8788 16.8854 11.6925C18.777 9.80221 20.5433 8.02455 22.3221 6.23438C22.8107 6.73512 23.2241 7.17328 23.6875 7.64899C21.4327 9.81473 19.1403 12.018 16.9355 14.1212Z" fill="#54D8AF"/>
<path d="M9.04492 18.0645C9.68379 18.0645 10.2726 18.0645 10.9114 18.0645C10.9114 18.7029 10.9114 19.3163 10.9114 19.9548C10.2851 19.9548 9.69632 19.9548 9.04492 19.9548C9.04492 19.3414 9.04492 18.7279 9.04492 18.0645Z" fill="#142DAD"/>
<path d="M9.00684 23.9368C9.00684 23.2983 9.00684 22.7224 9.00684 22.084C9.63318 22.084 10.247 22.084 10.8984 22.084C10.8984 22.6849 10.8984 23.2983 10.8984 23.9368C10.2595 23.9368 9.63318 23.9368 9.00684 23.9368Z" fill="#54D8AF"/>
<path d="M9.03223 26.0645C9.6711 26.0645 10.2599 26.0645 10.8987 26.0645C10.8987 26.7029 10.8987 27.3163 10.8987 27.9548C10.2724 27.9548 9.68363 27.9548 9.03223 27.9548C9.03223 27.3539 9.03223 26.7405 9.03223 26.0645Z" fill="#142DAD"/>
<path d="M9.03223 30.083C9.65857 30.083 10.2599 30.083 10.8987 30.083C10.8987 30.6964 10.8987 31.3098 10.8987 31.9608C10.2849 31.9608 9.68363 31.9608 9.03223 31.9608C9.03223 31.3474 9.03223 30.759 9.03223 30.083Z" fill="#54D8AF"/>
<path d="M46.0485 11.4417C45.2593 12.1928 44.5202 12.8939 43.7561 13.62C43.3176 13.1568 42.9042 12.7311 42.4032 12.2054C43.1422 11.5043 43.9064 10.7782 44.6705 10.0521C43.8688 9.26346 43.1172 8.53737 42.3906 7.83632C42.9042 7.31054 43.3301 6.8849 43.8312 6.38415C44.5077 7.11024 45.2092 7.87388 45.9357 8.65004C46.7375 7.82381 47.464 7.06016 48.2156 6.27148C48.7543 6.82231 49.1677 7.26046 49.6562 7.77373C48.9171 8.47478 48.1405 9.20086 47.3388 9.96451C48.1655 10.7407 48.9297 11.4417 49.6688 12.1428C49.1301 12.6686 48.6917 13.0817 48.2156 13.5449C47.5642 12.8939 46.8377 12.1928 46.0485 11.4417Z" fill="#54D8AF"/>
<path d="M41.0889 19.9424C41.0889 19.3165 41.0889 18.7156 41.0889 18.0771C45.7113 18.0771 50.3337 18.0771 54.9937 18.0771C54.9937 18.6906 54.9937 19.304 54.9937 19.9424C50.3713 19.9424 45.7739 19.9424 41.0889 19.9424Z" fill="#142DAD"/>
<path d="M55.0055 22.0713C55.0055 22.7097 55.0055 23.2981 55.0055 23.9491C50.3705 23.9491 45.7606 23.9491 41.1006 23.9491C41.1006 23.3357 41.1006 22.7223 41.1006 22.0713C45.723 22.0713 50.3329 22.0713 55.0055 22.0713Z" fill="#54D8AF"/>
<path d="M55.0055 26.0762C55.0055 26.7021 55.0055 27.303 55.0055 27.954C50.383 27.954 45.7606 27.954 41.1006 27.954C41.1006 27.3406 41.1006 26.7271 41.1006 26.0762C45.723 26.0762 50.3329 26.0762 55.0055 26.0762Z" fill="#142DAD"/>
<path d="M55.0056 30.0957C55.0056 30.7467 55.0056 31.3476 55.0056 31.9735C50.3707 31.9735 45.7608 31.9735 41.1133 31.9735C41.1133 31.3601 41.1133 30.7467 41.1133 30.0957C45.7232 30.0957 50.3456 30.0957 55.0056 30.0957Z" fill="#54D8AF"/>
<path d="M37.1055 18.0518C37.7318 18.0518 38.3331 18.0518 38.972 18.0518C38.972 18.6902 38.972 19.3036 38.972 19.9421C38.3582 19.9421 37.7569 19.9421 37.1055 19.9421C37.1055 19.3412 37.1055 18.7278 37.1055 18.0518Z" fill="#142DAD"/>
<path d="M38.9456 23.9616C38.3193 23.9616 37.718 23.9616 37.0791 23.9616C37.0791 23.3232 37.0791 22.7223 37.0791 22.0713C37.6929 22.0713 38.2942 22.0713 38.9456 22.0713C38.9456 22.6722 38.9456 23.2856 38.9456 23.9616Z" fill="#54D8AF"/>
<path d="M38.9708 26.0762C38.9708 26.7021 38.9708 27.303 38.9708 27.9415C38.357 27.9415 37.7432 27.9415 37.0918 27.9415C37.0918 27.328 37.0918 26.7271 37.0918 26.0762C37.7056 26.0762 38.2944 26.0762 38.9708 26.0762Z" fill="#142DAD"/>
<path d="M37.0791 31.961C37.0791 31.3351 37.0791 30.7342 37.0791 30.0957C37.6929 30.0957 38.3067 30.0957 38.9581 30.0957C38.9581 30.7091 38.9581 31.3225 38.9581 31.961C38.3443 31.961 37.7556 31.961 37.0791 31.961Z" fill="#54D8AF"/>
</svg>
