<svg width="58" height="62" viewBox="0 0 58 62" fill="none" xmlns="http://www.w3.org/2000/svg">
<path d="M11.9841 28.05C11.8716 28.0375 11.8091 28.0125 11.7467 28.0125C10.2595 28.125 9.93452 27.6875 9.99701 26.1875C10.047 25.1875 9.99701 24.1875 10.0095 23.1875C10.0095 22.3875 10.3844 22.0125 11.1968 22.0125C11.7716 22.0125 12.359 22.0125 13.0089 22.0125C13.0089 21.725 13.0089 21.4875 13.0089 21.2375C13.0089 15.95 13.0089 10.6625 13.0089 5.3625C13.0089 4.3125 13.3338 4 14.3961 4C17.358 4 20.3074 4 23.2693 4C23.4943 4 23.7192 4 24.0067 4C24.0067 3.35 24.0067 2.75 24.0067 2.15C24.0192 1.375 24.3816 1 25.1564 1C31.0552 1 36.9416 1 42.8404 1C43.6402 1 44.0026 1.375 44.0026 2.2C44.0026 2.775 44.0026 3.35 44.0026 4C44.3026 4 44.5525 4 44.79 4C48.4142 4 52.0385 4 55.6628 4C56.6876 4 57 4.3125 57 5.3375C57 23.4625 57 41.575 57 59.7C57 60.6625 56.6626 61 55.6753 61C38.6037 61 21.5197 61 4.44813 61C3.02342 61 1.93614 60.425 1.32376 59.1375C0.711388 57.8375 0.998829 56.6375 1.92364 55.55C5.18548 51.7125 8.43482 47.8625 11.6842 44.0125C11.8591 43.8125 12.0091 43.5125 12.0091 43.25C12.0216 38.275 12.0216 33.3 12.0216 28.3125C12.0091 28.25 11.9966 28.1625 11.9841 28.05ZM27.0061 51.9125C27.0061 51.55 27.0061 51.35 27.0061 51.15C27.0061 47.1875 27.0061 43.2375 27.0061 39.275C27.0061 38.3625 27.3435 38.0125 28.2308 38.0125C35.4169 38.0125 42.6029 38.0125 49.789 38.0125C50.8387 38.0125 51.2637 38.7 50.8138 39.625C50.2889 40.6875 49.739 41.7375 49.2391 42.8125C49.1141 43.0875 49.0141 43.4 49.0141 43.7C49.0016 48.6 49.0016 53.4875 49.0016 58.3875C49.0016 58.5875 49.0266 58.7875 49.0266 58.975C51.0512 58.975 53.0133 58.975 54.9629 58.975C54.9629 41.3125 54.9629 23.6875 54.9629 6.0625C51.3012 6.0625 47.6644 6.0625 43.9901 6.0625C43.9901 6.6875 43.9901 7.2625 43.9901 7.85C43.9776 8.6625 43.6152 9.025 42.8029 9.025C36.9291 9.025 31.0552 9.025 25.1814 9.025C24.3691 9.025 24.0067 8.65 24.0067 7.8375C24.0067 7.2375 24.0067 6.65 24.0067 6.0625C20.9698 6.0625 18.0204 6.0625 15.046 6.0625C15.046 11.3875 15.046 16.6875 15.046 22.0375C15.3084 22.0375 15.5334 22.0375 15.7583 22.0375C17.4705 22.0375 19.1702 22.0375 20.8823 22.0375C21.5697 22.0375 21.9946 22.4 21.9946 23.025C22.0196 24.3625 22.0196 25.6875 21.9946 27.025C21.9821 27.6375 21.5822 28 20.9448 28.025C20.6449 28.0375 20.3324 28.025 20.0575 28.025C20.02 28.15 20.0075 28.1875 20.0075 28.225C20.0075 33.2625 19.995 38.3125 20.0075 43.35C20.0075 43.5625 20.145 43.825 20.2949 44C21.3447 45.2625 22.407 46.525 23.4693 47.775C24.6191 49.1 25.7563 50.4375 27.0061 51.9125ZM44.0276 45.0125C44.0276 44.3 44.0276 43.6875 44.0276 43.0125C45.0274 43.0125 45.9897 43.0125 46.902 43.0125C47.4019 41.9875 47.8643 41.025 48.3392 40.05C41.8531 40.05 35.4419 40.05 29.0182 40.05C29.0057 40.1875 28.9932 40.2875 28.9932 40.3875C28.9932 44.8875 28.9807 49.3875 29.0057 53.8875C29.0057 54.1625 29.1681 54.475 29.3556 54.6875C30.4429 55.9125 31.4802 57.15 30.7678 58.975C33.8672 58.975 36.9041 58.975 40.0034 58.975C40.0034 54.975 40.0034 51.0125 40.0034 47.0625C40.7033 47.0625 41.3407 47.0625 42.0155 47.0625C42.0155 51.0625 42.0155 55.0125 42.0155 58.975C43.6902 58.975 45.3274 58.975 46.952 58.975C46.952 58.3 46.952 57.6625 46.952 56.9875C45.9522 56.9875 45.0024 56.9875 44.0401 56.9875C44.0401 56.3125 44.0401 55.675 44.0401 55C45.0399 55 45.9897 55 46.9645 55C46.9645 54.325 46.9645 53.6875 46.9645 52.9875C45.9647 52.9875 45.0024 52.9875 44.0276 52.9875C44.0276 52.3 44.0276 51.6875 44.0276 51C45.0274 51 45.9897 51 46.952 51C46.952 50.3 46.952 49.6625 46.952 48.9875C45.9522 48.9875 45.0024 48.9875 44.0401 48.9875C44.0401 48.3125 44.0401 47.675 44.0401 46.975C45.0524 46.975 46.0147 46.975 46.9645 46.975C46.9645 46.2875 46.9645 45.675 46.9645 45.0125C45.9772 45.0125 45.0274 45.0125 44.0276 45.0125ZM16.9831 55.0125C13.7463 55.0125 10.5844 55.0125 7.42253 55.0125C6.63519 55.0125 5.72287 54.7875 5.0855 55.1C4.39814 55.4375 3.96073 56.2875 3.41084 56.9125C3.06091 57.3125 2.88595 57.7625 3.1234 58.2875C3.37335 58.8375 3.81076 59.0125 4.38564 59.0125C12.1466 59.0125 19.92 59.0125 27.6809 59.0125C28.2308 59.0125 28.6432 58.8125 28.8932 58.3C29.1306 57.8 28.9932 57.375 28.6557 56.975C27.0686 55.1 25.4939 53.2125 23.8942 51.35C23.7317 51.1625 23.4068 51.025 23.1693 51.0125C18.3953 50.9875 13.6338 51 8.85974 51C8.68477 51 8.43482 51 8.33485 51.1125C7.79745 51.7 7.29755 52.3125 6.68518 53.025C10.222 53.025 13.5963 53.025 16.9706 53.025C16.9831 53.7125 16.9831 54.325 16.9831 55.0125ZM14.0587 32C14.0587 32.725 14.0587 33.35 14.0587 34.0375C14.7211 34.0375 15.3459 34.0375 15.9583 34.0375C15.9583 34.7125 15.9583 35.35 15.9583 36.025C15.2959 36.025 14.6836 36.025 14.0462 36.025C14.0462 36.7 14.0462 37.3375 14.0462 38.0375C14.7211 38.0375 15.3459 38.0375 15.9708 38.0375C15.9708 38.725 15.9708 39.3375 15.9708 40.025C15.3084 40.025 14.6711 40.025 14.0087 40.025C14.0087 40.925 13.9212 41.7625 14.0212 42.575C14.1837 43.8875 13.7213 44.875 12.8214 45.8C11.8716 46.775 11.0468 47.8625 10.122 48.975C14.0837 48.975 17.9329 48.975 21.8946 48.975C20.7198 47.5875 19.6326 46.2625 18.4953 44.9625C18.1454 44.5625 17.9954 44.1375 17.9954 43.6125C18.0079 38.6625 18.0079 33.7 18.0079 28.75C18.0079 28.5125 18.0079 28.275 18.0079 28.05C16.6207 28.05 15.3459 28.05 14.0462 28.05C14.0462 28.7125 14.0462 29.35 14.0462 30.05C14.7211 30.05 15.3459 30.05 15.9708 30.05C15.9708 30.7375 15.9708 31.35 15.9708 32.0125C15.3209 32 14.7086 32 14.0587 32ZM26.0313 6.975C31.3802 6.975 36.6666 6.975 41.953 6.975C41.953 5.6375 41.953 4.3375 41.953 3.05C36.6291 3.05 31.3427 3.05 26.0313 3.05C26.0313 4.35 26.0313 5.6375 26.0313 6.975ZM12.0341 25.9625C14.7336 25.9625 17.358 25.9625 19.9825 25.9625C19.9825 25.3 19.9825 24.675 19.9825 24.05C17.3205 24.05 14.6836 24.05 12.0341 24.05C12.0341 24.7 12.0341 25.3125 12.0341 25.9625Z" fill="#142DAD" stroke="#142DAD" stroke-width="0.2"/>
<path d="M46.9766 16.0125C46.9766 16.7 46.9766 17.3125 46.9766 18C46.3268 18 45.6894 18 45.002 18C45.002 19.125 44.927 20.1875 45.027 21.2375C45.1145 22.3 44.7271 22.9 43.7398 23.275C42.9274 23.5875 42.1651 24.0125 41.4028 24.4375C41.2153 24.5375 41.0403 24.825 41.0278 25.0375C40.9778 25.6625 41.0153 26.2875 41.0153 26.95C40.353 26.95 39.7281 26.95 39.0157 26.95C39.0157 26.3125 39.0532 25.675 39.0032 25.0375C38.9907 24.825 38.8158 24.5375 38.6283 24.4375C37.891 24.025 37.1286 23.6375 36.3538 23.2875C36.1663 23.2 35.8664 23.2125 35.6789 23.3C34.9166 23.6375 34.1917 24.05 33.4419 24.4C33.1044 24.5625 33.0045 24.775 33.017 25.125C33.0419 25.725 33.0294 26.325 33.0294 26.9625C32.3546 26.9625 31.7172 26.9625 31.0299 26.9625C31.0299 26.325 31.0673 25.7 31.0174 25.0875C30.9924 24.85 30.8174 24.55 30.6299 24.4375C29.8176 23.975 28.9803 23.55 28.1304 23.1875C27.793 23.0375 27.3681 23.0375 26.9807 23.025C26.3558 23 25.7434 23.0125 25.0811 23.0125C25.0811 22.35 25.0811 21.7375 25.0811 21.05C25.6934 21.05 26.3308 21.05 27.0432 21.05C27.0432 19.825 27.0807 18.6625 27.0307 17.5125C26.9932 16.7125 27.2806 16.225 28.0055 15.9125C28.8928 15.525 29.7676 15.075 30.6174 14.6C30.8174 14.4875 30.9924 14.1875 31.0174 13.95C31.0673 13.3375 31.0423 12.7125 31.0423 12.0625C31.7047 12.0625 32.3296 12.0625 33.0419 12.0625C33.0419 12.6875 33.0045 13.325 33.0669 13.9625C33.0919 14.1875 33.3169 14.4 33.4544 14.625C33.4669 14.6375 33.4919 14.65 33.5044 14.65C34.3417 15.0625 35.1915 15.8125 36.0163 15.8C36.9037 15.7875 37.766 15.025 38.6533 14.625C38.9657 14.475 39.0657 14.275 39.0532 13.95C39.0282 13.35 39.0407 12.75 39.0407 12.0875C39.6906 12.0875 40.328 12.0875 41.0403 12.0875C41.0403 12.7125 41.0153 13.35 41.0528 13.9875C41.0653 14.2 41.2403 14.4875 41.4153 14.5875C42.2526 15.05 43.1024 15.4875 43.9772 15.875C44.3022 16.0125 44.7021 16.0125 45.0645 16.025C45.6519 16.025 46.2768 16.0125 46.9766 16.0125ZM34.9166 19.5C35.4914 17.95 34.6416 17.2125 33.3169 16.775C33.2919 16.7625 33.2794 16.7625 33.2544 16.75C32.4046 16.075 31.6547 16.325 30.7049 16.7125C29.3427 17.275 28.9053 18.0375 28.9303 19.5375C28.9428 20.9625 29.3302 21.7 30.6424 22.2875C31.6547 22.7375 32.3796 22.725 33.3794 22.275C34.6666 21.6875 35.4165 21 34.9166 19.5ZM42.9524 19.625C42.9524 18.8875 43.1649 18.1375 42.89 17.6875C42.615 17.225 41.8527 17.0625 41.3028 16.775C41.2903 16.7625 41.2653 16.7625 41.2403 16.75C40.3905 16.075 39.6406 16.325 38.7033 16.7125C37.3286 17.275 36.9162 18.05 36.9287 19.5375C36.9412 20.9625 37.3286 21.7 38.6408 22.275C39.6281 22.7 40.3405 22.7625 41.3153 22.2875C42.565 21.6875 43.4773 21.075 42.9524 19.625Z" fill="#54D8AF" stroke="#54D8AF" stroke-width="0.2"/>
<path d="M23.0317 34.9625C23.0317 34.3125 23.0317 33.6875 23.0317 33.0375C31.3551 33.0375 39.6409 33.0375 47.9642 33.0375C47.9642 33.675 47.9642 34.3 47.9642 34.9625C39.6784 34.9625 31.38 34.9625 23.0317 34.9625Z" fill="#54D8AF" stroke="#54D8AF" stroke-width="0.2"/>
<path d="M29.0303 30.9625C29.0303 30.3 29.0303 29.6875 29.0303 29.0375C36.6662 29.0375 44.2772 29.0375 51.9381 29.0375C51.9381 29.65 51.9381 30.2875 51.9381 30.9625C44.3397 30.9625 36.7162 30.9625 29.0303 30.9625Z" fill="#142DAD" stroke="#142DAD" stroke-width="0.2"/>
<path d="M46.0269 12.9625C46.0269 12.3 46.0269 11.6875 46.0269 11.0375C46.6644 11.0375 47.2769 11.0375 47.9519 11.0375C47.9519 11.65 47.9519 12.2875 47.9519 12.9625C47.3394 12.9625 46.7019 12.9625 46.0269 12.9625Z" fill="#142DAD" stroke="#142DAD" stroke-width="0.2"/>
<path d="M50.0391 11.05C50.6766 11.05 51.2891 11.05 51.9516 11.05C51.9516 11.675 51.9516 12.3 51.9516 12.975C51.3391 12.975 50.7016 12.975 50.0391 12.975C50.0391 12.3375 50.0391 11.7 50.0391 11.05Z" fill="#142DAD" stroke="#142DAD" stroke-width="0.2"/>
<path d="M19.0454 13.05C19.6829 13.05 20.2954 13.05 20.9579 13.05C20.9579 13.675 20.9579 14.3 20.9579 14.975C20.3454 14.975 19.7079 14.975 19.0454 14.975C19.0454 14.3375 19.0454 13.7 19.0454 13.05Z" fill="#142DAD" stroke="#142DAD" stroke-width="0.2"/>
<path d="M23.0317 14.975C23.0317 14.325 23.0317 13.7125 23.0317 13.0625C23.6692 13.0625 24.2942 13.0625 24.9567 13.0625C24.9567 13.6875 24.9567 14.325 24.9567 14.975C24.3317 14.975 23.7192 14.975 23.0317 14.975Z" fill="#142DAD" stroke="#142DAD" stroke-width="0.2"/>
<path d="M25.019 30.975C25.019 30.325 25.019 29.725 25.019 29.075C25.6565 29.075 26.2815 29.075 26.9565 29.075C26.9565 29.6875 26.9565 30.3125 26.9565 30.975C26.3315 30.975 25.7065 30.975 25.019 30.975Z" fill="#142DAD" stroke="#142DAD" stroke-width="0.2"/>
<path d="M40.0283 44.9625C40.0283 44.3125 40.0283 43.7 40.0283 43.05C40.6783 43.05 41.3033 43.05 41.9658 43.05C41.9658 43.6875 41.9658 44.3 41.9658 44.9625C41.3533 44.9625 40.7158 44.9625 40.0283 44.9625Z" fill="#54D8AF" stroke="#54D8AF" stroke-width="0.2"/>
<path d="M19.0454 53.0375C19.7079 53.0375 20.3204 53.0375 20.9704 53.0375C20.9704 53.675 20.9704 54.3 20.9704 54.9625C20.3454 54.9625 19.7204 54.9625 19.0454 54.9625C19.0454 54.3375 19.0454 53.7125 19.0454 53.0375Z" fill="#54D8AF" stroke="#54D8AF" stroke-width="0.2"/>
</svg>
