<svg width="20" height="20" viewBox="0 0 20 20" fill="none" xmlns="http://www.w3.org/2000/svg">
<path d="M14.1027 15.7116C13.8918 15.8437 13.7776 15.9053 13.6721 15.9758C9.95492 18.442 5.22716 17.9047 2.25693 14.5489C0.0688006 12.0827 -0.546336 9.15855 0.490609 6.02297C1.51877 2.86978 3.75083 0.870404 6.99348 0.192202C11.8794 -0.829504 16.4578 2.32369 17.3541 7.23845C17.7672 9.49325 17.319 11.6159 16.0536 13.5272C15.7899 13.9236 15.8339 14.1174 16.159 14.4256C17.3278 15.5618 18.4614 16.7245 19.6126 17.8783C19.9904 18.257 20.0959 18.715 19.9113 19.2083C19.7444 19.6663 19.3841 19.9393 18.8832 19.9922C18.4262 20.045 18.0747 19.8248 17.7584 19.5077C16.6423 18.3803 15.5263 17.2705 14.4103 16.1431C14.2872 16.0198 14.1994 15.8613 14.1027 15.7116ZM2.50298 8.74459C2.50298 12.2149 5.29746 15.0422 8.72465 15.0422C12.2221 15.0422 15.0254 12.2325 15.0254 8.72697C15.0254 5.29192 12.2134 2.49104 8.75101 2.48223C5.31504 2.47343 2.51177 5.28312 2.50298 8.74459Z" fill="#142DAD"/>
<path d="M5.03332 8.64788C5.06847 6.71897 6.76449 5.01906 8.6802 5.01025C9.392 5.01025 9.93683 5.48588 9.99835 6.16408C10.0511 6.79824 9.57654 7.35313 8.88231 7.45002C7.93325 7.58213 7.6081 7.90802 7.47629 8.83284C7.37962 9.53747 6.85236 10.0131 6.21965 9.97786C5.52543 9.95144 5.02453 9.37893 5.03332 8.64788Z" fill="#54D8AF"/>
</svg>
