<svg width="50" height="56" viewBox="0 0 50 56" fill="none" xmlns="http://www.w3.org/2000/svg">
<path d="M44.658 45.1496C44.6471 45.4244 44.6254 45.6553 44.6254 45.8971C44.6254 48.7884 44.6254 51.6796 44.6254 54.5709C44.6254 55.7472 44.386 56 43.2328 56C30.145 56 17.0572 56 3.96942 56C1.89148 56 0.324857 54.6698 0.0419948 52.647C0.0311155 52.5591 0.00935687 52.4601 0.0202362 52.3722C0.161667 50.3494 -0.0450396 48.3377 0.00935687 46.3149C0.0528741 44.3031 0.0202362 42.2803 0.0202362 40.2686C0.0202362 38.2348 0.0202362 36.201 0.0202362 34.1673C0.0202362 32.1555 0.0202362 30.1327 0.0202362 28.1209C0.0202362 26.0872 0.0202362 24.0534 0.0202362 22.0196C0.0202362 20.0079 0.0202362 17.9851 0.0202362 15.9733C0.0202362 13.9395 0.0202362 11.9058 0.0202362 9.87201C0.0202362 7.86023 0.00935687 5.83746 0.0202362 3.82568C0.0202362 1.65999 1.67389 0 3.86063 0C18.8306 0 33.8114 0 48.7813 0C49.6625 0 50.0106 0.39576 49.9998 1.28622C49.9889 4.72713 49.9998 8.17903 49.9998 11.6199C49.9998 14.1154 49.9889 16.5999 49.9889 19.0954C49.9889 27.3184 49.9889 35.5414 49.9889 43.7754C49.9889 44.9077 49.7387 45.1606 48.6181 45.1606C47.3126 45.1606 46.007 45.1496 44.658 45.1496ZM42.7759 48.6894C42.7868 48.4476 42.8085 48.2497 42.8085 48.0628C42.7977 46.7436 42.765 45.4244 42.765 44.1052C42.765 33.4087 42.765 22.7122 42.765 12.0157C42.765 11.1912 43.1023 10.8394 43.9073 10.8394C45.1258 10.8284 46.3334 10.8174 47.5519 10.8394C48.0197 10.8504 48.172 10.7185 48.172 10.2238C48.1503 7.67334 48.1612 5.13388 48.1612 2.58343C48.1612 1.85787 48.1612 1.85787 47.454 1.85787C32.9301 1.85787 18.4171 1.85787 3.89327 1.85787C2.43544 1.85787 1.83708 2.4625 1.83708 3.93561C1.83708 18.8316 1.83708 33.7165 1.83708 48.6125C1.83708 48.7664 1.85884 48.9313 1.85884 49.0192C2.59863 48.9093 3.29491 48.7004 4.00206 48.7004C16.7091 48.6784 29.4161 48.6894 42.1231 48.6894C42.3298 48.6894 42.5257 48.6894 42.7759 48.6894ZM42.7977 50.6133C42.5148 50.6133 42.319 50.6133 42.1231 50.6133C29.4052 50.6133 16.6764 50.6133 3.95854 50.6133C3.74096 50.6133 3.52337 50.6133 3.30579 50.6243C2.69654 50.6682 2.05467 51.2289 1.91323 51.8335C1.57598 53.2407 2.34841 54.1421 3.90415 54.1421C14.9575 54.1421 26.0109 54.1421 37.0643 54.1421C38.805 54.1421 40.5456 54.1421 42.2863 54.1421C42.5148 54.1421 42.7868 54.1971 42.7868 53.8233C42.7977 52.79 42.7977 51.7456 42.7977 50.6133ZM44.7124 23.5477C44.7124 26.5599 44.7124 29.4841 44.7124 32.4303C45.8656 32.4303 46.9862 32.4303 48.1612 32.4303C48.1612 31.6278 48.1612 30.8583 48.1612 30.0997C48.1612 28.0879 48.1612 26.0762 48.1612 24.0644C48.1612 23.8005 48.1829 23.5477 47.7913 23.5477C46.7795 23.5477 45.7677 23.5477 44.7124 23.5477ZM48.1176 21.6129C48.1176 18.6227 48.1176 15.6875 48.1176 12.7413C46.9535 12.7413 45.8439 12.7413 44.7015 12.7413C44.7015 15.7095 44.7015 18.6447 44.7015 21.6129C45.833 21.6129 46.9535 21.6129 48.1176 21.6129ZM44.6907 43.2587C45.8656 43.2587 46.9862 43.2587 48.1176 43.2587C48.1176 40.2905 48.1176 37.3443 48.1176 34.4091C46.9535 34.4091 45.8221 34.4091 44.6907 34.4091C44.6907 37.3773 44.6907 40.3015 44.6907 43.2587Z" fill="#142DAD"/>
<path d="M22.3661 15.9293C21.8439 15.9953 21.3217 16.0173 20.8103 16.1272C19.1567 16.457 18.3734 17.4794 18.5257 19.1833C18.6019 20.0298 18.8194 20.8763 18.9282 21.7228C18.9609 21.9866 18.9174 22.3164 18.7868 22.5473C18.5148 23.031 18.5366 23.4817 18.8847 23.9325C19.2764 24.4492 19.6027 25.0098 19.9944 25.5155C21.0171 26.8457 21.0171 28.3738 20.7016 29.8908C20.5928 30.4185 20.2229 31.0012 19.7877 31.32C19.0261 31.8806 18.134 32.2764 17.2746 32.7051C16.5021 33.0899 15.6753 33.3867 14.9029 33.7935C13.8258 34.3651 13.1731 35.2666 13.086 36.5308C13.086 36.5858 13.0752 36.6407 13.0643 36.6957C12.9555 37.3223 12.5856 37.6302 12.0308 37.5642C11.5194 37.5092 11.2257 37.1135 11.2583 36.4978C11.3454 34.9038 12.0199 33.5626 13.3254 32.6941C14.3372 32.0126 15.4904 31.5398 16.5892 30.9902C17.1875 30.6934 17.8294 30.4625 18.3843 30.1107C18.6454 29.9458 18.8303 29.561 18.9174 29.2422C19.3308 27.6702 18.5475 26.4389 17.6445 25.3066C16.8612 24.3172 16.4804 23.3058 16.9591 22.0636C17.0352 21.8767 17.0026 21.6459 16.9917 21.437C16.9482 20.3486 16.7741 19.2493 16.872 18.172C17.0026 16.6329 17.8077 15.4346 19.2328 14.797C21.2346 13.8956 23.3017 13.8186 25.3361 14.731C27.1421 15.5446 28.056 17.0396 28.1321 19.0184C28.1648 19.81 28.0016 20.6125 27.9472 21.415C27.9363 21.6678 27.9254 21.9317 28.0124 22.1625C28.3932 23.2949 28.1104 24.2623 27.4576 25.2077C26.9028 26.0102 26.4023 26.8677 25.9454 27.7362C25.5864 28.4397 26.1086 29.9568 26.8266 30.3086C27.6861 30.7373 28.589 31.0781 29.4594 31.4629C30.6996 32.0016 31.8637 32.6612 32.7014 33.7825C33.3215 34.629 33.6697 35.5744 33.6914 36.6298C33.7023 37.1904 33.3759 37.5642 32.8755 37.5972C32.3424 37.6411 31.9072 37.3113 31.8746 36.7397C31.7984 35.1786 30.9499 34.2112 29.6226 33.5846C28.7414 33.1669 27.8166 32.8371 26.9354 32.4193C26.3479 32.1445 25.7713 31.8257 25.2491 31.4409C24.6507 31.0012 24.2482 30.4075 24.2156 29.605C24.2047 29.1873 24.1068 28.7695 24.0415 28.3518C23.9545 27.8131 24.0089 27.3184 24.3135 26.8347C24.6943 26.2191 24.9989 25.5485 25.3579 24.9109C25.532 24.6141 25.7496 24.3502 25.978 24.0974C26.3806 23.6576 26.4023 23.108 26.1303 22.5913C25.9889 22.3164 25.9889 21.9317 26.0215 21.6019C26.0868 20.8433 26.3044 20.0848 26.2935 19.3263C26.2609 16.7648 24.7487 16.0283 22.7469 16.0063C22.6163 16.0063 22.4966 16.0283 22.3661 16.0393C22.377 15.9843 22.3661 15.9623 22.3661 15.9293Z" fill="#54D8AF"/>
</svg>
