<svg width="374" height="35" viewBox="0 0 374 35" fill="none" xmlns="http://www.w3.org/2000/svg">
<path d="M316.362 8.69823H317.872V14.5661H321.236V8.69823H322.746V14.5661H323.775V17.7416H322.265V15.9467H316.362V8.69823ZM326.384 12.8402C326.452 13.3235 326.727 13.8067 327.139 14.1519C327.55 14.497 328.031 14.7041 328.649 14.7041C329.06 14.7041 329.472 14.6351 329.816 14.428C330.159 14.2209 330.433 14.0828 330.571 13.8757L330.777 13.5996L331.737 14.5661C331.737 14.6351 331.669 14.6351 331.6 14.7041C331.532 14.7732 331.394 14.9112 331.188 15.0493C330.982 15.1874 330.776 15.3945 330.571 15.4635C330.365 15.6016 330.021 15.7396 329.678 15.8087C329.335 15.9467 328.923 15.9467 328.58 15.9467C327.55 15.9467 326.658 15.6016 325.972 14.8422C325.217 14.0828 324.873 13.1854 324.873 12.1499C324.873 11.1144 325.217 10.286 325.972 9.52663C326.658 8.83629 327.55 8.42209 328.58 8.42209C329.61 8.42209 330.433 8.76726 331.12 9.45759C331.806 10.1479 332.149 10.9763 332.149 12.0118L332.081 12.7712H326.384V12.8402ZM327.139 10.286C326.795 10.6312 326.521 11.0454 326.384 11.5286H330.571C330.502 11.0454 330.227 10.6312 329.884 10.286C329.541 9.94083 329.061 9.80276 328.511 9.80276C327.962 9.80276 327.55 10.0099 327.139 10.286ZM335.375 15.9467H333.865V8.69823H335.375V11.5286H338.876V8.69823H340.386V15.9467H338.876V12.9093H335.375V15.9467ZM341.828 8.69823H348.28V10.0789H345.809V15.9467H344.299V10.0789H341.828V8.69823ZM352.741 15.9467C352.467 15.8777 352.261 15.8087 352.124 15.7396C351.918 15.6706 351.78 15.5325 351.643 15.4635C351.506 15.3945 351.437 15.2564 351.369 15.2564L351.3 15.1183V19.1223H349.79V8.69823H351.3V9.52663C351.369 9.45759 351.437 9.38856 351.574 9.25049C351.712 9.11243 351.986 8.97436 352.398 8.83629C352.81 8.62919 353.222 8.56016 353.634 8.56016C354.595 8.56016 355.418 8.90533 356.105 9.6647C356.791 10.4241 357.134 11.2525 357.134 12.357C357.134 13.3925 356.791 14.2899 356.105 15.0493C355.418 15.8087 354.595 16.1538 353.634 16.1538C353.222 16.0848 353.016 16.0158 352.741 15.9467ZM351.849 10.6312C351.437 11.1144 351.163 11.6667 351.163 12.357C351.163 13.0473 351.369 13.5996 351.849 14.0828C352.261 14.5661 352.81 14.7732 353.359 14.7732C353.908 14.7732 354.457 14.5661 354.869 14.0828C355.281 13.5996 355.556 13.0473 355.556 12.357C355.556 11.6667 355.35 11.1144 354.869 10.6312C354.457 10.1479 353.908 9.94083 353.359 9.94083C352.81 9.8718 352.261 10.1479 351.849 10.6312ZM315.607 21.2623H322.059V22.643H319.588V28.5109H318.078V22.643H315.607V21.2623ZM324.462 25.4043C324.53 25.8876 324.805 26.3708 325.217 26.716C325.628 27.0611 326.109 27.2682 326.727 27.2682C327.139 27.2682 327.55 27.1992 327.894 26.9921C328.237 26.785 328.511 26.6469 328.649 26.4398L328.855 26.1637L329.816 27.1302C329.816 27.1992 329.747 27.1992 329.678 27.2682C329.61 27.3373 329.472 27.4753 329.266 27.6134C329.061 27.7515 328.855 27.9586 328.649 28.0276C328.443 28.1657 328.1 28.3037 327.756 28.3728C327.413 28.5109 327.001 28.5109 326.658 28.5109C325.629 28.5109 324.736 28.1657 324.05 27.4063C323.295 26.6469 322.952 25.7495 322.952 24.714C322.952 23.6785 323.295 22.8501 324.05 22.0907C324.736 21.4004 325.629 20.9862 326.658 20.9862C327.688 20.9862 328.511 21.3314 329.198 22.0217C329.884 22.712 330.227 23.5404 330.227 24.5759L330.159 25.3353H324.462V25.4043ZM325.285 22.8501C324.942 23.1953 324.668 23.6095 324.53 24.0927H328.717C328.649 23.6095 328.374 23.1953 328.031 22.8501C327.688 22.5049 327.207 22.3669 326.658 22.3669C326.109 22.3669 325.629 22.5049 325.285 22.8501ZM335.032 28.5109C334.758 28.4418 334.552 28.3728 334.414 28.3037C334.209 28.2347 334.071 28.0966 333.934 28.0276C333.797 27.9586 333.728 27.8205 333.659 27.8205L333.591 27.6824V31.6864H332.081V21.2623H333.591V22.0907C333.659 22.0217 333.728 21.9527 333.865 21.8146C334.003 21.6765 334.277 21.5385 334.689 21.4004C335.101 21.1933 335.513 21.1243 335.924 21.1243C336.885 21.1243 337.709 21.4694 338.396 22.2288C339.082 22.9882 339.425 23.8856 339.425 24.9211C339.425 25.9566 339.082 26.854 338.396 27.6134C337.709 28.3728 336.885 28.718 335.924 28.718C335.513 28.6489 335.238 28.5799 335.032 28.5109ZM334.14 23.1262C333.728 23.6095 333.453 24.1617 333.453 24.8521C333.453 25.5424 333.659 26.0947 334.14 26.5779C334.552 27.0611 335.101 27.2682 335.65 27.2682C336.199 27.2682 336.748 27.0611 337.16 26.5779C337.572 26.0947 337.846 25.5424 337.846 24.8521C337.846 24.1617 337.641 23.6095 337.16 23.1262C336.748 22.643 336.199 22.4359 335.65 22.4359C335.101 22.4359 334.552 22.712 334.14 23.1262ZM345.328 28.5109V27.7515L345.26 27.8205C345.191 27.8895 345.122 27.9586 344.985 28.0276C344.848 28.0966 344.71 28.2347 344.505 28.3037C344.367 28.3728 344.161 28.4418 343.887 28.5109C343.612 28.5799 343.406 28.5799 343.132 28.5799C342.377 28.5799 341.759 28.3728 341.278 27.9586C340.798 27.5444 340.523 27.0611 340.523 26.5089C340.523 25.8876 340.729 25.4043 341.073 24.9901C341.416 24.5759 341.965 24.2998 342.583 24.2308L345.191 23.7475C345.191 23.3333 345.054 23.0572 344.779 22.7811C344.505 22.5049 344.161 22.3669 343.681 22.3669C343.269 22.3669 342.926 22.4359 342.651 22.574C342.308 22.712 342.102 22.9191 342.033 23.0572L341.828 23.3333L340.867 22.3669C340.867 22.2978 340.935 22.2978 341.004 22.2288C341.073 22.1598 341.141 22.0907 341.347 21.8836C341.553 21.7456 341.69 21.6075 341.896 21.4694C342.102 21.3314 342.377 21.2623 342.72 21.1243C343.063 21.0552 343.406 20.9862 343.749 20.9862C344.642 20.9862 345.328 21.2623 345.877 21.7456C346.426 22.2978 346.701 22.9191 346.701 23.6785V28.3728H345.328V28.5109ZM344.779 26.716C345.122 26.3708 345.328 25.8185 345.328 25.1282V24.9901L342.994 25.3353C342.72 25.4043 342.514 25.4734 342.377 25.6805C342.239 25.8185 342.102 26.0947 342.102 26.3018C342.102 26.5089 342.239 26.785 342.445 26.9231C342.651 27.1302 342.994 27.1992 343.406 27.1992C343.955 27.2682 344.436 27.0611 344.779 26.716ZM350.545 28.5109H349.035V21.2623H355.556V28.5109H354.045V22.643H350.545V28.5109ZM364.479 21.2623V28.5109H362.969V23.7475L359.194 28.5109H357.821V21.2623H359.331V26.0256L363.106 21.2623H364.479ZM373.333 21.2623V28.5109H371.823V23.7475L368.048 28.5109H366.675V21.2623H368.185V26.0256L371.961 21.2623H373.333ZM301.536 23.8166C300.369 23.8166 299.751 23.2643 299.751 22.0217V16.1538C299.751 11.9428 297.967 8.28402 291.103 8.28402C287.121 8.28402 284.101 9.52663 284.101 9.52663V14.1519C285.337 13.6686 287.671 13.1164 290.142 13.1164C292.475 13.1164 294.329 13.5996 294.329 16.499H289.112C285.749 16.499 282.248 18.432 282.248 23.0572C282.248 26.9921 285.131 28.856 288.906 28.856C292.064 28.856 294.123 27.1302 295.358 25.6805C295.633 26.785 296.594 28.787 299.477 28.787C300.918 28.787 302.222 28.3037 302.222 28.3037V23.7475H301.536V23.8166ZM289.936 24.2308C288.769 24.2308 287.739 23.6095 287.739 22.3669C287.739 20.7101 289.181 20.4339 290.416 20.4339H294.397C294.397 21.8146 292.75 24.2308 289.936 24.2308ZM282.385 8.69823L275.178 28.5109H269.618C269.618 28.5109 269.618 28.5109 264.676 15.1874C264.196 13.9448 263.852 13.3925 262.686 13.3925H261.793V8.76726C261.793 8.76726 262.96 8.35306 264.402 8.35306C266.804 8.35306 268.245 9.66469 269.481 13.3925C270.03 15.1874 271.266 18.57 272.364 21.6765L276.894 8.69823H282.385ZM212.853 0.828402C213.402 1.38067 213.745 2.14004 213.745 3.03748C213.745 3.93491 213.471 4.69428 212.853 5.24655C212.304 5.79882 211.48 6.07495 210.519 6.07495C209.627 6.07495 208.872 5.79882 208.323 5.24655C207.774 4.69428 207.499 3.93491 207.499 3.03748C207.499 2.14004 207.774 1.38067 208.323 0.828402C208.872 0.276134 209.627 0 210.519 0C211.48 0 212.235 0.276134 212.853 0.828402ZM213.677 13.3235V28.5109H208.254V15.1874C208.254 13.9448 207.705 13.3235 206.469 13.3235H205.783V8.69823C205.783 8.69823 207.087 8.28402 208.529 8.28402C212.51 8.28402 213.677 10.7002 213.677 13.3235ZM250.674 8.28402C244.359 8.28402 240.446 12.9093 240.446 18.57C240.446 24.2308 244.496 28.856 250.674 28.856C256.851 28.856 260.901 24.2308 260.901 18.57C260.97 12.9093 256.988 8.28402 250.674 8.28402ZM250.674 23.8166C247.722 23.8166 245.869 21.4694 245.869 18.57C245.869 15.6706 247.585 13.2544 250.674 13.2544C253.831 13.2544 255.478 15.6706 255.478 18.57C255.547 21.4694 253.694 23.8166 250.674 23.8166ZM180.18 23.8166H180.867V28.4418C180.867 28.4418 179.562 28.856 178.121 28.856C174.826 28.856 174.277 26.4398 174.14 25.6805C172.973 27.1992 170.845 28.856 167.344 28.856C162.334 28.856 160.137 25.3353 160.137 20.503V8.69823H165.56V20.0197C165.56 22.4359 166.589 23.8166 168.992 23.8166C172.149 23.8166 173.042 20.641 173.042 19.1913V8.69823H178.464V22.0217C178.464 23.2643 179.013 23.8166 180.18 23.8166ZM203.037 16.6371V28.5109H197.615V17.1203C197.615 14.7041 196.585 13.3235 194.183 13.3235C191.025 13.3235 190.133 16.499 190.133 17.9487V28.4418H184.71V15.1183C184.71 13.8757 184.161 13.3235 182.926 13.3235H182.239V8.69823C182.239 8.69823 183.544 8.28402 184.985 8.28402C188.28 8.28402 188.829 10.6312 188.966 11.4596C190.133 9.94083 192.261 8.28402 195.762 8.28402C200.841 8.28402 203.037 11.8047 203.037 16.6371ZM237.563 16.6371V28.5109H232.141V17.1203C232.141 14.7041 231.111 13.3235 228.709 13.3235C225.551 13.3235 224.659 16.499 224.659 17.9487V28.4418H219.236V15.1183C219.236 13.8757 218.687 13.3235 217.452 13.3235H216.765V8.69823C216.765 8.69823 218.07 8.28402 219.511 8.28402C222.806 8.28402 223.355 10.6312 223.492 11.4596C224.659 9.94083 226.787 8.28402 230.287 8.28402C235.298 8.28402 237.563 11.8047 237.563 16.6371ZM128.563 5.52268C118.198 5.52268 104.676 14.9112 104.676 14.9112C98.2926 10.9073 86.2119 2.14004 72.278 2.14004C58.3441 2.14004 46.2634 10.9073 39.8799 14.9112C39.8799 14.9112 26.2891 5.52268 15.9931 5.52268C6.31489 5.52268 0 11.5976 0 18.57C0 25.6114 6.31489 31.6174 15.9245 31.6174C26.2892 31.6174 39.8112 22.2288 39.8112 22.2288C46.2634 26.2327 58.3441 35 72.278 35C86.2119 35 98.2926 26.2327 104.676 22.2288C104.676 22.2288 118.267 31.6174 128.563 31.6174C138.241 31.6174 144.487 25.6114 144.487 18.57C144.556 11.5976 138.241 5.52268 128.563 5.52268ZM15.7186 25.6114C10.296 25.6114 6.58945 22.2288 6.58945 18.57C6.58945 14.9112 10.296 11.5286 15.7186 11.5286C23.5435 11.5286 34.1141 18.57 34.1141 18.57C34.1141 18.57 23.4749 25.6114 15.7186 25.6114ZM72.278 29.0631C61.5701 29.0631 52.1665 22.574 45.577 18.57C52.1665 14.6351 61.5701 8.07692 72.278 8.07692C82.9859 8.07692 92.3895 14.5661 98.979 18.57C92.3895 22.5049 82.9859 29.0631 72.278 29.0631ZM128.837 25.6114C121.012 25.6114 110.442 18.57 110.442 18.57C110.442 18.57 121.012 11.5286 128.837 11.5286C134.26 11.5286 137.967 14.9112 137.967 18.57C137.967 22.2288 134.26 25.6114 128.837 25.6114Z" fill="#142DAD"/>
</svg>
