<svg width="84" height="40" viewBox="0 0 84 40" fill="none" xmlns="http://www.w3.org/2000/svg">
<path d="M83.5664 37.0428C82.8849 37.0428 82.5442 36.7004 82.5442 35.9844V32.5603C82.5442 30.1012 81.5221 27.9844 77.5266 27.9844C75.2345 27.9844 73.469 28.7004 73.469 28.7004V31.4086C74.1814 31.1284 75.5443 30.8171 77 30.8171C78.3628 30.8171 79.4159 31.0973 79.4159 32.8093H76.3805C74.3982 32.8093 72.3849 33.93 72.3849 36.6381C72.3849 38.9416 74.0575 40 76.2257 40C78.0531 40 79.2611 39.0039 79.9734 38.1634C80.1593 38.786 80.6858 39.9689 82.3584 39.9689C83.1947 39.9689 83.938 39.7198 83.938 39.7198V37.0428H83.5664ZM76.8142 37.2607C76.1327 37.2607 75.5442 36.8872 75.5442 36.2023C75.5442 35.2685 76.3805 35.0817 77.0929 35.0817H79.4159C79.4159 35.8599 78.4557 37.2607 76.8142 37.2607ZM72.4469 28.2335L68.2655 39.7198H65.0133C65.0133 39.7198 65.0133 39.6887 62.1637 31.9689C61.9159 31.2529 61.6991 30.9105 61.0177 30.9105H60.5221V28.2335C60.5221 28.2335 61.2035 28.0156 62.0398 28.0156C63.4336 28.0156 64.2699 28.7626 64.9823 30.9416C65.323 31.9689 66.0044 33.93 66.6549 35.7665L69.2876 28.2335H72.4469ZM32.0265 23.6887C32.3673 24 32.5221 24.4358 32.5221 24.965C32.5221 25.4942 32.3673 25.93 32.0265 26.2412C31.6858 26.5525 31.2212 26.7082 30.6637 26.7082C30.1372 26.7082 29.7035 26.5525 29.3938 26.2412C29.0841 25.93 28.9292 25.4942 28.9292 24.965C28.9292 24.4358 29.0841 24 29.3938 23.6887C29.7035 23.3774 30.1372 23.2218 30.6637 23.2218C31.2522 23.1907 31.6858 23.3774 32.0265 23.6887ZM32.5221 30.9416V39.751H29.3938V32.0311C29.3938 31.3152 29.0531 30.9416 28.3717 30.9416H27.969V28.2646C27.969 28.2646 28.7434 28.0467 29.5487 28.0467C31.8407 28.0156 32.5221 29.4163 32.5221 30.9416ZM54.0177 28.0156C50.3628 28.0156 48.0708 30.6926 48.0708 33.9922C48.0708 37.2918 50.4248 39.9689 54.0177 39.9689C57.6106 39.9689 59.9646 37.2918 59.9646 33.9922C59.9646 30.6926 57.6726 28.0156 54.0177 28.0156ZM54.0177 37.0428C52.2832 37.0428 51.1991 35.6731 51.1991 33.9922C51.1991 32.3113 52.1903 30.9416 54.0177 30.9416C55.8451 30.9416 56.8363 32.3113 56.8363 33.9922C56.8363 35.6731 55.7522 37.0428 54.0177 37.0428ZM13.1018 37.0428H13.5044V39.7198C13.5044 39.7198 12.7301 39.9689 11.9248 39.9689C10.0354 39.9689 9.66372 38.5681 9.60177 38.1323C8.92035 39.0039 7.68142 39.9689 5.66814 39.9689C2.75664 39.9689 1.48673 37.9144 1.48673 35.1128V28.2335H4.64602V34.8016C4.64602 36.2023 5.23451 37.0117 6.62832 37.0117C8.45575 37.0117 8.95133 35.1751 8.95133 34.3035V28.2335H12.0796V35.9844C12.0796 36.7315 12.3894 37.0428 13.1018 37.0428ZM26.3584 32.8405V39.7198H23.2301V33.1518C23.2301 31.751 22.6416 30.9416 21.2478 30.9416C19.4204 30.9416 18.9248 32.7782 18.9248 33.6187V39.7198H15.7345V31.9689C15.7345 31.2529 15.3938 30.9105 14.7124 30.9105H14.3097V28.2335C14.3097 28.2335 15.0841 28.0156 15.8894 28.0156C17.7788 28.0156 18.1504 29.3852 18.2124 29.8521C18.8938 28.9805 20.1327 28.0156 22.146 28.0156C25.0575 28.0156 26.3584 30.07 26.3584 32.8405ZM46.3982 32.8405V39.7198H43.2389V33.1518C43.2389 31.751 42.6504 30.9416 41.2566 30.9416C39.4292 30.9416 38.9336 32.7782 38.9336 33.6187V39.7198H35.7743V31.9689C35.7743 31.2529 35.4336 30.9105 34.7522 30.9105H34.3805V28.2335C34.3805 28.2335 35.1549 28.0156 35.9602 28.0156C37.8496 28.0156 38.2212 29.3852 38.2832 29.8521C38.9646 28.9805 40.2035 28.0156 42.2168 28.0156C45.0973 28.0156 46.3982 30.07 46.3982 32.8405ZM74.677 1.96109C68.6681 1.96109 60.7699 7.40856 60.7699 7.40856C57.0841 5.10506 50.0841 0 41.969 0C33.854 0 26.885 5.10506 23.1681 7.40856C23.1681 7.40856 15.3009 1.96109 9.26106 1.96109C3.65487 1.96109 0 5.44747 0 9.52529C0 13.6031 3.65487 17.0895 9.26106 17.0895C15.2699 17.0895 23.1681 11.642 23.1681 11.642C26.885 13.9455 33.885 19.0506 42 19.0506C50.115 19.0506 57.0841 13.9455 60.8319 11.642C60.8319 11.642 68.6991 17.0895 74.7389 17.0895C80.3451 17.0895 84 13.6031 84 9.52529C83.9381 5.44747 80.2832 1.96109 74.677 1.96109ZM9.10619 13.6031C5.9469 13.6031 3.80973 11.642 3.77876 9.52529C3.77876 7.40856 5.9469 5.44747 9.10619 5.44747C13.6283 5.44747 19.7611 9.52529 19.7611 9.52529C19.7611 9.52529 13.6593 13.6031 9.10619 13.6031ZM41.969 15.6265C35.7743 15.6265 30.292 11.8288 26.4823 9.55642C30.292 7.25292 35.7743 3.48638 41.969 3.48638C48.1637 3.48638 53.646 7.28405 57.4558 9.55642C53.646 11.8288 48.1947 15.6265 41.969 15.6265ZM74.8319 13.6031C70.3097 13.6031 64.177 9.52529 64.177 9.52529C64.177 9.52529 70.3097 5.44747 74.8319 5.44747C77.9911 5.44747 80.1283 7.40856 80.1283 9.52529C80.1283 11.6732 77.9911 13.6031 74.8319 13.6031Z" fill="#142DAD"/>
</svg>
